<?xml version="1.0" encoding="UTF-8" standalone="no"?>
<!DOCTYPE svg PUBLIC "-//W3C//DTD SVG 1.1//EN" "http://www.w3.org/Graphics/SVG/1.1/DTD/svg11.dtd">
<svg width="100%" height="100%" viewBox="0 0 971 250" version="1.1" xmlns="http://www.w3.org/2000/svg" xmlns:xlink="http://www.w3.org/1999/xlink" xml:space="preserve" xmlns:serif="http://www.serif.com/" style="fill-rule:evenodd;clip-rule:evenodd;stroke-linecap:round;stroke-linejoin:round;">
    <g id="layer1" transform="matrix(3.779528,0,0,3.779528,0,0)">
        <rect id="rect1" x="0" y="0" width="256.646" height="66.146" style="fill:rgb(255,232,198);"/>
    </g>
    <g id="layer2" transform="matrix(3.779528,0,0,3.779528,0,0)">
        <g id="g1" transform="matrix(0.067838,0,0,0.067838,109.9113,7.183332)">
            <path id="path1" d="M271.77,185.39L271.77,114.13C271.77,107.77 268.37,101.9 262.86,98.72L200.51,63.09C195,59.91 188.21,59.91 182.7,63.09L120.35,98.72C114.84,101.9 111.45,107.77 111.44,114.13L111.44,185.39C111.44,191.75 114.84,197.62 120.35,200.8L182.7,236.43C188.21,239.61 195,239.61 200.51,236.43L262.86,200.8C268.37,197.62 271.76,191.75 271.77,185.39Z" style="fill:rgb(93,71,119);fill-rule:nonzero;stroke:rgb(93,71,119);stroke-width:26.91px;"/>
            <path id="path2" d="M442.75,427.56L442.75,325.73C442.75,316.64 437.89,308.25 430.02,303.71L340.91,252.79C333.03,248.24 323.33,248.24 315.45,252.79L226.34,303.71C218.47,308.25 213.62,316.65 213.61,325.73L213.61,427.56C213.61,436.65 218.47,445.04 226.34,449.58L315.45,500.5C323.33,505.05 333.03,505.05 340.91,500.5L430.02,449.58C437.89,445.04 442.74,436.64 442.75,427.56Z" style="fill:rgb(255,179,67);fill-rule:nonzero;stroke:rgb(255,179,67);stroke-width:35px;"/>
            <path id="path3" d="M271.21,639.15L271.21,567.89C271.21,561.53 267.81,555.66 262.3,552.48L199.95,516.85C194.44,513.67 187.65,513.67 182.14,516.85L119.79,552.48C114.28,555.66 110.89,561.53 110.88,567.89L110.88,639.15C110.88,645.51 114.28,651.38 119.79,654.56L182.14,690.19C187.65,693.37 194.44,693.37 199.95,690.19L262.3,654.56C267.81,651.38 271.2,645.51 271.21,639.15Z" style="fill:rgb(93,71,119);fill-rule:nonzero;stroke:rgb(93,71,119);stroke-width:26.91px;"/>
            <path id="path4" d="M403.27,300.75C404.92,302.16 405.45,304.49 404.56,306.47C389.58,340.05 358.13,386.45 335.1,410.63C328.64,417.38 320.68,422.53 311.87,425.65C311.69,427.87 311.28,430.92 310.3,434.15C308.33,440.6 303.77,448.63 293.58,451.18C283.71,453.53 273.48,453.97 263.45,452.47C261.59,452.16 259.75,451.72 257.95,451.15C256.29,450.64 254.74,449.82 253.39,448.73C252.49,447.98 251.81,447.01 251.39,445.91C250.87,444.51 250.88,442.96 251.43,441.57C252.36,439.17 254.52,437.85 255.94,437.15C259.8,435.22 262.06,432.72 264.43,429.06C265.36,427.65 266.23,426.15 267.24,424.44L268.39,422.5C269.87,420 271.58,417.21 273.74,414.2C278.91,406.97 285.5,405.14 290.83,405.43C292.07,405.51 293.21,405.66 294.24,405.9C294.85,404.22 295.63,402.18 296.57,399.95C299.13,393.89 303.01,386.06 308.19,379.7C329.49,353.56 368.69,318.95 397.44,300.37C399.26,299.2 401.63,299.36 403.27,300.76" style="fill:rgb(93,71,119);fill-rule:nonzero;"/>
            <g id="g13">
                <path id="path5" d="M575.14,318.99C583.12,318.99 590.08,319.83 596.04,321.51C601.99,323.19 606.61,325.54 609.9,328.55C613.19,331.56 614.84,335.16 614.84,339.36C614.84,342.16 614,344.79 612.32,347.24C610.64,349.69 608.19,350.91 604.97,350.91C602.73,350.91 600.88,350.6 599.4,349.97C597.93,349.34 596.63,348.54 595.52,347.55C594.4,346.57 593.07,345.66 591.53,344.82C590.13,343.98 587.99,343.32 585.13,342.82C582.26,342.33 580.12,342.09 578.72,342.09C571.58,342.09 565.52,343.63 560.55,346.71C555.58,349.79 551.76,353.96 549.1,359.21C546.44,364.46 545.11,370.52 545.11,377.38C545.11,384.24 546.48,390.09 549.21,395.34C551.94,400.59 555.72,404.76 560.55,407.84C565.38,410.92 570.94,412.46 577.25,412.46C580.75,412.46 583.76,412.25 586.28,411.83C588.8,411.41 590.9,410.78 592.58,409.94C594.54,408.82 596.29,407.63 597.83,406.37C599.37,405.11 601.68,404.48 604.76,404.48C608.4,404.48 611.2,405.64 613.16,407.95C615.12,410.26 616.1,413.09 616.1,416.45C616.1,419.81 614.14,423.14 610.22,426C606.3,428.87 601.15,431.18 594.78,432.93C588.41,434.68 581.51,435.55 574.1,435.55C563.04,435.55 553.45,433 545.33,427.88C537.21,422.77 530.95,415.81 526.54,406.99C522.13,398.17 519.93,388.3 519.93,377.38C519.93,365.9 522.27,355.79 526.96,347.04C531.65,338.29 538.16,331.43 546.49,326.46C554.82,321.49 564.37,319 575.16,319L575.14,318.99Z" style="fill:rgb(93,71,119);fill-rule:nonzero;"/>
                <path id="path6" d="M646.96,433.44C643.32,433.44 640.31,432.22 637.93,429.77C635.55,427.32 634.36,424.28 634.36,420.64L634.36,333.91C634.36,330.27 635.55,327.23 637.93,324.78C640.31,322.33 643.32,321.11 646.96,321.11C650.6,321.11 653.61,322.34 655.99,324.78C658.37,327.23 659.56,330.28 659.56,333.91L659.56,353.65L658.09,339.58C659.63,336.22 661.62,333.25 664.08,330.66C666.53,328.07 669.29,325.9 672.37,324.15C675.45,322.4 678.74,321.11 682.24,320.26C685.74,319.42 689.24,319 692.74,319C696.94,319 700.47,320.19 703.34,322.57C706.21,324.95 707.65,327.75 707.65,330.97C707.65,335.59 706.46,338.92 704.08,340.95C701.7,342.98 699.11,343.99 696.31,343.99C693.51,343.99 691.23,343.5 689.07,342.52C686.9,341.54 684.41,341.05 681.61,341.05C679.09,341.05 676.53,341.65 673.94,342.84C671.35,344.03 668.97,345.88 666.8,348.41C664.63,350.93 662.88,354.05 661.55,357.75C660.22,361.46 659.55,365.83 659.55,370.87L659.55,420.64C659.55,424.28 658.36,427.33 655.98,429.77C653.6,432.22 650.59,433.44 646.95,433.44L646.96,433.44Z" style="fill:rgb(93,71,119);fill-rule:nonzero;"/>
                <path id="path7" d="M814.96,318.99C818.6,318.99 821.61,320.18 823.99,322.56C826.37,324.94 827.56,328.02 827.56,331.8L827.56,420.63C827.56,424.27 826.37,427.32 823.99,429.76C821.61,432.21 818.6,433.43 814.96,433.43C811.32,433.43 808.31,432.21 805.93,429.76C803.55,427.31 802.36,424.27 802.36,420.63L802.36,410.34L806.98,412.23C806.98,414.05 806,416.26 804.04,418.85C802.08,421.44 799.42,423.99 796.06,426.52C792.7,429.04 788.74,431.18 784.19,432.92C779.64,434.67 774.7,435.54 769.38,435.54C759.72,435.54 750.97,433.06 743.13,428.08C735.29,423.11 729.09,416.25 724.55,407.5C720,398.75 717.73,388.7 717.73,377.36C717.73,366.02 720,355.77 724.55,347.02C729.1,338.27 735.22,331.41 742.93,326.44C750.63,321.47 759.17,318.98 768.55,318.98C774.57,318.98 780.1,319.89 785.14,321.71C790.18,323.53 794.55,325.84 798.26,328.64C801.97,331.44 804.84,334.28 806.87,337.14C808.9,340.01 809.91,342.43 809.91,344.39L802.35,347.12L802.35,331.79C802.35,328.15 803.54,325.11 805.92,322.65C808.3,320.2 811.31,318.98 814.95,318.98L814.96,318.99ZM772.54,412.44C778.7,412.44 784.09,410.9 788.71,407.82C793.33,404.74 796.93,400.54 799.53,395.22C802.12,389.9 803.41,383.95 803.41,377.37C803.41,370.79 802.11,364.63 799.53,359.31C796.94,353.99 793.33,349.79 788.71,346.71C784.09,343.63 778.7,342.09 772.54,342.09C766.38,342.09 761.2,343.63 756.58,346.71C751.96,349.79 748.35,353.99 745.76,359.31C743.17,364.63 741.88,370.65 741.88,377.37C741.88,384.09 743.17,389.9 745.76,395.22C748.35,400.54 751.96,404.74 756.58,407.82C761.2,410.9 766.52,412.44 772.54,412.44Z" style="fill:rgb(93,71,119);fill-rule:nonzero;"/>
                <path id="path8" d="M914.92,323.19C918.28,323.19 921.08,324.28 923.32,326.44C925.56,328.61 926.68,331.38 926.68,334.73C926.68,338.08 925.56,340.86 923.32,343.02C921.08,345.19 918.28,346.27 914.92,346.27L859.27,346.27C855.91,346.27 853.11,345.19 850.87,343.02C848.63,340.85 847.51,338.09 847.51,334.73C847.51,331.37 848.63,328.61 850.87,326.44C853.11,324.27 855.91,323.19 859.27,323.19L914.92,323.19ZM912.61,278.04C915.69,278.04 918.7,278.46 921.64,279.3C924.58,280.14 927.03,281.51 928.99,283.39C930.95,285.28 931.93,287.77 931.93,290.85C931.93,294.35 930.91,297.12 928.89,299.14C926.87,301.16 924.51,302.18 921.85,302.18C920.59,302.18 918.7,301.86 916.18,301.23C913.66,300.6 911.21,300.29 908.83,300.29C905.33,300.29 902.63,301.06 900.75,302.6C898.86,304.14 897.56,305.93 896.87,307.96C896.17,309.99 895.82,311.78 895.82,313.31L895.82,420.62C895.82,424.26 894.63,427.31 892.25,429.75C889.87,432.2 886.86,433.42 883.22,433.42C879.58,433.42 876.57,432.2 874.19,429.75C871.81,427.3 870.62,424.26 870.62,420.62L870.62,313.52C870.62,303.58 874.12,295.18 881.12,288.32C888.12,281.46 898.62,278.03 912.62,278.03L912.61,278.04Z" style="fill:rgb(93,71,119);fill-rule:nonzero;"/>
                <path id="path9" d="M948.51,323.19L998.28,323.19C1001.64,323.19 1004.44,324.31 1006.68,326.55C1008.92,328.79 1010.04,331.59 1010.04,334.95C1010.04,338.31 1008.92,340.87 1006.68,343.03C1004.44,345.2 1001.64,346.28 998.28,346.28L948.51,346.28C945.15,346.28 942.35,345.16 940.11,342.92C937.87,340.68 936.75,337.88 936.75,334.52C936.75,331.16 937.87,328.61 940.11,326.44C942.35,324.27 945.15,323.19 948.51,323.19ZM970.98,296.94C974.62,296.94 977.6,298.17 979.9,300.61C982.21,303.06 983.36,306.11 983.36,309.74L983.36,403.19C983.36,405.15 983.74,406.76 984.52,408.02C985.29,409.28 986.34,410.19 987.67,410.75C989,411.31 990.43,411.59 991.97,411.59C993.65,411.59 995.19,411.27 996.59,410.64C997.99,410.01 999.6,409.69 1001.42,409.69C1003.38,409.69 1005.16,410.6 1006.77,412.42C1008.38,414.24 1009.19,416.76 1009.19,419.98C1009.19,423.9 1007.05,427.12 1002.79,429.64C998.52,432.16 993.93,433.42 989.04,433.42C986.1,433.42 982.84,433.18 979.27,432.68C975.7,432.19 972.34,431 969.19,429.11C966.04,427.22 963.42,424.32 961.31,420.4C959.21,416.48 958.16,411.09 958.16,404.23L958.16,309.73C958.16,306.09 959.38,303.05 961.83,300.6C964.28,298.15 967.32,296.93 970.96,296.93L970.98,296.94Z" style="fill:rgb(93,71,119);fill-rule:nonzero;"/>
                <path id="path10" d="M1092.15,318.99C1102.23,318.99 1109.9,321.16 1115.15,325.5C1120.4,329.84 1124,335.62 1125.96,342.83C1127.92,350.04 1128.9,358.06 1128.9,366.87L1128.9,420.63C1128.9,424.27 1127.71,427.32 1125.33,429.76C1122.95,432.21 1119.94,433.43 1116.3,433.43C1112.66,433.43 1109.65,432.21 1107.27,429.76C1104.89,427.31 1103.7,424.27 1103.7,420.63L1103.7,366.87C1103.7,362.25 1103.14,358.09 1102.02,354.37C1100.9,350.66 1098.87,347.69 1095.93,345.45C1092.99,343.21 1088.79,342.09 1083.33,342.09C1077.87,342.09 1073.46,343.21 1069.68,345.45C1065.9,347.69 1063.06,350.67 1061.17,354.37C1059.28,358.08 1058.34,362.25 1058.34,366.87L1058.34,420.63C1058.34,424.27 1057.15,427.32 1054.77,429.76C1052.39,432.21 1049.38,433.43 1045.74,433.43C1042.1,433.43 1039.09,432.21 1036.71,429.76C1034.33,427.31 1033.14,424.27 1033.14,420.63L1033.14,290.85C1033.14,287.21 1034.33,284.17 1036.71,281.72C1039.09,279.27 1042.1,278.04 1045.74,278.04C1049.38,278.04 1052.39,279.27 1054.77,281.72C1057.15,284.17 1058.34,287.22 1058.34,290.85L1058.34,342.93L1055.19,342.3C1056.45,339.92 1058.2,337.36 1060.44,334.63C1062.68,331.9 1065.41,329.35 1068.63,326.96C1071.85,324.58 1075.42,322.65 1079.34,321.18C1083.26,319.71 1087.53,318.97 1092.15,318.97L1092.15,318.99Z" style="fill:rgb(255,179,67);fill-rule:nonzero;"/>
                <path id="path11" d="M1179.93,420.63C1179.93,424.27 1178.74,427.32 1176.36,429.76C1173.98,432.21 1170.97,433.43 1167.33,433.43C1163.69,433.43 1160.68,432.21 1158.3,429.76C1155.92,427.31 1154.73,424.27 1154.73,420.63L1154.73,333.9C1154.73,330.26 1155.92,327.22 1158.3,324.77C1160.68,322.32 1163.69,321.1 1167.33,321.1C1170.97,321.1 1173.98,322.33 1176.36,324.77C1178.74,327.22 1179.93,330.27 1179.93,333.9L1179.93,420.63ZM1180.56,299.94L1180.56,289.94C1180.56,289.05 1180.01,288.22 1179.12,287.78L1169.07,282.78C1168.18,282.33 1167.09,282.33 1166.2,282.78L1156.15,287.78C1155.26,288.23 1154.72,289.05 1154.71,289.94L1154.71,299.94C1154.71,300.83 1155.26,301.66 1156.15,302.1L1166.2,307.1C1167.09,307.55 1168.18,307.55 1169.07,307.1L1179.12,302.1C1180.01,301.65 1180.55,300.83 1180.56,299.94Z" style="fill:rgb(255,179,67);fill-rule:nonzero;"/>
                <path id="path12" d="M1210.8,321.09C1213.46,321.09 1215.91,321.76 1218.15,323.08C1220.39,324.41 1222.07,326.41 1223.19,329.07L1254.06,399.63L1249.44,401.73L1280.94,329.28C1283.32,323.68 1287.03,321.02 1292.07,321.3C1295.57,321.3 1298.4,322.39 1300.57,324.55C1302.74,326.72 1303.82,329.42 1303.82,332.63C1303.82,333.61 1303.64,334.66 1303.3,335.78C1302.95,336.9 1302.56,337.95 1302.14,338.93L1262.87,425.45C1260.63,430.49 1257.06,433.15 1252.16,433.43C1249.5,433.85 1246.94,433.36 1244.49,431.96C1242.04,430.56 1240.19,428.39 1238.93,425.45L1199.87,338.93C1199.59,338.23 1199.27,337.32 1198.93,336.2C1198.58,335.08 1198.4,333.75 1198.4,332.21C1198.4,329.69 1199.52,327.21 1201.76,324.75C1204,322.3 1207.01,321.08 1210.79,321.08L1210.8,321.09Z" style="fill:rgb(255,179,67);fill-rule:nonzero;"/>
                <path id="path13" d="M1375.65,435.54C1363.75,435.54 1353.42,433.06 1344.67,428.08C1335.92,423.11 1329.2,416.36 1324.51,407.82C1319.82,399.28 1317.48,389.62 1317.48,378.84C1317.48,366.24 1320.03,355.5 1325.15,346.6C1330.26,337.71 1336.94,330.89 1345.2,326.13C1353.46,321.37 1362.21,318.99 1371.45,318.99C1378.59,318.99 1385.34,320.46 1391.71,323.4C1398.08,326.34 1403.71,330.37 1408.62,335.48C1413.52,340.59 1417.4,346.5 1420.28,353.23C1423.15,359.95 1424.58,367.09 1424.58,374.65C1424.44,378.01 1423.11,380.74 1420.59,382.84C1418.07,384.94 1415.13,385.99 1411.77,385.99L1331.55,385.99L1325.25,364.99L1402.32,364.99L1397.7,369.19L1397.7,363.52C1397.42,359.46 1395.98,355.82 1393.4,352.6C1390.81,349.38 1387.59,346.82 1383.74,344.93C1379.89,343.04 1375.79,342.1 1371.45,342.1C1367.11,342.1 1363.33,342.66 1359.69,343.78C1356.05,344.9 1352.9,346.79 1350.24,349.45C1347.58,352.11 1345.48,355.68 1343.94,360.16C1342.4,364.64 1341.63,370.31 1341.63,377.17C1341.63,384.73 1343.21,391.13 1346.36,396.38C1349.51,401.63 1353.57,405.62 1358.54,408.35C1363.51,411.08 1368.79,412.44 1374.39,412.44C1379.57,412.44 1383.7,412.02 1386.78,411.18C1389.86,410.34 1392.34,409.33 1394.24,408.14C1396.13,406.95 1397.84,405.93 1399.38,405.1C1401.9,403.84 1404.28,403.21 1406.52,403.21C1409.6,403.21 1412.15,404.26 1414.19,406.36C1416.22,408.46 1417.23,410.91 1417.23,413.71C1417.23,417.49 1415.27,420.92 1411.35,424C1407.71,427.08 1402.6,429.78 1396.02,432.08C1389.44,434.39 1382.65,435.54 1375.65,435.54Z" style="fill:rgb(255,179,67);fill-rule:nonzero;"/>
            </g>
        </g>
        <g id="g2" transform="matrix(0.845381,0.598007,-0.598007,0.845381,231.52763,-10.173252)">
            <path id="path1-1" d="M24.024,16.154C23.889,17.375 23.26,18.447 22.341,19.166C22.082,19.784 21.621,20.296 21.039,20.619C20.875,21.258 20.294,22.685 19.604,22.685C18.913,22.685 18.333,21.258 18.168,20.619C17.587,20.296 17.125,19.784 16.867,19.166C15.951,18.45 15.323,17.382 15.185,16.166C14.376,16.78 13.223,16.777 12.413,16.097C11.472,15.307 11.349,13.905 12.139,12.964L15.173,9.348C15.367,7.071 17.276,5.283 19.604,5.283C21.923,5.283 23.827,7.059 24.033,9.324L27.087,12.964C27.876,13.905 27.754,15.307 26.813,16.097C25.997,16.781 24.833,16.78 24.024,16.154L24.024,16.154ZM22.3,14.178L22.31,12.696L16.936,12.715L16.926,14.178L22.3,14.178ZM24.051,13.958L24.816,14.87C25.079,15.183 25.546,15.224 25.86,14.961C26.174,14.698 26.214,14.23 25.951,13.917L24.051,11.652L24.051,13.958ZM22.569,11.213L22.569,9.731C22.569,8.093 21.241,6.766 19.604,6.766C17.966,6.766 16.639,8.093 16.639,9.731L16.639,11.213L22.569,11.213ZM14.41,14.87L15.157,13.98L15.157,11.674L13.274,13.917C13.011,14.23 13.052,14.698 13.366,14.961C13.679,15.224 14.147,15.183 14.41,14.87ZM19.604,18.625C17.966,18.625 16.639,17.298 16.639,15.66L22.569,15.66C22.569,17.298 21.241,18.625 19.604,18.625Z" style="fill:rgb(93,71,119);"/>
        </g>
        <path id="path14" d="M232.26,24.492C232.26,24.492 230.858,29.101 224.44,28.564C211.901,27.514 207.694,7.995 195.553,6.29C182.36,4.438 177.429,20.131 177.429,20.131" style="fill:none;fill-rule:nonzero;stroke:rgb(93,71,119);stroke-width:1.94px;stroke-dasharray:3.872,5.808;"/>
        <path id="rect17" d="M205.216,49.383L205.216,58.376C205.216,59.837 204.031,61.022 202.571,61.022L149.317,61.022C147.857,61.022 146.672,59.837 146.672,58.376L146.672,49.383C146.672,47.923 147.857,46.738 149.317,46.738L202.571,46.738C204.031,46.738 205.216,47.923 205.216,49.383Z" style="fill:rgb(255,179,67);"/>
        <g id="text16-2" transform="matrix(0.210972,0,0,0.210972,175.83291,56.070612)">
            <g transform="matrix(1,0,0,1,0.000041,0)">
                <path d="M-71.033,-3.522C-70.511,-3.522 -70.075,-3.356 -69.724,-3.025C-69.373,-2.694 -69.197,-2.267 -69.197,-1.746C-69.197,-1.244 -69.373,-0.828 -69.724,-0.497C-70.075,-0.166 -70.511,0 -71.033,0L-80.815,0C-81.337,0 -81.773,-0.176 -82.125,-0.527C-82.476,-0.878 -82.651,-1.314 -82.651,-1.836L-82.651,-19.233C-82.651,-19.755 -82.471,-20.191 -82.11,-20.542C-81.748,-20.894 -81.287,-21.069 -80.725,-21.069C-80.243,-21.069 -79.817,-20.894 -79.446,-20.542C-79.075,-20.191 -78.889,-19.755 -78.889,-19.233L-78.889,-3.01L-79.551,-3.522L-71.033,-3.522Z" style="fill:white;fill-rule:nonzero;"/>
                <path d="M-58.452,0.301C-60.157,0.301 -61.637,-0.055 -62.891,-0.768C-64.146,-1.48 -65.109,-2.448 -65.781,-3.672C-66.453,-4.896 -66.789,-6.281 -66.789,-7.826C-66.789,-9.632 -66.423,-11.172 -65.691,-12.446C-64.958,-13.72 -64,-14.698 -62.816,-15.38C-61.632,-16.063 -60.378,-16.404 -59.054,-16.404C-58.03,-16.404 -57.062,-16.193 -56.149,-15.772C-55.236,-15.35 -54.429,-14.773 -53.726,-14.041C-53.024,-13.309 -52.467,-12.461 -52.056,-11.498C-51.645,-10.535 -51.439,-9.511 -51.439,-8.428C-51.459,-7.946 -51.65,-7.555 -52.011,-7.254C-52.372,-6.953 -52.793,-6.802 -53.275,-6.802L-64.773,-6.802L-65.676,-9.812L-54.629,-9.812L-55.291,-9.21L-55.291,-10.023C-55.332,-10.605 -55.537,-11.127 -55.909,-11.588C-56.28,-12.05 -56.741,-12.416 -57.293,-12.687C-57.845,-12.958 -58.432,-13.093 -59.054,-13.093C-59.656,-13.093 -60.218,-13.013 -60.739,-12.852C-61.261,-12.692 -61.713,-12.421 -62.094,-12.04C-62.475,-11.658 -62.776,-11.147 -62.997,-10.504C-63.218,-9.862 -63.328,-9.05 -63.328,-8.066C-63.328,-6.983 -63.102,-6.065 -62.651,-5.312C-62.199,-4.56 -61.617,-3.988 -60.905,-3.597C-60.193,-3.206 -59.435,-3.01 -58.632,-3.01C-57.89,-3.01 -57.298,-3.07 -56.857,-3.19C-56.415,-3.311 -56.059,-3.456 -55.788,-3.627C-55.517,-3.797 -55.271,-3.943 -55.051,-4.063C-54.69,-4.244 -54.348,-4.334 -54.027,-4.334C-53.586,-4.334 -53.22,-4.184 -52.929,-3.883C-52.638,-3.582 -52.492,-3.231 -52.492,-2.829C-52.492,-2.288 -52.773,-1.796 -53.335,-1.354C-53.857,-0.913 -54.589,-0.527 -55.532,-0.196C-56.475,0.135 -57.449,0.301 -58.452,0.301Z" style="fill:white;fill-rule:nonzero;"/>
                <path d="M-34.975,-16.404C-34.453,-16.404 -34.022,-16.233 -33.681,-15.892C-33.339,-15.551 -33.169,-15.11 -33.169,-14.568L-33.169,-1.836C-33.169,-1.314 -33.339,-0.878 -33.681,-0.527C-34.022,-0.176 -34.453,0 -34.975,0C-35.497,0 -35.928,-0.176 -36.269,-0.527C-36.61,-0.878 -36.781,-1.314 -36.781,-1.836L-36.781,-3.311L-36.119,-3.04C-36.119,-2.779 -36.259,-2.463 -36.54,-2.092C-36.821,-1.721 -37.202,-1.354 -37.684,-0.993C-38.165,-0.632 -38.732,-0.326 -39.384,-0.075C-40.036,0.176 -40.744,0.301 -41.506,0.301C-42.891,0.301 -44.145,-0.055 -45.269,-0.768C-46.392,-1.48 -47.28,-2.463 -47.932,-3.717C-48.584,-4.971 -48.911,-6.411 -48.911,-8.036C-48.911,-9.682 -48.584,-11.132 -47.932,-12.386C-47.28,-13.64 -46.402,-14.623 -45.299,-15.335C-44.195,-16.048 -42.971,-16.404 -41.627,-16.404C-40.764,-16.404 -39.971,-16.273 -39.249,-16.013C-38.526,-15.752 -37.899,-15.421 -37.368,-15.019C-36.836,-14.618 -36.425,-14.212 -36.134,-13.8C-35.843,-13.389 -35.697,-13.043 -35.697,-12.762L-36.781,-12.371L-36.781,-14.568C-36.781,-15.09 -36.61,-15.526 -36.269,-15.877C-35.928,-16.228 -35.497,-16.404 -34.975,-16.404ZM-41.055,-3.01C-40.172,-3.01 -39.399,-3.231 -38.737,-3.672C-38.075,-4.114 -37.558,-4.715 -37.187,-5.478C-36.816,-6.24 -36.63,-7.093 -36.63,-8.036C-36.63,-9 -36.816,-9.862 -37.187,-10.625C-37.558,-11.387 -38.075,-11.989 -38.737,-12.431C-39.399,-12.872 -40.172,-13.093 -41.055,-13.093C-41.918,-13.093 -42.68,-12.872 -43.342,-12.431C-44.004,-11.989 -44.521,-11.387 -44.892,-10.625C-45.264,-9.862 -45.449,-9 -45.449,-8.036C-45.449,-7.093 -45.264,-6.24 -44.892,-5.478C-44.521,-4.715 -44.004,-4.114 -43.342,-3.672C-42.68,-3.231 -41.918,-3.01 -41.055,-3.01Z" style="fill:white;fill-rule:nonzero;"/>
                <path d="M-27.45,0C-27.972,0 -28.403,-0.176 -28.744,-0.527C-29.085,-0.878 -29.256,-1.314 -29.256,-1.836L-29.256,-14.267C-29.256,-14.789 -29.085,-15.225 -28.744,-15.576C-28.403,-15.927 -27.972,-16.103 -27.45,-16.103C-26.928,-16.103 -26.497,-15.927 -26.156,-15.576C-25.815,-15.225 -25.644,-14.789 -25.644,-14.267L-25.644,-11.438L-25.855,-13.454C-25.634,-13.936 -25.348,-14.362 -24.997,-14.733C-24.646,-15.105 -24.25,-15.416 -23.808,-15.666C-23.367,-15.917 -22.895,-16.103 -22.394,-16.223C-21.892,-16.344 -21.39,-16.404 -20.889,-16.404C-20.287,-16.404 -19.78,-16.233 -19.369,-15.892C-18.957,-15.551 -18.752,-15.15 -18.752,-14.688C-18.752,-14.026 -18.922,-13.549 -19.263,-13.259C-19.604,-12.968 -19.976,-12.822 -20.377,-12.822C-20.758,-12.822 -21.104,-12.892 -21.415,-13.033C-21.726,-13.173 -22.082,-13.243 -22.484,-13.243C-22.845,-13.243 -23.211,-13.158 -23.582,-12.988C-23.954,-12.817 -24.295,-12.551 -24.606,-12.19C-24.917,-11.829 -25.168,-11.382 -25.358,-10.851C-25.549,-10.319 -25.644,-9.692 -25.644,-8.969L-25.644,-1.836C-25.644,-1.314 -25.815,-0.878 -26.156,-0.527C-26.497,-0.176 -26.928,0 -27.45,0Z" style="fill:white;fill-rule:nonzero;"/>
                <path d="M-7.585,-16.404C-6.1,-16.404 -4.971,-16.093 -4.199,-15.471C-3.426,-14.849 -2.895,-14.021 -2.604,-12.988C-2.313,-11.954 -2.167,-10.805 -2.167,-9.541L-2.167,-1.836C-2.167,-1.314 -2.338,-0.878 -2.679,-0.527C-3.02,-0.176 -3.451,0 -3.973,0C-4.495,0 -4.926,-0.176 -5.267,-0.527C-5.608,-0.878 -5.779,-1.314 -5.779,-1.836L-5.779,-9.541C-5.779,-10.203 -5.864,-10.8 -6.035,-11.332C-6.205,-11.864 -6.511,-12.29 -6.953,-12.611C-7.394,-12.932 -8.026,-13.093 -8.849,-13.093C-9.652,-13.093 -10.329,-12.932 -10.881,-12.611C-11.433,-12.29 -11.854,-11.864 -12.145,-11.332C-12.436,-10.8 -12.581,-10.203 -12.581,-9.541L-12.581,-1.836C-12.581,-1.314 -12.752,-0.878 -13.093,-0.527C-13.434,-0.176 -13.866,0 -14.387,0C-14.909,0 -15.34,-0.176 -15.681,-0.527C-16.023,-0.878 -16.193,-1.314 -16.193,-1.836L-16.193,-14.267C-16.193,-14.789 -16.023,-15.225 -15.681,-15.576C-15.34,-15.927 -14.909,-16.103 -14.387,-16.103C-13.866,-16.103 -13.434,-15.927 -13.093,-15.576C-12.752,-15.225 -12.581,-14.789 -12.581,-14.267L-12.581,-12.973L-13.033,-13.063C-12.852,-13.404 -12.591,-13.77 -12.25,-14.161C-11.909,-14.553 -11.508,-14.919 -11.046,-15.26C-10.585,-15.601 -10.063,-15.877 -9.481,-16.088C-8.899,-16.299 -8.267,-16.404 -7.585,-16.404Z" style="fill:white;fill-rule:nonzero;"/>
                <path d="M18.631,-16.404C20.236,-16.404 21.42,-16.018 22.183,-15.245C22.945,-14.473 23.447,-13.474 23.688,-12.25L23.176,-12.521L23.417,-13.003C23.658,-13.464 24.029,-13.961 24.531,-14.493C25.032,-15.024 25.639,-15.476 26.351,-15.847C27.064,-16.218 27.861,-16.404 28.744,-16.404C30.189,-16.404 31.288,-16.093 32.04,-15.471C32.793,-14.849 33.309,-14.021 33.59,-12.988C33.871,-11.954 34.012,-10.805 34.012,-9.541L34.012,-1.836C34.012,-1.314 33.841,-0.878 33.5,-0.527C33.159,-0.176 32.727,0 32.206,0C31.684,0 31.253,-0.176 30.911,-0.527C30.57,-0.878 30.4,-1.314 30.4,-1.836L30.4,-9.541C30.4,-10.203 30.32,-10.8 30.159,-11.332C29.998,-11.864 29.708,-12.29 29.286,-12.611C28.865,-12.932 28.263,-13.093 27.48,-13.093C26.718,-13.093 26.066,-12.932 25.524,-12.611C24.982,-12.29 24.576,-11.864 24.305,-11.332C24.034,-10.8 23.898,-10.203 23.898,-9.541L23.898,-1.836C23.898,-1.314 23.728,-0.878 23.387,-0.527C23.046,-0.176 22.614,0 22.093,0C21.571,0 21.139,-0.176 20.798,-0.527C20.457,-0.878 20.287,-1.314 20.287,-1.836L20.287,-9.541C20.287,-10.203 20.206,-10.8 20.046,-11.332C19.885,-11.864 19.594,-12.29 19.173,-12.611C18.752,-12.932 18.15,-13.093 17.367,-13.093C16.605,-13.093 15.952,-12.932 15.411,-12.611C14.869,-12.29 14.462,-11.864 14.192,-11.332C13.921,-10.8 13.785,-10.203 13.785,-9.541L13.785,-1.836C13.785,-1.314 13.615,-0.878 13.274,-0.527C12.932,-0.176 12.501,0 11.979,0C11.458,0 11.026,-0.176 10.685,-0.527C10.344,-0.878 10.173,-1.314 10.173,-1.836L10.173,-14.267C10.173,-14.789 10.344,-15.225 10.685,-15.576C11.026,-15.927 11.458,-16.103 11.979,-16.103C12.501,-16.103 12.932,-15.927 13.274,-15.576C13.615,-15.225 13.785,-14.789 13.785,-14.267L13.785,-12.973L13.334,-13.063C13.514,-13.404 13.765,-13.77 14.086,-14.161C14.407,-14.553 14.799,-14.919 15.26,-15.26C15.722,-15.601 16.233,-15.877 16.795,-16.088C17.357,-16.299 17.969,-16.404 18.631,-16.404Z" style="fill:white;fill-rule:nonzero;"/>
                <path d="M53.546,-8.036C53.546,-6.391 53.18,-4.941 52.447,-3.687C51.715,-2.433 50.732,-1.455 49.497,-0.752C48.263,-0.05 46.884,0.301 45.359,0.301C43.834,0.301 42.454,-0.05 41.22,-0.752C39.986,-1.455 39.003,-2.433 38.271,-3.687C37.538,-4.941 37.172,-6.391 37.172,-8.036C37.172,-9.682 37.538,-11.132 38.271,-12.386C39.003,-13.64 39.986,-14.623 41.22,-15.335C42.454,-16.048 43.834,-16.404 45.359,-16.404C46.884,-16.404 48.263,-16.048 49.497,-15.335C50.732,-14.623 51.715,-13.64 52.447,-12.386C53.18,-11.132 53.546,-9.682 53.546,-8.036ZM49.934,-8.036C49.934,-9.06 49.728,-9.948 49.317,-10.7C48.906,-11.453 48.354,-12.04 47.661,-12.461C46.969,-12.882 46.202,-13.093 45.359,-13.093C44.516,-13.093 43.749,-12.882 43.056,-12.461C42.364,-12.04 41.812,-11.453 41.401,-10.7C40.99,-9.948 40.784,-9.06 40.784,-8.036C40.784,-7.033 40.99,-6.155 41.401,-5.403C41.812,-4.65 42.364,-4.063 43.056,-3.642C43.749,-3.221 44.516,-3.01 45.359,-3.01C46.202,-3.01 46.969,-3.221 47.661,-3.642C48.354,-4.063 48.906,-4.65 49.317,-5.403C49.728,-6.155 49.934,-7.033 49.934,-8.036Z" style="fill:white;fill-rule:nonzero;"/>
                <path d="M58.512,0C57.99,0 57.559,-0.176 57.218,-0.527C56.877,-0.878 56.706,-1.314 56.706,-1.836L56.706,-14.267C56.706,-14.789 56.877,-15.225 57.218,-15.576C57.559,-15.927 57.99,-16.103 58.512,-16.103C59.034,-16.103 59.465,-15.927 59.806,-15.576C60.147,-15.225 60.318,-14.789 60.318,-14.267L60.318,-11.438L60.107,-13.454C60.328,-13.936 60.614,-14.362 60.965,-14.733C61.316,-15.105 61.713,-15.416 62.154,-15.666C62.595,-15.917 63.067,-16.103 63.569,-16.223C64.07,-16.344 64.572,-16.404 65.074,-16.404C65.676,-16.404 66.182,-16.233 66.594,-15.892C67.005,-15.551 67.211,-15.15 67.211,-14.688C67.211,-14.026 67.04,-13.549 66.699,-13.259C66.358,-12.968 65.987,-12.822 65.585,-12.822C65.204,-12.822 64.858,-12.892 64.547,-13.033C64.236,-13.173 63.88,-13.243 63.478,-13.243C63.117,-13.243 62.751,-13.158 62.38,-12.988C62.009,-12.817 61.667,-12.551 61.356,-12.19C61.045,-11.829 60.795,-11.382 60.604,-10.851C60.413,-10.319 60.318,-9.692 60.318,-8.969L60.318,-1.836C60.318,-1.314 60.147,-0.878 59.806,-0.527C59.465,-0.176 59.034,0 58.512,0Z" style="fill:white;fill-rule:nonzero;"/>
                <path d="M76.692,0.301C74.986,0.301 73.506,-0.055 72.252,-0.768C70.998,-1.48 70.035,-2.448 69.363,-3.672C68.69,-4.896 68.354,-6.281 68.354,-7.826C68.354,-9.632 68.721,-11.172 69.453,-12.446C70.185,-13.72 71.144,-14.698 72.327,-15.38C73.511,-16.063 74.765,-16.404 76.09,-16.404C77.113,-16.404 78.081,-16.193 78.994,-15.772C79.907,-15.35 80.715,-14.773 81.417,-14.041C82.12,-13.309 82.676,-12.461 83.088,-11.498C83.499,-10.535 83.705,-9.511 83.705,-8.428C83.685,-7.946 83.494,-7.555 83.133,-7.254C82.772,-6.953 82.35,-6.802 81.869,-6.802L70.371,-6.802L69.468,-9.812L80.514,-9.812L79.852,-9.21L79.852,-10.023C79.812,-10.605 79.606,-11.127 79.235,-11.588C78.864,-12.05 78.402,-12.416 77.851,-12.687C77.299,-12.958 76.712,-13.093 76.09,-13.093C75.488,-13.093 74.926,-13.013 74.404,-12.852C73.883,-12.692 73.431,-12.421 73.05,-12.04C72.669,-11.658 72.368,-11.147 72.147,-10.504C71.926,-9.862 71.816,-9.05 71.816,-8.066C71.816,-6.983 72.041,-6.065 72.493,-5.312C72.944,-4.56 73.526,-3.988 74.239,-3.597C74.951,-3.206 75.709,-3.01 76.511,-3.01C77.254,-3.01 77.846,-3.07 78.287,-3.19C78.728,-3.311 79.085,-3.456 79.355,-3.627C79.626,-3.797 79.872,-3.943 80.093,-4.063C80.454,-4.244 80.795,-4.334 81.116,-4.334C81.558,-4.334 81.924,-4.184 82.215,-3.883C82.506,-3.582 82.651,-3.231 82.651,-2.829C82.651,-2.288 82.37,-1.796 81.809,-1.354C81.287,-0.913 80.554,-0.527 79.611,-0.196C78.668,0.135 77.695,0.301 76.692,0.301Z" style="fill:white;fill-rule:nonzero;"/>
            </g>
        </g>
        <g id="g22" transform="matrix(1.254862,0,0,1.254862,-23.363578,-87.467178)">
            <clipPath id="_clip1">
                <rect x="18.618" y="71.772" width="43.459" height="48.013"/>
            </clipPath>
            <g clip-path="url(#_clip1)">
                <g opacity="0.35">
                    <g id="path18" transform="matrix(1,0,0,1.097888,-22.855641,53.054981)">
                        <path d="M40.168,45.368C46.227,44.547 64.364,44.513 70.828,45.368C75.567,45.995 80.727,50.266 83.481,53.58C84.743,55.099 85.641,58.592 84.176,59.738C83.353,60.38 82.26,60.781 81.216,60.781L31.033,60.781C29.987,60.781 28.88,60.375 28.05,59.728C26.59,58.591 27.494,55.105 28.687,53.531C31.194,50.221 35.754,45.967 40.168,45.368Z" style="fill:rgb(255,179,67);fill-rule:nonzero;"/>
                    </g>
                    <g id="path20" transform="matrix(0.689539,0,0,0.757036,-5.434357,54.052986)">
                        <path d="M40.168,45.368C46.227,44.547 64.364,44.513 70.828,45.368C75.567,45.995 80.727,50.266 83.481,53.58C84.743,55.099 85.641,58.592 84.176,59.738C83.353,60.38 82.26,60.781 81.216,60.781L31.033,60.781C29.987,60.781 28.88,60.375 28.05,59.728C26.59,58.591 27.494,55.105 28.687,53.531C31.194,50.221 35.754,45.967 40.168,45.368Z" style="fill:rgb(255,179,67);fill-rule:nonzero;"/>
                    </g>
                    <g id="path18-9" transform="matrix(0.426149,0,0,0.467864,9.345522,57.37748)">
                        <path d="M40.168,45.368C46.227,44.547 64.364,44.513 70.828,45.368C75.567,45.995 80.727,50.266 83.481,53.58C84.743,55.099 85.641,58.592 84.176,59.738C83.353,60.38 82.26,60.781 81.216,60.781L31.033,60.781C29.987,60.781 28.88,60.375 28.05,59.728C26.59,58.591 27.494,55.105 28.687,53.531C31.194,50.221 35.754,45.967 40.168,45.368Z" style="fill:rgb(255,179,67);fill-rule:nonzero;"/>
                    </g>
                    <g id="path18-9-6" transform="matrix(0.251515,0,0,0.276135,19.144994,59.417957)">
                        <path d="M40.168,45.368C46.227,44.547 64.364,44.513 70.828,45.368C75.567,45.995 80.727,50.266 83.481,53.58C84.743,55.099 85.641,58.592 84.176,59.738C83.353,60.38 82.26,60.781 81.216,60.781L31.033,60.781C29.987,60.781 28.88,60.375 28.05,59.728C26.59,58.591 27.494,55.105 28.687,53.531C31.194,50.221 35.754,45.967 40.168,45.368Z" style="fill:rgb(255,179,67);fill-rule:nonzero;"/>
                    </g>
                </g>
            </g>
        </g>
    </g>
    <g id="layer3" transform="matrix(3.779528,0,0,3.779528,0,0)">
        <g id="text16" transform="matrix(0.264583,0,0,0.264583,5.890704,27.640139)">
            <g transform="matrix(1,0,0,1,0,33.066641)">
                <path d="M4.6,-23.367C4.911,-23.367 5.239,-23.283 5.583,-23.117C5.928,-22.95 6.189,-22.733 6.367,-22.467L14.467,-10L12.8,-10.067L21.1,-22.467C21.522,-23.067 22.067,-23.367 22.733,-23.367C23.267,-23.367 23.744,-23.178 24.167,-22.8C24.589,-22.422 24.8,-21.933 24.8,-21.333L24.8,-2.033C24.8,-1.456 24.611,-0.972 24.233,-0.583C23.856,-0.194 23.356,0 22.733,0C22.111,0 21.606,-0.194 21.217,-0.583C20.828,-0.972 20.633,-1.456 20.633,-2.033L20.633,-17.733L21.933,-17.433L15.133,-7.067C14.933,-6.822 14.683,-6.611 14.383,-6.433C14.083,-6.256 13.778,-6.178 13.467,-6.2C13.178,-6.178 12.883,-6.256 12.583,-6.433C12.283,-6.611 12.033,-6.822 11.833,-7.067L5.467,-17.133L6.333,-18.9L6.333,-2.033C6.333,-1.456 6.156,-0.972 5.8,-0.583C5.444,-0.194 4.978,0 4.4,0C3.844,0 3.389,-0.194 3.033,-0.583C2.678,-0.972 2.5,-1.456 2.5,-2.033L2.5,-21.333C2.5,-21.889 2.706,-22.367 3.117,-22.767C3.528,-23.167 4.022,-23.367 4.6,-23.367Z" style="fill:rgb(93,71,119);fill-rule:nonzero;"/>
                <path d="M44.067,-18.167C44.644,-18.167 45.122,-17.978 45.5,-17.6C45.878,-17.222 46.067,-16.733 46.067,-16.133L46.067,-2.033C46.067,-1.456 45.878,-0.972 45.5,-0.583C45.122,-0.194 44.644,0 44.067,0C43.489,0 43.011,-0.194 42.633,-0.583C42.256,-0.972 42.067,-1.456 42.067,-2.033L42.067,-3.667L42.8,-3.367C42.8,-3.078 42.644,-2.728 42.333,-2.317C42.022,-1.906 41.6,-1.5 41.067,-1.1C40.533,-0.7 39.906,-0.361 39.183,-0.083C38.461,0.194 37.678,0.333 36.833,0.333C35.3,0.333 33.911,-0.061 32.667,-0.85C31.422,-1.639 30.439,-2.728 29.717,-4.117C28.994,-5.506 28.633,-7.1 28.633,-8.9C28.633,-10.722 28.994,-12.328 29.717,-13.717C30.439,-15.106 31.411,-16.194 32.633,-16.983C33.856,-17.772 35.211,-18.167 36.7,-18.167C37.656,-18.167 38.533,-18.022 39.333,-17.733C40.133,-17.444 40.828,-17.078 41.417,-16.633C42.006,-16.189 42.461,-15.739 42.783,-15.283C43.106,-14.828 43.267,-14.444 43.267,-14.133L42.067,-13.7L42.067,-16.133C42.067,-16.711 42.256,-17.194 42.633,-17.583C43.011,-17.972 43.489,-18.167 44.067,-18.167ZM37.333,-3.333C38.311,-3.333 39.167,-3.578 39.9,-4.067C40.633,-4.556 41.206,-5.222 41.617,-6.067C42.028,-6.911 42.233,-7.856 42.233,-8.9C42.233,-9.967 42.028,-10.922 41.617,-11.767C41.206,-12.611 40.633,-13.278 39.9,-13.767C39.167,-14.256 38.311,-14.5 37.333,-14.5C36.378,-14.5 35.533,-14.256 34.8,-13.767C34.067,-13.278 33.494,-12.611 33.083,-11.767C32.672,-10.922 32.467,-9.967 32.467,-8.9C32.467,-7.856 32.672,-6.911 33.083,-6.067C33.494,-5.222 34.067,-4.556 34.8,-4.067C35.533,-3.578 36.378,-3.333 37.333,-3.333Z" style="fill:rgb(93,71,119);fill-rule:nonzero;"/>
                <path d="M52.733,0C52.156,0 51.678,-0.194 51.3,-0.583C50.922,-0.972 50.733,-1.456 50.733,-2.033L50.733,-22.633C50.733,-23.211 50.922,-23.694 51.3,-24.083C51.678,-24.472 52.156,-24.667 52.733,-24.667C53.311,-24.667 53.789,-24.472 54.167,-24.083C54.544,-23.694 54.733,-23.211 54.733,-22.633L54.733,-2.033C54.733,-1.456 54.544,-0.972 54.167,-0.583C53.789,-0.194 53.311,0 52.733,0ZM63.333,-17.833C63.844,-17.833 64.289,-17.622 64.667,-17.2C65.044,-16.778 65.233,-16.367 65.233,-15.967C65.233,-15.433 64.967,-14.933 64.433,-14.467L54.4,-5.233L54.233,-9.833L61.867,-17.2C62.289,-17.622 62.778,-17.833 63.333,-17.833ZM63.833,-0.033C63.255,-0.033 62.767,-0.256 62.367,-0.7L56.2,-7.233L59.233,-10.033L65.233,-3.5C65.655,-3.056 65.867,-2.556 65.867,-2C65.867,-1.422 65.639,-0.95 65.183,-0.583C64.728,-0.217 64.278,-0.033 63.833,-0.033Z" style="fill:rgb(93,71,119);fill-rule:nonzero;"/>
                <path d="M77.033,0.333C75.144,0.333 73.505,-0.061 72.117,-0.85C70.728,-1.639 69.661,-2.711 68.917,-4.067C68.172,-5.422 67.8,-6.956 67.8,-8.667C67.8,-10.667 68.205,-12.372 69.017,-13.783C69.828,-15.194 70.889,-16.278 72.2,-17.033C73.511,-17.789 74.9,-18.167 76.367,-18.167C77.5,-18.167 78.572,-17.933 79.583,-17.467C80.594,-17 81.489,-16.361 82.267,-15.55C83.044,-14.739 83.661,-13.8 84.117,-12.733C84.572,-11.667 84.8,-10.533 84.8,-9.333C84.778,-8.8 84.567,-8.367 84.167,-8.033C83.767,-7.7 83.3,-7.533 82.767,-7.533L70.033,-7.533L69.033,-10.867L81.267,-10.867L80.533,-10.2L80.533,-11.1C80.489,-11.744 80.261,-12.322 79.85,-12.833C79.439,-13.344 78.928,-13.75 78.317,-14.05C77.705,-14.35 77.055,-14.5 76.367,-14.5C75.7,-14.5 75.078,-14.411 74.5,-14.233C73.922,-14.056 73.422,-13.756 73,-13.333C72.578,-12.911 72.244,-12.344 72,-11.633C71.755,-10.922 71.633,-10.022 71.633,-8.933C71.633,-7.733 71.883,-6.717 72.383,-5.883C72.883,-5.05 73.528,-4.417 74.317,-3.983C75.105,-3.55 75.944,-3.333 76.833,-3.333C77.655,-3.333 78.311,-3.4 78.8,-3.533C79.289,-3.667 79.683,-3.828 79.983,-4.017C80.283,-4.206 80.555,-4.367 80.8,-4.5C81.2,-4.7 81.578,-4.8 81.933,-4.8C82.422,-4.8 82.828,-4.633 83.15,-4.3C83.472,-3.967 83.633,-3.578 83.633,-3.133C83.633,-2.533 83.322,-1.989 82.7,-1.5C82.122,-1.011 81.311,-0.583 80.267,-0.217C79.222,0.15 78.144,0.333 77.033,0.333Z" style="fill:rgb(93,71,119);fill-rule:nonzero;"/>
                <path d="M110.867,-17.833C111.444,-17.833 111.922,-17.639 112.3,-17.25C112.678,-16.861 112.867,-16.378 112.867,-15.8L112.867,-1.633C112.867,0.411 112.483,2.039 111.717,3.25C110.95,4.461 109.922,5.333 108.633,5.867C107.344,6.4 105.9,6.667 104.3,6.667C103.589,6.667 102.833,6.611 102.033,6.5C101.233,6.389 100.578,6.222 100.067,6C99.4,5.711 98.939,5.35 98.683,4.917C98.428,4.483 98.378,4.022 98.533,3.533C98.733,2.889 99.055,2.45 99.5,2.217C99.944,1.983 100.411,1.956 100.9,2.133C101.255,2.244 101.722,2.417 102.3,2.65C102.878,2.883 103.544,3 104.3,3C105.322,3 106.172,2.861 106.85,2.583C107.528,2.306 108.039,1.839 108.383,1.183C108.728,0.528 108.9,-0.367 108.9,-1.5L108.9,-3.733L109.6,-2.933C109.222,-2.2 108.75,-1.594 108.183,-1.117C107.617,-0.639 106.944,-0.278 106.167,-0.033C105.389,0.211 104.5,0.333 103.5,0.333C102.322,0.333 101.294,0.061 100.417,-0.483C99.539,-1.028 98.855,-1.783 98.367,-2.75C97.878,-3.717 97.633,-4.822 97.633,-6.067L97.633,-15.8C97.633,-16.378 97.822,-16.861 98.2,-17.25C98.578,-17.639 99.055,-17.833 99.633,-17.833C100.211,-17.833 100.689,-17.639 101.067,-17.25C101.444,-16.861 101.633,-16.378 101.633,-15.8L101.633,-7.267C101.633,-5.822 101.95,-4.806 102.583,-4.217C103.217,-3.628 104.1,-3.333 105.233,-3.333C106.011,-3.333 106.667,-3.483 107.2,-3.783C107.733,-4.083 108.144,-4.528 108.433,-5.117C108.722,-5.706 108.867,-6.422 108.867,-7.267L108.867,-15.8C108.867,-16.378 109.055,-16.861 109.433,-17.25C109.811,-17.639 110.289,-17.833 110.867,-17.833Z" style="fill:rgb(93,71,119);fill-rule:nonzero;"/>
                <path d="M134.333,-8.9C134.333,-7.078 133.928,-5.472 133.117,-4.083C132.305,-2.694 131.217,-1.611 129.85,-0.833C128.483,-0.056 126.955,0.333 125.267,0.333C123.578,0.333 122.05,-0.056 120.683,-0.833C119.317,-1.611 118.228,-2.694 117.417,-4.083C116.605,-5.472 116.2,-7.078 116.2,-8.9C116.2,-10.722 116.605,-12.328 117.417,-13.717C118.228,-15.106 119.317,-16.194 120.683,-16.983C122.05,-17.772 123.578,-18.167 125.267,-18.167C126.955,-18.167 128.483,-17.772 129.85,-16.983C131.217,-16.194 132.305,-15.106 133.117,-13.717C133.928,-12.328 134.333,-10.722 134.333,-8.9ZM130.333,-8.9C130.333,-10.033 130.105,-11.017 129.65,-11.85C129.194,-12.683 128.583,-13.333 127.817,-13.8C127.05,-14.267 126.2,-14.5 125.267,-14.5C124.333,-14.5 123.483,-14.267 122.717,-13.8C121.95,-13.333 121.339,-12.683 120.883,-11.85C120.428,-11.017 120.2,-10.033 120.2,-8.9C120.2,-7.789 120.428,-6.817 120.883,-5.983C121.339,-5.15 121.95,-4.5 122.717,-4.033C123.483,-3.567 124.333,-3.333 125.267,-3.333C126.2,-3.333 127.05,-3.567 127.817,-4.033C128.583,-4.5 129.194,-5.15 129.65,-5.983C130.105,-6.817 130.333,-7.789 130.333,-8.9Z" style="fill:rgb(93,71,119);fill-rule:nonzero;"/>
                <path d="M151.067,-17.833C151.644,-17.833 152.122,-17.639 152.5,-17.25C152.878,-16.861 153.067,-16.378 153.067,-15.8L153.067,-7.333C153.067,-4.978 152.411,-3.111 151.1,-1.733C149.789,-0.356 147.9,0.333 145.433,0.333C142.967,0.333 141.083,-0.356 139.783,-1.733C138.483,-3.111 137.833,-4.978 137.833,-7.333L137.833,-15.8C137.833,-16.378 138.022,-16.861 138.4,-17.25C138.778,-17.639 139.255,-17.833 139.833,-17.833C140.411,-17.833 140.889,-17.639 141.267,-17.25C141.644,-16.861 141.833,-16.378 141.833,-15.8L141.833,-7.333C141.833,-5.978 142.133,-4.972 142.733,-4.317C143.333,-3.661 144.233,-3.333 145.433,-3.333C146.655,-3.333 147.567,-3.661 148.167,-4.317C148.767,-4.972 149.067,-5.978 149.067,-7.333L149.067,-15.8C149.067,-16.378 149.255,-16.861 149.633,-17.25C150.011,-17.639 150.489,-17.833 151.067,-17.833Z" style="fill:rgb(93,71,119);fill-rule:nonzero;"/>
                <path d="M159.4,0C158.822,0 158.344,-0.194 157.967,-0.583C157.589,-0.972 157.4,-1.456 157.4,-2.033L157.4,-15.8C157.4,-16.378 157.589,-16.861 157.967,-17.25C158.344,-17.639 158.822,-17.833 159.4,-17.833C159.978,-17.833 160.455,-17.639 160.833,-17.25C161.211,-16.861 161.4,-16.378 161.4,-15.8L161.4,-12.667L161.167,-14.9C161.411,-15.433 161.728,-15.906 162.117,-16.317C162.505,-16.728 162.944,-17.072 163.433,-17.35C163.922,-17.628 164.444,-17.833 165,-17.967C165.555,-18.1 166.111,-18.167 166.667,-18.167C167.333,-18.167 167.894,-17.978 168.35,-17.6C168.805,-17.222 169.033,-16.778 169.033,-16.267C169.033,-15.533 168.844,-15.006 168.466,-14.683C168.089,-14.361 167.678,-14.2 167.233,-14.2C166.811,-14.2 166.428,-14.278 166.083,-14.433C165.739,-14.589 165.344,-14.667 164.9,-14.667C164.5,-14.667 164.094,-14.572 163.683,-14.383C163.272,-14.194 162.894,-13.9 162.55,-13.5C162.205,-13.1 161.928,-12.606 161.717,-12.017C161.505,-11.428 161.4,-10.733 161.4,-9.933L161.4,-2.033C161.4,-1.456 161.211,-0.972 160.833,-0.583C160.455,-0.194 159.978,0 159.4,0Z" style="fill:rgb(93,71,119);fill-rule:nonzero;"/>
                <path d="M190.433,-18.167C191.989,-18.167 193.383,-17.772 194.616,-16.983C195.85,-16.194 196.828,-15.111 197.55,-13.733C198.272,-12.356 198.633,-10.756 198.633,-8.933C198.633,-7.111 198.272,-5.506 197.55,-4.117C196.828,-2.728 195.861,-1.639 194.65,-0.85C193.439,-0.061 192.078,0.333 190.566,0.333C189.678,0.333 188.844,0.189 188.066,-0.1C187.289,-0.389 186.605,-0.756 186.016,-1.2C185.428,-1.644 184.972,-2.094 184.65,-2.55C184.328,-3.006 184.166,-3.389 184.166,-3.7L185.2,-4.133L185.2,-1.7C185.2,-1.122 185.011,-0.639 184.633,-0.25C184.255,0.139 183.778,0.333 183.2,0.333C182.622,0.333 182.144,0.144 181.766,-0.233C181.389,-0.611 181.2,-1.1 181.2,-1.7L181.2,-22.633C181.2,-23.211 181.389,-23.694 181.766,-24.083C182.144,-24.472 182.622,-24.667 183.2,-24.667C183.778,-24.667 184.255,-24.472 184.633,-24.083C185.011,-23.694 185.2,-23.211 185.2,-22.633L185.2,-14.167L184.633,-14.467C184.633,-14.756 184.789,-15.106 185.1,-15.517C185.411,-15.928 185.833,-16.339 186.366,-16.75C186.9,-17.161 187.516,-17.5 188.216,-17.767C188.916,-18.033 189.655,-18.167 190.433,-18.167ZM189.933,-14.5C188.955,-14.5 188.1,-14.256 187.366,-13.767C186.633,-13.278 186.061,-12.617 185.65,-11.783C185.239,-10.95 185.033,-10 185.033,-8.933C185.033,-7.889 185.239,-6.939 185.65,-6.083C186.061,-5.228 186.633,-4.556 187.366,-4.067C188.1,-3.578 188.955,-3.333 189.933,-3.333C190.911,-3.333 191.761,-3.578 192.483,-4.067C193.205,-4.556 193.772,-5.228 194.183,-6.083C194.594,-6.939 194.8,-7.889 194.8,-8.933C194.8,-10 194.594,-10.95 194.183,-11.783C193.772,-12.617 193.205,-13.278 192.483,-13.767C191.761,-14.256 190.911,-14.5 189.933,-14.5Z" style="fill:rgb(93,71,119);fill-rule:nonzero;"/>
                <path d="M215.366,-17.833C215.944,-17.833 216.422,-17.639 216.8,-17.25C217.178,-16.861 217.366,-16.378 217.366,-15.8L217.366,-7.333C217.366,-4.978 216.711,-3.111 215.4,-1.733C214.089,-0.356 212.2,0.333 209.733,0.333C207.266,0.333 205.383,-0.356 204.083,-1.733C202.783,-3.111 202.133,-4.978 202.133,-7.333L202.133,-15.8C202.133,-16.378 202.322,-16.861 202.7,-17.25C203.078,-17.639 203.555,-17.833 204.133,-17.833C204.711,-17.833 205.189,-17.639 205.566,-17.25C205.944,-16.861 206.133,-16.378 206.133,-15.8L206.133,-7.333C206.133,-5.978 206.433,-4.972 207.033,-4.317C207.633,-3.661 208.533,-3.333 209.733,-3.333C210.955,-3.333 211.866,-3.661 212.466,-4.317C213.066,-4.972 213.366,-5.978 213.366,-7.333L213.366,-15.8C213.366,-16.378 213.555,-16.861 213.933,-17.25C214.311,-17.639 214.789,-17.833 215.366,-17.833Z" style="fill:rgb(93,71,119);fill-rule:nonzero;"/>
                <path d="M220.666,-2.767C220.444,-3.078 220.344,-3.478 220.366,-3.967C220.389,-4.456 220.678,-4.878 221.233,-5.233C221.589,-5.456 221.966,-5.55 222.366,-5.517C222.766,-5.483 223.155,-5.278 223.533,-4.9C224.178,-4.256 224.855,-3.756 225.566,-3.4C226.278,-3.044 227.166,-2.867 228.233,-2.867C228.566,-2.889 228.933,-2.939 229.333,-3.017C229.733,-3.094 230.083,-3.272 230.383,-3.55C230.683,-3.828 230.833,-4.256 230.833,-4.833C230.833,-5.322 230.666,-5.711 230.333,-6C230,-6.289 229.561,-6.533 229.016,-6.733C228.472,-6.933 227.866,-7.122 227.2,-7.3C226.511,-7.5 225.805,-7.722 225.083,-7.967C224.361,-8.211 223.7,-8.528 223.1,-8.917C222.5,-9.306 222.011,-9.822 221.633,-10.467C221.255,-11.111 221.066,-11.922 221.066,-12.9C221.066,-14.011 221.378,-14.956 222,-15.733C222.622,-16.511 223.428,-17.111 224.416,-17.533C225.405,-17.956 226.444,-18.167 227.533,-18.167C228.222,-18.167 228.944,-18.083 229.7,-17.917C230.455,-17.75 231.178,-17.483 231.866,-17.117C232.555,-16.75 233.133,-16.267 233.6,-15.667C233.844,-15.333 233.989,-14.933 234.033,-14.467C234.078,-14 233.866,-13.578 233.4,-13.2C233.066,-12.933 232.678,-12.817 232.233,-12.85C231.789,-12.883 231.422,-13.033 231.133,-13.3C230.755,-13.789 230.25,-14.178 229.616,-14.467C228.983,-14.756 228.255,-14.9 227.433,-14.9C227.1,-14.9 226.739,-14.861 226.35,-14.783C225.961,-14.706 225.622,-14.539 225.333,-14.283C225.044,-14.028 224.9,-13.622 224.9,-13.067C224.9,-12.556 225.066,-12.15 225.4,-11.85C225.733,-11.55 226.183,-11.306 226.75,-11.117C227.316,-10.928 227.922,-10.744 228.566,-10.567C229.233,-10.389 229.911,-10.178 230.6,-9.933C231.289,-9.689 231.922,-9.367 232.5,-8.967C233.078,-8.567 233.544,-8.05 233.9,-7.417C234.255,-6.783 234.433,-5.978 234.433,-5C234.433,-3.867 234.1,-2.9 233.433,-2.1C232.766,-1.3 231.933,-0.694 230.933,-0.283C229.933,0.128 228.911,0.333 227.866,0.333C226.555,0.333 225.244,0.106 223.933,-0.35C222.622,-0.806 221.533,-1.611 220.666,-2.767Z" style="fill:rgb(93,71,119);fill-rule:nonzero;"/>
                <path d="M241.533,-2.033C241.533,-1.456 241.344,-0.972 240.966,-0.583C240.589,-0.194 240.111,0 239.533,0C238.955,0 238.478,-0.194 238.1,-0.583C237.722,-0.972 237.533,-1.456 237.533,-2.033L237.533,-15.8C237.533,-16.378 237.722,-16.861 238.1,-17.25C238.478,-17.639 238.955,-17.833 239.533,-17.833C240.111,-17.833 240.589,-17.639 240.966,-17.25C241.344,-16.861 241.533,-16.378 241.533,-15.8L241.533,-2.033ZM239.5,-20C238.744,-20 238.211,-20.122 237.9,-20.367C237.589,-20.611 237.433,-21.044 237.433,-21.667L237.433,-22.3C237.433,-22.944 237.605,-23.383 237.95,-23.617C238.294,-23.85 238.822,-23.967 239.533,-23.967C240.311,-23.967 240.855,-23.844 241.166,-23.6C241.478,-23.356 241.633,-22.922 241.633,-22.3L241.633,-21.667C241.633,-21.022 241.466,-20.583 241.133,-20.35C240.8,-20.117 240.255,-20 239.5,-20Z" style="fill:rgb(93,71,119);fill-rule:nonzero;"/>
                <path d="M255.166,-18.167C256.811,-18.167 258.061,-17.822 258.916,-17.133C259.772,-16.444 260.361,-15.528 260.683,-14.383C261.005,-13.239 261.166,-11.967 261.166,-10.567L261.166,-2.033C261.166,-1.456 260.978,-0.972 260.6,-0.583C260.222,-0.194 259.744,0 259.166,0C258.589,0 258.111,-0.194 257.733,-0.583C257.355,-0.972 257.166,-1.456 257.166,-2.033L257.166,-10.567C257.166,-11.3 257.072,-11.961 256.883,-12.55C256.694,-13.139 256.355,-13.611 255.866,-13.967C255.378,-14.322 254.678,-14.5 253.766,-14.5C252.878,-14.5 252.128,-14.322 251.516,-13.967C250.905,-13.611 250.439,-13.139 250.116,-12.55C249.794,-11.961 249.633,-11.3 249.633,-10.567L249.633,-2.033C249.633,-1.456 249.444,-0.972 249.066,-0.583C248.689,-0.194 248.211,0 247.633,0C247.055,0 246.578,-0.194 246.2,-0.583C245.822,-0.972 245.633,-1.456 245.633,-2.033L245.633,-15.8C245.633,-16.378 245.822,-16.861 246.2,-17.25C246.578,-17.639 247.055,-17.833 247.633,-17.833C248.211,-17.833 248.689,-17.639 249.066,-17.25C249.444,-16.861 249.633,-16.378 249.633,-15.8L249.633,-14.367L249.133,-14.467C249.333,-14.844 249.622,-15.25 250,-15.683C250.378,-16.117 250.822,-16.522 251.333,-16.9C251.844,-17.278 252.422,-17.583 253.066,-17.817C253.711,-18.05 254.411,-18.167 255.166,-18.167Z" style="fill:rgb(93,71,119);fill-rule:nonzero;"/>
                <path d="M273.9,0.333C272.011,0.333 270.372,-0.061 268.983,-0.85C267.594,-1.639 266.528,-2.711 265.783,-4.067C265.039,-5.422 264.666,-6.956 264.666,-8.667C264.666,-10.667 265.072,-12.372 265.883,-13.783C266.694,-15.194 267.755,-16.278 269.066,-17.033C270.378,-17.789 271.766,-18.167 273.233,-18.167C274.366,-18.167 275.439,-17.933 276.45,-17.467C277.461,-17 278.355,-16.361 279.133,-15.55C279.911,-14.739 280.527,-13.8 280.983,-12.733C281.439,-11.667 281.666,-10.533 281.666,-9.333C281.644,-8.8 281.433,-8.367 281.033,-8.033C280.633,-7.7 280.166,-7.533 279.633,-7.533L266.9,-7.533L265.9,-10.867L278.133,-10.867L277.4,-10.2L277.4,-11.1C277.355,-11.744 277.128,-12.322 276.716,-12.833C276.305,-13.344 275.794,-13.75 275.183,-14.05C274.572,-14.35 273.922,-14.5 273.233,-14.5C272.566,-14.5 271.944,-14.411 271.366,-14.233C270.789,-14.056 270.289,-13.756 269.866,-13.333C269.444,-12.911 269.111,-12.344 268.866,-11.633C268.622,-10.922 268.5,-10.022 268.5,-8.933C268.5,-7.733 268.75,-6.717 269.25,-5.883C269.75,-5.05 270.394,-4.417 271.183,-3.983C271.972,-3.55 272.811,-3.333 273.7,-3.333C274.522,-3.333 275.178,-3.4 275.666,-3.533C276.155,-3.667 276.55,-3.828 276.85,-4.017C277.15,-4.206 277.422,-4.367 277.666,-4.5C278.066,-4.7 278.444,-4.8 278.8,-4.8C279.289,-4.8 279.694,-4.633 280.016,-4.3C280.339,-3.967 280.5,-3.578 280.5,-3.133C280.5,-2.533 280.189,-1.989 279.566,-1.5C278.989,-1.011 278.177,-0.583 277.133,-0.217C276.089,0.15 275.011,0.333 273.9,0.333Z" style="fill:rgb(93,71,119);fill-rule:nonzero;"/>
                <path d="M284.133,-2.767C283.911,-3.078 283.811,-3.478 283.833,-3.967C283.855,-4.456 284.144,-4.878 284.7,-5.233C285.055,-5.456 285.433,-5.55 285.833,-5.517C286.233,-5.483 286.622,-5.278 287,-4.9C287.644,-4.256 288.322,-3.756 289.033,-3.4C289.744,-3.044 290.633,-2.867 291.7,-2.867C292.033,-2.889 292.4,-2.939 292.8,-3.017C293.2,-3.094 293.55,-3.272 293.85,-3.55C294.15,-3.828 294.3,-4.256 294.3,-4.833C294.3,-5.322 294.133,-5.711 293.8,-6C293.466,-6.289 293.027,-6.533 292.483,-6.733C291.939,-6.933 291.333,-7.122 290.666,-7.3C289.977,-7.5 289.272,-7.722 288.55,-7.967C287.827,-8.211 287.166,-8.528 286.566,-8.917C285.966,-9.306 285.477,-9.822 285.1,-10.467C284.722,-11.111 284.533,-11.922 284.533,-12.9C284.533,-14.011 284.844,-14.956 285.466,-15.733C286.089,-16.511 286.894,-17.111 287.883,-17.533C288.872,-17.956 289.911,-18.167 291,-18.167C291.689,-18.167 292.411,-18.083 293.166,-17.917C293.922,-17.75 294.644,-17.483 295.333,-17.117C296.022,-16.75 296.6,-16.267 297.066,-15.667C297.311,-15.333 297.455,-14.933 297.5,-14.467C297.544,-14 297.333,-13.578 296.866,-13.2C296.533,-12.933 296.144,-12.817 295.7,-12.85C295.255,-12.883 294.889,-13.033 294.6,-13.3C294.222,-13.789 293.716,-14.178 293.083,-14.467C292.45,-14.756 291.722,-14.9 290.9,-14.9C290.566,-14.9 290.205,-14.861 289.816,-14.783C289.427,-14.706 289.089,-14.539 288.8,-14.283C288.511,-14.028 288.366,-13.622 288.366,-13.067C288.366,-12.556 288.533,-12.15 288.866,-11.85C289.2,-11.55 289.65,-11.306 290.216,-11.117C290.783,-10.928 291.389,-10.744 292.033,-10.567C292.7,-10.389 293.377,-10.178 294.066,-9.933C294.755,-9.689 295.389,-9.367 295.966,-8.967C296.544,-8.567 297.011,-8.05 297.366,-7.417C297.722,-6.783 297.9,-5.978 297.9,-5C297.9,-3.867 297.566,-2.9 296.9,-2.1C296.233,-1.3 295.4,-0.694 294.4,-0.283C293.4,0.128 292.377,0.333 291.333,0.333C290.022,0.333 288.711,0.106 287.4,-0.35C286.089,-0.806 285,-1.611 284.133,-2.767Z" style="fill:rgb(93,71,119);fill-rule:nonzero;"/>
                <path d="M300.2,-2.767C299.977,-3.078 299.877,-3.478 299.9,-3.967C299.922,-4.456 300.211,-4.878 300.766,-5.233C301.122,-5.456 301.5,-5.55 301.9,-5.517C302.3,-5.483 302.689,-5.278 303.066,-4.9C303.711,-4.256 304.389,-3.756 305.1,-3.4C305.811,-3.044 306.7,-2.867 307.766,-2.867C308.1,-2.889 308.466,-2.939 308.866,-3.017C309.266,-3.094 309.616,-3.272 309.916,-3.55C310.216,-3.828 310.366,-4.256 310.366,-4.833C310.366,-5.322 310.2,-5.711 309.866,-6C309.533,-6.289 309.094,-6.533 308.55,-6.733C308.005,-6.933 307.4,-7.122 306.733,-7.3C306.044,-7.5 305.339,-7.722 304.616,-7.967C303.894,-8.211 303.233,-8.528 302.633,-8.917C302.033,-9.306 301.544,-9.822 301.166,-10.467C300.789,-11.111 300.6,-11.922 300.6,-12.9C300.6,-14.011 300.911,-14.956 301.533,-15.733C302.155,-16.511 302.961,-17.111 303.95,-17.533C304.939,-17.956 305.977,-18.167 307.066,-18.167C307.755,-18.167 308.477,-18.083 309.233,-17.917C309.989,-17.75 310.711,-17.483 311.4,-17.117C312.089,-16.75 312.666,-16.267 313.133,-15.667C313.377,-15.333 313.522,-14.933 313.566,-14.467C313.611,-14 313.4,-13.578 312.933,-13.2C312.6,-12.933 312.211,-12.817 311.766,-12.85C311.322,-12.883 310.955,-13.033 310.666,-13.3C310.289,-13.789 309.783,-14.178 309.15,-14.467C308.516,-14.756 307.789,-14.9 306.966,-14.9C306.633,-14.9 306.272,-14.861 305.883,-14.783C305.494,-14.706 305.155,-14.539 304.866,-14.283C304.577,-14.028 304.433,-13.622 304.433,-13.067C304.433,-12.556 304.6,-12.15 304.933,-11.85C305.266,-11.55 305.716,-11.306 306.283,-11.117C306.85,-10.928 307.455,-10.744 308.1,-10.567C308.766,-10.389 309.444,-10.178 310.133,-9.933C310.822,-9.689 311.455,-9.367 312.033,-8.967C312.611,-8.567 313.077,-8.05 313.433,-7.417C313.789,-6.783 313.966,-5.978 313.966,-5C313.966,-3.867 313.633,-2.9 312.966,-2.1C312.3,-1.3 311.466,-0.694 310.466,-0.283C309.466,0.128 308.444,0.333 307.4,0.333C306.089,0.333 304.777,0.106 303.466,-0.35C302.155,-0.806 301.066,-1.611 300.2,-2.767Z" style="fill:rgb(93,71,119);fill-rule:nonzero;"/>
                <path d="M335.866,-18.167C337.422,-18.167 338.816,-17.772 340.05,-16.983C341.283,-16.194 342.261,-15.111 342.983,-13.733C343.705,-12.356 344.066,-10.756 344.066,-8.933C344.066,-7.111 343.705,-5.506 342.983,-4.117C342.261,-2.728 341.294,-1.639 340.083,-0.85C338.872,-0.061 337.511,0.333 336,0.333C335.111,0.333 334.277,0.189 333.5,-0.1C332.722,-0.389 332.039,-0.756 331.45,-1.2C330.861,-1.644 330.405,-2.094 330.083,-2.55C329.761,-3.006 329.6,-3.389 329.6,-3.7L330.633,-4.133L330.633,-1.7C330.633,-1.122 330.444,-0.639 330.066,-0.25C329.689,0.139 329.211,0.333 328.633,0.333C328.055,0.333 327.577,0.144 327.2,-0.233C326.822,-0.611 326.633,-1.1 326.633,-1.7L326.633,-22.633C326.633,-23.211 326.822,-23.694 327.2,-24.083C327.577,-24.472 328.055,-24.667 328.633,-24.667C329.211,-24.667 329.689,-24.472 330.066,-24.083C330.444,-23.694 330.633,-23.211 330.633,-22.633L330.633,-14.167L330.066,-14.467C330.066,-14.756 330.222,-15.106 330.533,-15.517C330.844,-15.928 331.266,-16.339 331.8,-16.75C332.333,-17.161 332.95,-17.5 333.65,-17.767C334.35,-18.033 335.089,-18.167 335.866,-18.167ZM335.366,-14.5C334.389,-14.5 333.533,-14.256 332.8,-13.767C332.066,-13.278 331.494,-12.617 331.083,-11.783C330.672,-10.95 330.466,-10 330.466,-8.933C330.466,-7.889 330.672,-6.939 331.083,-6.083C331.494,-5.228 332.066,-4.556 332.8,-4.067C333.533,-3.578 334.389,-3.333 335.366,-3.333C336.344,-3.333 337.194,-3.578 337.916,-4.067C338.639,-4.556 339.205,-5.228 339.616,-6.083C340.027,-6.939 340.233,-7.889 340.233,-8.933C340.233,-10 340.027,-10.95 339.616,-11.783C339.205,-12.617 338.639,-13.278 337.916,-13.767C337.194,-14.256 336.344,-14.5 335.366,-14.5Z" style="fill:rgb(93,71,119);fill-rule:nonzero;"/>
                <path d="M360.8,-17.833C361.377,-17.833 361.855,-17.639 362.233,-17.25C362.611,-16.861 362.8,-16.378 362.8,-15.8L362.8,-7.333C362.8,-4.978 362.144,-3.111 360.833,-1.733C359.522,-0.356 357.633,0.333 355.166,0.333C352.7,0.333 350.816,-0.356 349.516,-1.733C348.216,-3.111 347.566,-4.978 347.566,-7.333L347.566,-15.8C347.566,-16.378 347.755,-16.861 348.133,-17.25C348.511,-17.639 348.989,-17.833 349.566,-17.833C350.144,-17.833 350.622,-17.639 351,-17.25C351.377,-16.861 351.566,-16.378 351.566,-15.8L351.566,-7.333C351.566,-5.978 351.866,-4.972 352.466,-4.317C353.066,-3.661 353.966,-3.333 355.166,-3.333C356.389,-3.333 357.3,-3.661 357.9,-4.317C358.5,-4.972 358.8,-5.978 358.8,-7.333L358.8,-15.8C358.8,-16.378 358.989,-16.861 359.366,-17.25C359.744,-17.639 360.222,-17.833 360.8,-17.833Z" style="fill:rgb(93,71,119);fill-rule:nonzero;"/>
                <path d="M378.5,-3.667C379.033,-3.667 379.477,-3.494 379.833,-3.15C380.189,-2.806 380.366,-2.367 380.366,-1.833C380.366,-1.322 380.189,-0.889 379.833,-0.533C379.477,-0.178 379.033,0 378.5,0L367.766,0C367.211,0 366.766,-0.2 366.433,-0.6C366.1,-1 365.944,-1.4 365.966,-1.8C365.989,-2.133 366.033,-2.428 366.1,-2.683C366.166,-2.939 366.333,-3.233 366.6,-3.567L374.9,-14.3L374.833,-13.833L368.066,-13.833C367.533,-13.833 367.089,-14.011 366.733,-14.367C366.377,-14.722 366.2,-15.167 366.2,-15.7C366.2,-16.211 366.377,-16.639 366.733,-16.983C367.089,-17.328 367.533,-17.5 368.066,-17.5L378.333,-17.5C378.844,-17.5 379.277,-17.311 379.633,-16.933C379.989,-16.556 380.144,-16.078 380.1,-15.5C380.077,-15.278 380.039,-15.056 379.983,-14.833C379.927,-14.611 379.777,-14.344 379.533,-14.033L371.366,-3.467L371.366,-3.667L378.5,-3.667Z" style="fill:rgb(93,71,119);fill-rule:nonzero;"/>
                <path d="M394.633,-3.667C395.166,-3.667 395.611,-3.494 395.966,-3.15C396.322,-2.806 396.5,-2.367 396.5,-1.833C396.5,-1.322 396.322,-0.889 395.966,-0.533C395.611,-0.178 395.166,0 394.633,0L383.9,0C383.344,0 382.9,-0.2 382.566,-0.6C382.233,-1 382.077,-1.4 382.1,-1.8C382.122,-2.133 382.166,-2.428 382.233,-2.683C382.3,-2.939 382.466,-3.233 382.733,-3.567L391.033,-14.3L390.966,-13.833L384.2,-13.833C383.666,-13.833 383.222,-14.011 382.866,-14.367C382.511,-14.722 382.333,-15.167 382.333,-15.7C382.333,-16.211 382.511,-16.639 382.866,-16.983C383.222,-17.328 383.666,-17.5 384.2,-17.5L394.466,-17.5C394.977,-17.5 395.411,-17.311 395.766,-16.933C396.122,-16.556 396.277,-16.078 396.233,-15.5C396.211,-15.278 396.172,-15.056 396.116,-14.833C396.061,-14.611 395.911,-14.344 395.666,-14.033L387.5,-3.467L387.5,-3.667L394.633,-3.667Z" style="fill:rgb(93,71,119);fill-rule:nonzero;"/>
            </g>
        </g>
    </g>
</svg>
