<?xml version="1.0" encoding="UTF-8" standalone="no"?>
<!-- Created with Inkscape (http://www.inkscape.org/) -->

<svg
   width="970.00006"
   height="249.99998"
   viewBox="0 0 256.64585 66.145828"
   version="1.1"
   id="svg1"
   xml:space="preserve"
   xmlns="http://www.w3.org/2000/svg"
   xmlns:svg="http://www.w3.org/2000/svg"><defs
     id="defs1"><rect
       x="25.831242"
       y="67.712532"
       width="552.58228"
       height="0"
       id="rect16" /><style
       id="style1">
      .cls-1, .cls-2 {
        fill: #5d4777;
      }

      .cls-2 {
        stroke: #5d4777;
        stroke-width: 26.91px;
      }

      .cls-2, .cls-3 {
        stroke-linecap: round;
        stroke-linejoin: round;
      }

      .cls-3 {
        stroke: #ffb343;
        stroke-width: 35px;
      }

      .cls-3, .cls-4 {
        fill: #ffb343;
      }
    </style><rect
       x="25.831242"
       y="67.712532"
       width="552.58228"
       height="0"
       id="rect16-6" /></defs><g
     id="layer1"><rect
       style="fill:#ffe8c6;fill-opacity:1;stroke-width:0.529167"
       id="rect1"
       width="256.64584"
       height="66.145836"
       x="0"
       y="0" /></g><g
     id="layer2"><g
       id="g1"
       transform="matrix(0.06783756,0,0,0.06783756,109.9113,7.1833319)"><path
         class="cls-2"
         d="m 271.77,185.39 v -71.26 c 0,-6.36 -3.4,-12.23 -8.91,-15.41 L 200.51,63.09 c -5.51,-3.18 -12.3,-3.18 -17.81,0 l -62.35,35.63 c -5.51,3.18 -8.9,9.05 -8.91,15.41 v 71.26 c 0,6.36 3.4,12.23 8.91,15.41 l 62.35,35.63 c 5.51,3.18 12.3,3.18 17.81,0 l 62.35,-35.63 c 5.51,-3.18 8.9,-9.05 8.91,-15.41 z"
         id="path1" /><path
         class="cls-3"
         d="M 442.75,427.56 V 325.73 c 0,-9.09 -4.86,-17.48 -12.73,-22.02 l -89.11,-50.92 c -7.88,-4.55 -17.58,-4.55 -25.46,0 l -89.11,50.92 c -7.87,4.54 -12.72,12.94 -12.73,22.02 v 101.83 c 0,9.09 4.86,17.48 12.73,22.02 l 89.11,50.92 c 7.88,4.55 17.58,4.55 25.46,0 l 89.11,-50.92 c 7.87,-4.54 12.72,-12.94 12.73,-22.02 z"
         id="path2" /><path
         class="cls-2"
         d="m 271.21,639.15 v -71.26 c 0,-6.36 -3.4,-12.23 -8.91,-15.41 l -62.35,-35.63 c -5.51,-3.18 -12.3,-3.18 -17.81,0 l -62.35,35.63 c -5.51,3.18 -8.9,9.05 -8.91,15.41 v 71.26 c 0,6.36 3.4,12.23 8.91,15.41 l 62.35,35.63 c 5.51,3.18 12.3,3.18 17.81,0 l 62.35,-35.63 c 5.51,-3.18 8.9,-9.05 8.91,-15.41 z"
         id="path3" /><path
         class="cls-1"
         d="m 403.27,300.75 c 1.65,1.41 2.18,3.74 1.29,5.72 -14.98,33.58 -46.43,79.98 -69.46,104.16 -6.46,6.75 -14.42,11.9 -23.23,15.02 -0.18,2.22 -0.59,5.27 -1.57,8.5 -1.97,6.45 -6.53,14.48 -16.72,17.03 -9.87,2.35 -20.1,2.79 -30.13,1.29 -1.86,-0.31 -3.7,-0.75 -5.5,-1.32 -1.66,-0.51 -3.21,-1.33 -4.56,-2.42 -0.9,-0.75 -1.58,-1.72 -2,-2.82 -0.52,-1.4 -0.51,-2.95 0.04,-4.34 0.93,-2.4 3.09,-3.72 4.51,-4.42 3.86,-1.93 6.12,-4.43 8.49,-8.09 0.93,-1.41 1.8,-2.91 2.81,-4.62 l 1.15,-1.94 c 1.48,-2.5 3.19,-5.29 5.35,-8.3 5.17,-7.23 11.76,-9.06 17.09,-8.77 1.24,0.08 2.38,0.23 3.41,0.47 0.61,-1.68 1.39,-3.72 2.33,-5.95 2.56,-6.06 6.44,-13.89 11.62,-20.25 21.3,-26.14 60.5,-60.75 89.25,-79.33 1.82,-1.17 4.19,-1.01 5.83,0.39"
         id="path4" /><g
         id="g13"><path
           class="cls-1"
           d="m 575.14,318.99 c 7.98,0 14.94,0.84 20.9,2.52 5.95,1.68 10.57,4.03 13.86,7.04 3.29,3.01 4.94,6.61 4.94,10.81 0,2.8 -0.84,5.43 -2.52,7.88 -1.68,2.45 -4.13,3.67 -7.35,3.67 -2.24,0 -4.09,-0.31 -5.57,-0.94 -1.47,-0.63 -2.77,-1.43 -3.88,-2.42 -1.12,-0.98 -2.45,-1.89 -3.99,-2.73 -1.4,-0.84 -3.54,-1.5 -6.4,-2 -2.87,-0.49 -5.01,-0.73 -6.41,-0.73 -7.14,0 -13.2,1.54 -18.17,4.62 -4.97,3.08 -8.79,7.25 -11.45,12.5 -2.66,5.25 -3.99,11.31 -3.99,18.17 0,6.86 1.37,12.71 4.1,17.96 2.73,5.25 6.51,9.42 11.34,12.5 4.83,3.08 10.39,4.62 16.7,4.62 3.5,0 6.51,-0.21 9.03,-0.63 2.52,-0.42 4.62,-1.05 6.3,-1.89 1.96,-1.12 3.71,-2.31 5.25,-3.57 1.54,-1.26 3.85,-1.89 6.93,-1.89 3.64,0 6.44,1.16 8.4,3.47 1.96,2.31 2.94,5.14 2.94,8.5 0,3.36 -1.96,6.69 -5.88,9.55 -3.92,2.87 -9.07,5.18 -15.44,6.93 -6.37,1.75 -13.27,2.62 -20.68,2.62 -11.06,0 -20.65,-2.55 -28.77,-7.67 -8.12,-5.11 -14.38,-12.07 -18.79,-20.89 -4.41,-8.82 -6.61,-18.69 -6.61,-29.61 0,-11.48 2.34,-21.59 7.03,-30.34 4.69,-8.75 11.2,-15.61 19.53,-20.58 8.33,-4.97 17.88,-7.46 28.67,-7.46 z"
           id="path5" /><path
           class="cls-1"
           d="m 646.96,433.44 c -3.64,0 -6.65,-1.22 -9.03,-3.67 -2.38,-2.45 -3.57,-5.49 -3.57,-9.13 v -86.73 c 0,-3.64 1.19,-6.68 3.57,-9.13 2.38,-2.45 5.39,-3.67 9.03,-3.67 3.64,0 6.65,1.23 9.03,3.67 2.38,2.45 3.57,5.5 3.57,9.13 v 19.74 l -1.47,-14.07 c 1.54,-3.36 3.53,-6.33 5.99,-8.92 2.45,-2.59 5.21,-4.76 8.29,-6.51 3.08,-1.75 6.37,-3.04 9.87,-3.89 3.5,-0.84 7,-1.26 10.5,-1.26 4.2,0 7.73,1.19 10.6,3.57 2.87,2.38 4.31,5.18 4.31,8.4 0,4.62 -1.19,7.95 -3.57,9.98 -2.38,2.03 -4.97,3.04 -7.77,3.04 -2.8,0 -5.08,-0.49 -7.24,-1.47 -2.17,-0.98 -4.66,-1.47 -7.46,-1.47 -2.52,0 -5.08,0.6 -7.67,1.79 -2.59,1.19 -4.97,3.04 -7.14,5.57 -2.17,2.52 -3.92,5.64 -5.25,9.34 -1.33,3.71 -2,8.08 -2,13.12 v 49.77 c 0,3.64 -1.19,6.69 -3.57,9.13 -2.38,2.45 -5.39,3.67 -9.03,3.67 z"
           id="path6" /><path
           class="cls-1"
           d="m 814.96,318.99 c 3.64,0 6.65,1.19 9.03,3.57 2.38,2.38 3.57,5.46 3.57,9.24 v 88.83 c 0,3.64 -1.19,6.69 -3.57,9.13 -2.38,2.45 -5.39,3.67 -9.03,3.67 -3.64,0 -6.65,-1.22 -9.03,-3.67 -2.38,-2.45 -3.57,-5.49 -3.57,-9.13 v -10.29 l 4.62,1.89 c 0,1.82 -0.98,4.03 -2.94,6.62 -1.96,2.59 -4.62,5.14 -7.98,7.67 -3.36,2.52 -7.32,4.66 -11.87,6.4 -4.55,1.75 -9.49,2.62 -14.81,2.62 -9.66,0 -18.41,-2.48 -26.25,-7.46 -7.84,-4.97 -14.04,-11.83 -18.58,-20.58 -4.55,-8.75 -6.82,-18.8 -6.82,-30.14 0,-11.34 2.27,-21.59 6.82,-30.34 4.55,-8.75 10.67,-15.61 18.38,-20.58 7.7,-4.97 16.24,-7.46 25.62,-7.46 6.02,0 11.55,0.91 16.59,2.73 5.04,1.82 9.41,4.13 13.12,6.93 3.71,2.8 6.58,5.64 8.61,8.5 2.03,2.87 3.04,5.29 3.04,7.25 l -7.56,2.73 v -15.33 c 0,-3.64 1.19,-6.68 3.57,-9.14 2.38,-2.45 5.39,-3.67 9.03,-3.67 z m -42.42,93.45 c 6.16,0 11.55,-1.54 16.17,-4.62 4.62,-3.08 8.22,-7.28 10.82,-12.6 2.59,-5.32 3.88,-11.27 3.88,-17.85 0,-6.58 -1.3,-12.74 -3.88,-18.06 -2.59,-5.32 -6.2,-9.52 -10.82,-12.6 -4.62,-3.08 -10.01,-4.62 -16.17,-4.62 -6.16,0 -11.34,1.54 -15.96,4.62 -4.62,3.08 -8.23,7.28 -10.82,12.6 -2.59,5.32 -3.88,11.34 -3.88,18.06 0,6.72 1.29,12.53 3.88,17.85 2.59,5.32 6.2,9.52 10.82,12.6 4.62,3.08 9.94,4.62 15.96,4.62 z"
           id="path7" /><path
           class="cls-1"
           d="m 914.92,323.19 c 3.36,0 6.16,1.09 8.4,3.25 2.24,2.17 3.36,4.94 3.36,8.29 0,3.35 -1.12,6.13 -3.36,8.29 -2.24,2.17 -5.04,3.25 -8.4,3.25 h -55.65 c -3.36,0 -6.16,-1.08 -8.4,-3.25 -2.24,-2.17 -3.36,-4.93 -3.36,-8.29 0,-3.36 1.12,-6.12 3.36,-8.29 2.24,-2.17 5.04,-3.25 8.4,-3.25 z m -2.31,-45.15 c 3.08,0 6.09,0.42 9.03,1.26 2.94,0.84 5.39,2.21 7.35,4.09 1.96,1.89 2.94,4.38 2.94,7.46 0,3.5 -1.02,6.27 -3.04,8.29 -2.02,2.02 -4.38,3.04 -7.04,3.04 -1.26,0 -3.15,-0.32 -5.67,-0.95 -2.52,-0.63 -4.97,-0.94 -7.35,-0.94 -3.5,0 -6.2,0.77 -8.08,2.31 -1.89,1.54 -3.19,3.33 -3.88,5.36 -0.7,2.03 -1.05,3.82 -1.05,5.35 v 107.31 c 0,3.64 -1.19,6.69 -3.57,9.13 -2.38,2.45 -5.39,3.67 -9.03,3.67 -3.64,0 -6.65,-1.22 -9.03,-3.67 -2.38,-2.45 -3.57,-5.49 -3.57,-9.13 v -107.1 c 0,-9.94 3.5,-18.34 10.5,-25.2 7,-6.86 17.5,-10.29 31.5,-10.29 z"
           id="path8" /><path
           class="cls-1"
           d="m 948.51,323.19 h 49.77 c 3.36,0 6.16,1.12 8.4,3.36 2.24,2.24 3.36,5.04 3.36,8.4 0,3.36 -1.12,5.92 -3.36,8.08 -2.24,2.17 -5.04,3.25 -8.4,3.25 h -49.77 c -3.36,0 -6.16,-1.12 -8.4,-3.36 -2.24,-2.24 -3.36,-5.04 -3.36,-8.4 0,-3.36 1.12,-5.91 3.36,-8.08 2.24,-2.17 5.04,-3.25 8.4,-3.25 z m 22.47,-26.25 c 3.64,0 6.62,1.23 8.92,3.67 2.31,2.45 3.46,5.5 3.46,9.13 v 93.45 c 0,1.96 0.38,3.57 1.16,4.83 0.77,1.26 1.82,2.17 3.15,2.73 1.33,0.56 2.76,0.84 4.3,0.84 1.68,0 3.22,-0.32 4.62,-0.95 1.4,-0.63 3.01,-0.95 4.83,-0.95 1.96,0 3.74,0.91 5.35,2.73 1.61,1.82 2.42,4.34 2.42,7.56 0,3.92 -2.14,7.14 -6.4,9.66 -4.27,2.52 -8.86,3.78 -13.75,3.78 -2.94,0 -6.2,-0.24 -9.77,-0.74 -3.57,-0.49 -6.93,-1.68 -10.08,-3.57 -3.15,-1.89 -5.77,-4.79 -7.88,-8.71 -2.1,-3.92 -3.15,-9.31 -3.15,-16.17 v -94.5 c 0,-3.64 1.22,-6.68 3.67,-9.13 2.45,-2.45 5.49,-3.67 9.13,-3.67 z"
           id="path9" /><path
           class="cls-4"
           d="m 1092.15,318.99 c 10.08,0 17.75,2.17 23,6.51 5.25,4.34 8.85,10.12 10.81,17.33 1.96,7.21 2.94,15.23 2.94,24.04 v 53.76 c 0,3.64 -1.19,6.69 -3.57,9.13 -2.38,2.45 -5.39,3.67 -9.03,3.67 -3.64,0 -6.65,-1.22 -9.03,-3.67 -2.38,-2.45 -3.57,-5.49 -3.57,-9.13 v -53.76 c 0,-4.62 -0.56,-8.78 -1.68,-12.5 -1.12,-3.71 -3.15,-6.68 -6.09,-8.92 -2.94,-2.24 -7.14,-3.36 -12.6,-3.36 -5.46,0 -9.87,1.12 -13.65,3.36 -3.78,2.24 -6.62,5.22 -8.51,8.92 -1.89,3.71 -2.83,7.88 -2.83,12.5 v 53.76 c 0,3.64 -1.19,6.69 -3.57,9.13 -2.38,2.45 -5.39,3.67 -9.03,3.67 -3.64,0 -6.65,-1.22 -9.03,-3.67 -2.38,-2.45 -3.57,-5.49 -3.57,-9.13 V 290.85 c 0,-3.64 1.19,-6.68 3.57,-9.13 2.38,-2.45 5.39,-3.68 9.03,-3.68 3.64,0 6.65,1.23 9.03,3.68 2.38,2.45 3.57,5.5 3.57,9.13 v 52.08 l -3.15,-0.63 c 1.26,-2.38 3.01,-4.94 5.25,-7.67 2.24,-2.73 4.97,-5.28 8.19,-7.67 3.22,-2.38 6.79,-4.31 10.71,-5.78 3.92,-1.47 8.19,-2.21 12.81,-2.21 z"
           id="path10" /><path
           class="cls-4"
           d="m 1179.93,420.63 c 0,3.64 -1.19,6.69 -3.57,9.13 -2.38,2.45 -5.39,3.67 -9.03,3.67 -3.64,0 -6.65,-1.22 -9.03,-3.67 -2.38,-2.45 -3.57,-5.49 -3.57,-9.13 V 333.9 c 0,-3.64 1.19,-6.68 3.57,-9.13 2.38,-2.45 5.39,-3.67 9.03,-3.67 3.64,0 6.65,1.23 9.03,3.67 2.38,2.45 3.57,5.5 3.57,9.13 z m 0.63,-120.69 v -10 c 0,-0.89 -0.55,-1.72 -1.44,-2.16 l -10.05,-5 c -0.89,-0.45 -1.98,-0.45 -2.87,0 l -10.05,5 c -0.89,0.45 -1.43,1.27 -1.44,2.16 v 10 c 0,0.89 0.55,1.72 1.44,2.16 l 10.05,5 c 0.89,0.45 1.98,0.45 2.87,0 l 10.05,-5 c 0.89,-0.45 1.43,-1.27 1.44,-2.16 z"
           id="path11" /><path
           class="cls-4"
           d="m 1210.8,321.09 c 2.66,0 5.11,0.67 7.35,1.99 2.24,1.33 3.92,3.33 5.04,5.99 l 30.87,70.56 -4.62,2.1 31.5,-72.45 c 2.38,-5.6 6.09,-8.26 11.13,-7.98 3.5,0 6.33,1.09 8.5,3.25 2.17,2.17 3.25,4.87 3.25,8.08 0,0.98 -0.18,2.03 -0.52,3.15 -0.35,1.12 -0.74,2.17 -1.16,3.15 l -39.27,86.52 c -2.24,5.04 -5.81,7.7 -10.71,7.98 -2.66,0.42 -5.22,-0.07 -7.67,-1.47 -2.45,-1.4 -4.3,-3.57 -5.56,-6.51 l -39.06,-86.52 c -0.28,-0.7 -0.6,-1.61 -0.94,-2.73 -0.35,-1.12 -0.53,-2.45 -0.53,-3.99 0,-2.52 1.12,-5 3.36,-7.46 2.24,-2.45 5.25,-3.67 9.03,-3.67 z"
           id="path12" /><path
           class="cls-4"
           d="m 1375.65,435.54 c -11.9,0 -22.23,-2.48 -30.98,-7.46 -8.75,-4.97 -15.47,-11.72 -20.16,-20.26 -4.69,-8.54 -7.03,-18.2 -7.03,-28.98 0,-12.6 2.55,-23.34 7.67,-32.24 5.11,-8.89 11.79,-15.71 20.05,-20.47 8.26,-4.76 17.01,-7.14 26.25,-7.14 7.14,0 13.89,1.47 20.26,4.41 6.37,2.94 12,6.97 16.91,12.08 4.9,5.11 8.78,11.02 11.66,17.75 2.87,6.72 4.3,13.86 4.3,21.42 -0.14,3.36 -1.47,6.09 -3.99,8.19 -2.52,2.1 -5.46,3.15 -8.82,3.15 h -80.22 l -6.3,-21 h 77.07 l -4.62,4.2 v -5.67 c -0.28,-4.06 -1.72,-7.7 -4.3,-10.92 -2.59,-3.22 -5.81,-5.78 -9.66,-7.67 -3.85,-1.89 -7.95,-2.83 -12.29,-2.83 -4.34,0 -8.12,0.56 -11.76,1.68 -3.64,1.12 -6.79,3.01 -9.45,5.67 -2.66,2.66 -4.76,6.23 -6.3,10.71 -1.54,4.48 -2.31,10.15 -2.31,17.01 0,7.56 1.58,13.96 4.73,19.21 3.15,5.25 7.21,9.24 12.18,11.97 4.97,2.73 10.25,4.09 15.85,4.09 5.18,0 9.31,-0.42 12.39,-1.26 3.08,-0.84 5.56,-1.85 7.46,-3.04 1.89,-1.19 3.6,-2.21 5.14,-3.04 2.52,-1.26 4.9,-1.89 7.14,-1.89 3.08,0 5.63,1.05 7.67,3.15 2.03,2.1 3.04,4.55 3.04,7.35 0,3.78 -1.96,7.21 -5.88,10.29 -3.64,3.08 -8.75,5.78 -15.33,8.08 -6.58,2.31 -13.37,3.46 -20.37,3.46 z"
           id="path13" /></g></g><g
       style="fill:none"
       id="g2"
       transform="matrix(0.84538085,0.59800684,-0.59800684,0.84538085,231.52763,-10.173252)"><path
         fill-rule="evenodd"
         clip-rule="evenodd"
         d="m 24.02394,16.153537 c -0.134751,1.221286 -0.764035,2.293589 -1.683131,3.012263 -0.258311,0.618314 -0.719934,1.130414 -1.301411,1.452839 -0.164696,0.639142 -0.744986,2.066623 -1.435568,2.066623 -0.690582,0 -1.270873,-1.427481 -1.435569,-2.066623 -0.581387,-0.322351 -1.04301,-0.834451 -1.301284,-1.452617 -0.916072,-0.716154 -1.544259,-1.783565 -1.68199,-2.999662 -0.808612,0.61357 -1.961721,0.610383 -2.772134,-0.0696 -0.940754,-0.789385 -1.063462,-2.191969 -0.274076,-3.132709 L 15.17272,9.348335 c 0.193892,-2.2771492 2.103685,-4.0649029 4.431036,-4.0649029 2.319086,0 4.223616,1.7751013 4.42893,4.04071 l 3.054216,3.6399089 c 0.789385,0.94074 0.666641,2.343324 -0.274098,3.132709 -0.815995,0.684727 -1.979466,0.68317 -2.788864,0.05678 z m -1.723972,-1.975612 0.01,-1.482413 -5.374326,0.0199 -0.0099,1.46251 z m 1.751026,-0.219471 0.764703,0.911313 c 0.263128,0.313605 0.730681,0.354519 1.044212,0.09139 0.313604,-0.263128 0.354519,-0.730681 0.09139,-1.044212 l -1.900305,-2.264733 z m -1.482413,-2.74537 V 9.7306716 c 0,-1.6374289 -1.327426,-2.9648258 -2.964825,-2.9648258 -1.637436,0 -2.964833,1.3273969 -2.964833,2.9648258 v 1.4824124 z m -8.158614,3.656683 0.746543,-0.88967 v -2.306219 l -1.882138,2.243068 c -0.263128,0.313531 -0.222221,0.781084 0.09136,1.044212 0.313582,0.263128 0.781105,0.222214 1.044234,-0.09139 z m 5.193789,3.755397 c -1.637436,0 -2.964833,-1.327427 -2.964833,-2.964826 h 5.929658 c 0,1.637399 -1.327426,2.964826 -2.964825,2.964826 z"
         fill="currentColor"
         id="path1-1"
         style="fill:#5d4777;fill-opacity:1;stroke-width:0.741206" /></g><path
       style="fill:none;fill-opacity:1;stroke:#5d4777;stroke-width:1.93596;stroke-linecap:round;stroke-linejoin:round;stroke-dasharray:3.87191, 5.80785;stroke-dashoffset:0;stroke-opacity:1;paint-order:normal"
       d="m 232.2596,24.491664 c 0,0 -1.40147,4.609787 -7.81996,4.072254 C 211.90138,27.513863 207.69387,7.99484 195.55346,6.2904058 182.35969,4.4380852 177.42868,20.131162 177.42868,20.131162"
       id="path14" /><rect
       style="fill:#ffb343;fill-opacity:1;stroke:none;stroke-width:1.87569;stroke-linecap:round;stroke-linejoin:round;stroke-dasharray:3.7514, 5.62706;stroke-dashoffset:0;stroke-opacity:1;paint-order:normal"
       id="rect17"
       width="58.544907"
       height="14.284658"
       x="146.67159"
       y="46.737534"
       ry="3.8750901" /><text
       xml:space="preserve"
       transform="matrix(0.21097178,0,0,0.21097178,175.83291,56.070612)"
       id="text16-2"
       style="font-style:normal;font-variant:normal;font-weight:600;font-stretch:normal;font-size:30.0988px;line-height:1;font-family:'Open Sauce One';-inkscape-font-specification:'Open Sauce One Semi-Bold';text-align:start;writing-mode:lr-tb;direction:ltr;white-space:pre;shape-inside:url(#rect16-6);display:inline;fill:#5d4777;fill-opacity:1;stroke:none;stroke-width:8.1;stroke-linecap:round;stroke-linejoin:round;stroke-dasharray:16.2001, 24.3;stroke-dashoffset:0;stroke-opacity:1;paint-order:normal"
       x="72.852516"
       y="0"><tspan
         x="-84.908777"
         y="0"
         id="tspan2"><tspan
           style="font-weight:bold;font-family:Quicksand;-inkscape-font-specification:'Quicksand Bold';text-align:center;text-anchor:middle;fill:#ffffff"
           id="tspan1">Learn more</tspan></tspan></text><g
       id="g22"
       transform="matrix(1.2548625,0,0,1.2548625,-23.363578,-87.467178)"
       style="display:inline;opacity:0.35"><path
         id="path18"
         style="fill:#ffb343;stroke-width:1.94832;stroke-linecap:round;stroke-linejoin:round;stroke-dasharray:3.89666, 5.84494"
         d="m 40.167715,45.368259 c 6.058816,-0.821299 24.195822,-0.855146 30.660778,0 4.738838,0.626825 9.898191,4.897629 12.652553,8.212217 1.262147,1.518863 2.159883,5.011939 0.694529,6.157074 -0.822161,0.642496 -1.91517,1.043006 -2.959512,1.043006 H 31.03314 c -1.046017,0 -2.152836,-0.405715 -2.983175,-1.052548 -1.459522,-1.136966 -0.555551,-4.623162 0.636797,-6.19703 2.507473,-3.3098 7.067054,-7.564396 11.480953,-8.162719 z"
         transform="matrix(1,0,0,1.0978877,-22.855641,53.054981)" /><path
         id="path20"
         style="fill:#ffb343;stroke-width:1.94832;stroke-linecap:round;stroke-linejoin:round;stroke-dasharray:3.89666, 5.84494"
         d="m 40.167715,45.368259 c 6.058816,-0.821299 24.195822,-0.855146 30.660778,0 4.738838,0.626825 9.898191,4.897629 12.652553,8.212217 1.262147,1.518863 2.159883,5.011939 0.694529,6.157074 -0.822161,0.642496 -1.91517,1.043006 -2.959512,1.043006 H 31.03314 c -1.046017,0 -2.152836,-0.405715 -2.983175,-1.052548 -1.459522,-1.136966 -0.555551,-4.623162 0.636797,-6.19703 2.507473,-3.3098 7.067054,-7.564396 11.480953,-8.162719 z"
         transform="matrix(0.68953859,0,0,0.75703594,-5.4343573,54.052986)" /><path
         id="path18-9"
         style="fill:#ffb343;stroke-width:1.94832;stroke-linecap:round;stroke-linejoin:round;stroke-dasharray:3.89666, 5.84494"
         d="m 40.167715,45.368259 c 6.058816,-0.821299 24.195822,-0.855146 30.660778,0 4.738838,0.626825 9.898191,4.897629 12.652553,8.212217 1.262147,1.518863 2.159883,5.011939 0.694529,6.157074 -0.822161,0.642496 -1.91517,1.043006 -2.959512,1.043006 H 31.03314 c -1.046017,0 -2.152836,-0.405715 -2.983175,-1.052548 -1.459522,-1.136966 -0.555551,-4.623162 0.636797,-6.19703 2.507473,-3.3098 7.067054,-7.564396 11.480953,-8.162719 z"
         transform="matrix(0.42614916,0,0,0.46786393,9.3455217,57.37748)" /><path
         id="path18-9-6"
         style="fill:#ffb343;stroke-width:1.94832;stroke-linecap:round;stroke-linejoin:round;stroke-dasharray:3.89666, 5.84494"
         d="m 40.167715,45.368259 c 6.058816,-0.821299 24.195822,-0.855146 30.660778,0 4.738838,0.626825 9.898191,4.897629 12.652553,8.212217 1.262147,1.518863 2.159883,5.011939 0.694529,6.157074 -0.822161,0.642496 -1.91517,1.043006 -2.959512,1.043006 H 31.03314 c -1.046017,0 -2.152836,-0.405715 -2.983175,-1.052548 -1.459522,-1.136966 -0.555551,-4.623162 0.636797,-6.19703 2.507473,-3.3098 7.067054,-7.564396 11.480953,-8.162719 z"
         transform="matrix(0.25151462,0,0,0.27613482,19.144994,59.417957)" /></g><g
       id="g30"
       transform="matrix(1.4451492,0,0,1.4451492,60.371048,-3.4367364)"
       style="display:none;opacity:0.35"><g
         id="g29"><path
           class="cls-2"
           d="M -13.006553,3.3192001 -20.908591,-10.36753 c -0.705261,-1.22155 -2.009219,-1.971961 -3.420141,-1.971729 l -15.92643,0.07064 c -1.410924,2.3e-4 -2.715063,0.753176 -3.420723,1.974954 l -8.024392,13.7573751 c -0.705662,1.221778 -0.705842,2.725134 -0.0024,3.947793 l 7.902038,13.6867289 c 0.705261,1.221549 2.009214,1.971959 3.420137,1.971731 l 15.92643,-0.07064 c 1.410923,-2.28e-4 2.715063,-0.753173 3.420723,-1.974954 l 8.024367,-13.7573699 c 0.70566,-1.221781 0.705844,-2.725135 0.0024,-3.947794 z"
           id="path1-6"
           style="fill:#ffb343;fill-opacity:1;stroke:none;stroke-width:5.96811px;stroke-linecap:round;stroke-linejoin:round" /><path
           class="cls-2"
           d="m -13.006553,43.11567 -7.902038,-13.68673 c -0.705261,-1.22155 -2.009219,-1.971961 -3.420141,-1.971729 l -15.92643,0.07064 c -1.410924,2.3e-4 -2.715063,0.753176 -3.420723,1.974954 l -8.024392,13.757375 c -0.705662,1.221778 -0.705842,2.725134 -0.0024,3.947793 l 7.902038,13.686729 c 0.705261,1.221549 2.009214,1.971959 3.420137,1.971731 l 15.92643,-0.07064 c 1.410923,-2.28e-4 2.715063,-0.753173 3.420723,-1.974954 l 8.024367,-13.75737 c 0.70566,-1.221781 0.705844,-2.725135 0.0024,-3.947794 z"
           id="path1-6-2"
           style="fill:#ffb343;fill-opacity:1;stroke:none;stroke-width:5.96811px;stroke-linecap:round;stroke-linejoin:round" /></g><path
         class="cls-2"
         d="M 21.911239,23.217435 14.009201,9.5307049 C 13.30394,8.3091549 11.999982,7.5587439 10.58906,7.5589759 l -15.9264305,0.07064 c -1.410924,2.3e-4 -2.715063,0.753176 -3.420723,1.974954 L -16.782485,23.361945 c -0.705662,1.221778 -0.705842,2.725134 -0.0024,3.947793 l 7.9020375,13.686729 c 0.705261,1.221549 2.009214,1.971959 3.420137,1.971731 L 10.46372,42.897558 c 1.410923,-2.28e-4 2.715063,-0.753173 3.420723,-1.974954 l 8.024367,-13.75737 c 0.70566,-1.221781 0.705844,-2.725135 0.0024,-3.947794 z"
         id="path1-6-0"
         style="fill:#ffb343;fill-opacity:1;stroke:none;stroke-width:5.96811px;stroke-linecap:round;stroke-linejoin:round" /></g></g><g
     id="layer3"><text
       xml:space="preserve"
       transform="matrix(0.26458333,0,0,0.26458333,5.8907038,27.640139)"
       id="text16"
       style="font-style:normal;font-variant:normal;font-weight:600;font-stretch:normal;font-size:32px;line-height:1;font-family:'Open Sauce One';-inkscape-font-specification:'Open Sauce One Semi-Bold';text-align:start;writing-mode:lr-tb;direction:ltr;white-space:pre;shape-inside:url(#rect16);display:inline;fill:#5d4777;fill-opacity:1;stroke:none;stroke-width:8.1;stroke-linecap:round;stroke-linejoin:round;stroke-dasharray:16.2001, 24.3;stroke-dashoffset:0;stroke-opacity:1;paint-order:normal"><tspan
         x="0"
         y="0"
         id="tspan4"><tspan
           style="font-weight:bold;font-family:Quicksand;-inkscape-font-specification:'Quicksand Bold'"
           id="tspan3">
</tspan></tspan><tspan
         x="0"
         y="33.066641"
         id="tspan6"><tspan
           style="font-weight:bold;font-size:33.3333px;font-family:Quicksand;-inkscape-font-specification:'Quicksand Bold'"
           id="tspan5">Make your business buzz</tspan></tspan></text></g></svg>
