<?xml version="1.0" encoding="UTF-8" standalone="no"?>
<!-- Created with Keyshape -->
<svg xmlns="http://www.w3.org/2000/svg" id="svg1" width="256.646" height="66.1458" viewBox="0 0 256.64585 66.145828" style="white-space: preserve-spaces;">
    <defs id="defs1">
        <rect id="rect16" width="552.582" height="0" transform="translate(302.122,67.7125) translate(-276.291,0)"/>
        <rect id="rect16-6" width="552.582" height="0" transform="translate(302.122,67.7125) translate(-276.291,0)"/>
        <mask id="Mask-2">
            <path id="_a0" fill="#ffffff" stroke="none" d="M-52.1016,715.972C-52.1016,715.972,33.6525,717.847,33.6525,717.847C33.6525,717.847,33.6525,0,33.6525,0C33.6525,0,-52.1016,-1.88368,-52.1016,-1.88368C-52.1016,-1.88368,-52.1016,715.972,-52.1016,715.972Z" transform="translate(56.1016,28.8837)"/>
        </mask>
        <mask id="Mask-3">
            <path id="_a1" fill="#ffffff" stroke="none" d="M-52.1016,9.7102C-52.1016,9.7102,-43,9.7102,-43,9.7102C-43,9.7102,-43,-1.88368,-43,-1.88368C-43,-1.88368,-52.1016,-1.88368,-52.1016,-1.88368C-52.1016,-1.88368,-52.1016,9.7102,-52.1016,9.7102Z" transform="translate(41.5713,0.151963) scale(1,2.66902)"/>
        </mask>
        <mask id="Mask-1">
            <path id="_a3" fill="#ffffff" stroke="none" d="M-52.1016,9.7102C-52.1016,9.7102,-50.1016,9.7102,-50.1016,9.7102C-50.1016,9.7102,-50.1016,-1.88368,-50.1016,-1.88368C-50.1016,-1.88368,-52.1016,-1.88368,-52.1016,-1.88368C-52.1016,-1.88368,-52.1016,9.7102,-52.1016,9.7102Z" transform="translate(56.1016,28.8837)"/>
        </mask>
    </defs>
    <g id="layer1" transform="translate(128.323,33.0729) translate(-128.323,-33.0729)">
        <rect id="rect1" width="256.646" height="66.1458" fill="#ffe8c6" fill-opacity="1" stroke-width="0.529167" transform="translate(128.323,33.0729) translate(-128.323,-33.0729)"/>
    </g>
    <g id="g1" mask="url(#Mask-2)" transform="translate(161.992,32.7337) scale(0.0678376,0.0678376) translate(-767.73,-376.64)">
        <path id="path1" class="cls-2" d="M271.77,185.39L271.77,114.13C271.77,107.77,268.37,101.9,262.86,98.72L200.51,63.09C195,59.91,188.21,59.91,182.7,63.09L120.35,98.72C114.84,101.9,111.45,107.77,111.44,114.13L111.44,185.39C111.44,191.75,114.84,197.62,120.35,200.8L182.7,236.43C188.21,239.61,195,239.61,200.51,236.43L262.86,200.8C268.37,197.62,271.76,191.75,271.77,185.39Z" stroke-linecap="round" stroke-width="26.91px" stroke-linejoin="round" stroke="#5d4777" fill="#5d4777" transform="translate(191.605,149.76) translate(-191.605,-149.76)"/>
        <path id="path2" class="cls-3" d="M442.75,427.56L442.75,325.73C442.75,316.64,437.89,308.25,430.02,303.71L340.91,252.79C333.03,248.24,323.33,248.24,315.45,252.79L226.34,303.71C218.47,308.25,213.62,316.65,213.61,325.73L213.61,427.56C213.61,436.65,218.47,445.04,226.34,449.58L315.45,500.5C323.33,505.05,333.03,505.05,340.91,500.5L430.02,449.58C437.89,445.04,442.74,436.64,442.75,427.56Z" fill="#ffb343" stroke="#ffb343" stroke-linejoin="round" stroke-width="35px" stroke-linecap="round" transform="translate(328.18,376.645) translate(-328.18,-376.645)"/>
        <path id="path3" class="cls-2" d="M271.21,639.15L271.21,567.89C271.21,561.53,267.81,555.66,262.3,552.48L199.95,516.85C194.44,513.67,187.65,513.67,182.14,516.85L119.79,552.48C114.28,555.66,110.89,561.53,110.88,567.89L110.88,639.15C110.88,645.51,114.28,651.38,119.79,654.56L182.14,690.19C187.65,693.37,194.44,693.37,199.95,690.19L262.3,654.56C267.81,651.38,271.2,645.51,271.21,639.15Z" stroke-linecap="round" stroke-width="26.91px" stroke-linejoin="round" stroke="#5d4777" fill="#5d4777" transform="translate(191.045,603.52) translate(-191.045,-603.52)"/>
        <path id="path4" class="cls-1" d="M403.27,300.75C404.92,302.16,405.45,304.49,404.56,306.47C389.58,340.05,358.13,386.45,335.1,410.63C328.64,417.38,320.68,422.53,311.87,425.65C311.69,427.87,311.28,430.92,310.3,434.15C308.33,440.6,303.77,448.63,293.58,451.18C283.71,453.53,273.48,453.97,263.45,452.47C261.59,452.16,259.75,451.72,257.95,451.15C256.29,450.64,254.74,449.82,253.39,448.73C252.49,447.98,251.81,447.01,251.39,445.91C250.87,444.51,250.88,442.96,251.43,441.57C252.36,439.17,254.52,437.85,255.94,437.15C259.8,435.22,262.06,432.72,264.43,429.06C265.36,427.65,266.23,426.15,267.24,424.44L268.39,422.5C269.87,420,271.58,417.21,273.74,414.2C278.91,406.97,285.5,405.14,290.83,405.43C292.07,405.51,293.21,405.66,294.24,405.9C294.85,404.22,295.63,402.18,296.57,399.95C299.13,393.89,303.01,386.06,308.19,379.7C329.49,353.56,368.69,318.95,397.44,300.37C399.26,299.2,401.63,299.36,403.27,300.76" fill="#5d4777" transform="translate(327.998,376.466) translate(-327.998,-376.466)"/>
        <g id="g13" transform="translate(972.255,356.79) translate(-972.255,-356.79)">
            <path id="path5" class="cls-1" d="M575.14,318.99C583.12,318.99,590.08,319.83,596.04,321.51C601.99,323.19,606.61,325.54,609.9,328.55C613.19,331.56,614.84,335.16,614.84,339.36C614.84,342.16,614,344.79,612.32,347.24C610.64,349.69,608.19,350.91,604.97,350.91C602.73,350.91,600.88,350.6,599.4,349.97C597.93,349.34,596.63,348.54,595.52,347.55C594.4,346.57,593.07,345.66,591.53,344.82C590.13,343.98,587.99,343.32,585.13,342.82C582.26,342.33,580.12,342.09,578.72,342.09C571.58,342.09,565.52,343.63,560.55,346.71C555.58,349.79,551.76,353.96,549.1,359.21C546.44,364.46,545.11,370.52,545.11,377.38C545.11,384.24,546.48,390.09,549.21,395.34C551.94,400.59,555.72,404.76,560.55,407.84C565.38,410.92,570.94,412.46,577.25,412.46C580.75,412.46,583.76,412.25,586.28,411.83C588.8,411.41,590.9,410.78,592.58,409.94C594.54,408.82,596.29,407.63,597.83,406.37C599.37,405.11,601.68,404.48,604.76,404.48C608.4,404.48,611.2,405.64,613.16,407.95C615.12,410.26,616.1,413.09,616.1,416.45C616.1,419.81,614.14,423.14,610.22,426C606.3,428.87,601.15,431.18,594.78,432.93C588.41,434.68,581.51,435.55,574.1,435.55C563.04,435.55,553.45,433,545.33,427.88C537.21,422.77,530.95,415.81,526.54,406.99C522.13,398.17,519.93,388.3,519.93,377.38C519.93,365.9,522.27,355.79,526.96,347.04C531.65,338.29,538.16,331.43,546.49,326.46C554.82,321.49,564.37,319,575.16,319Z" fill="#5d4777" transform="translate(568.015,377.27) translate(-568.015,-377.27)"/>
            <path id="path6" class="cls-1" d="M646.96,433.44C643.32,433.44,640.31,432.22,637.93,429.77C635.55,427.32,634.36,424.28,634.36,420.64L634.36,333.91C634.36,330.27,635.55,327.23,637.93,324.78C640.31,322.33,643.32,321.11,646.96,321.11C650.6,321.11,653.61,322.34,655.99,324.78C658.37,327.23,659.56,330.28,659.56,333.91L659.56,353.65L658.09,339.58C659.63,336.22,661.62,333.25,664.08,330.66C666.53,328.07,669.29,325.9,672.37,324.15C675.45,322.4,678.74,321.11,682.24,320.26C685.74,319.42,689.24,319,692.74,319C696.94,319,700.47,320.19,703.34,322.57C706.21,324.95,707.65,327.75,707.65,330.97C707.65,335.59,706.46,338.92,704.08,340.95C701.7,342.98,699.11,343.99,696.31,343.99C693.51,343.99,691.23,343.5,689.07,342.52C686.9,341.54,684.41,341.05,681.61,341.05C679.09,341.05,676.53,341.65,673.94,342.84C671.35,344.03,668.97,345.88,666.8,348.41C664.63,350.93,662.88,354.05,661.55,357.75C660.22,361.46,659.55,365.83,659.55,370.87L659.55,420.64C659.55,424.28,658.36,427.33,655.98,429.77C653.6,432.22,650.59,433.44,646.95,433.44Z" fill="#5d4777" transform="translate(671.005,376.22) translate(-671.005,-376.22)"/>
            <path id="path7" class="cls-1" d="M814.96,318.99C818.6,318.99,821.61,320.18,823.99,322.56C826.37,324.94,827.56,328.02,827.56,331.8L827.56,420.63C827.56,424.27,826.37,427.32,823.99,429.76C821.61,432.21,818.6,433.43,814.96,433.43C811.32,433.43,808.31,432.21,805.93,429.76C803.55,427.31,802.36,424.27,802.36,420.63L802.36,410.34L806.98,412.23C806.98,414.05,806,416.26,804.04,418.85C802.08,421.44,799.42,423.99,796.06,426.52C792.7,429.04,788.74,431.18,784.19,432.92C779.64,434.67,774.7,435.54,769.38,435.54C759.72,435.54,750.97,433.06,743.13,428.08C735.29,423.11,729.09,416.25,724.55,407.5C720,398.75,717.73,388.7,717.73,377.36C717.73,366.02,720,355.77,724.55,347.02C729.1,338.27,735.22,331.41,742.93,326.44C750.63,321.47,759.17,318.98,768.55,318.98C774.57,318.98,780.1,319.89,785.14,321.71C790.18,323.53,794.55,325.84,798.26,328.64C801.97,331.44,804.84,334.28,806.87,337.14C808.9,340.01,809.91,342.43,809.91,344.39L802.35,347.12L802.35,331.79C802.35,328.15,803.54,325.11,805.92,322.65C808.3,320.2,811.31,318.98,814.95,318.98ZM772.54,412.44C778.7,412.44,784.09,410.9,788.71,407.82C793.33,404.74,796.93,400.54,799.53,395.22C802.12,389.9,803.41,383.95,803.41,377.37C803.41,370.79,802.11,364.63,799.53,359.31C796.94,353.99,793.33,349.79,788.71,346.71C784.09,343.63,778.7,342.09,772.54,342.09C766.38,342.09,761.2,343.63,756.58,346.71C751.96,349.79,748.35,353.99,745.76,359.31C743.17,364.63,741.88,370.65,741.88,377.37C741.88,384.09,743.17,389.9,745.76,395.22C748.35,400.54,751.96,404.74,756.58,407.82C761.2,410.9,766.52,412.44,772.54,412.44Z" fill="#5d4777" transform="translate(772.645,377.26) translate(-772.645,-377.26)"/>
            <path id="path8" class="cls-1" d="M914.92,323.19C918.28,323.19,921.08,324.28,923.32,326.44C925.56,328.61,926.68,331.38,926.68,334.73C926.68,338.08,925.56,340.86,923.32,343.02C921.08,345.19,918.28,346.27,914.92,346.27L859.27,346.27C855.91,346.27,853.11,345.19,850.87,343.02C848.63,340.85,847.51,338.09,847.51,334.73C847.51,331.37,848.63,328.61,850.87,326.44C853.11,324.27,855.91,323.19,859.27,323.19ZM912.61,278.04C915.69,278.04,918.7,278.46,921.64,279.3C924.58,280.14,927.03,281.51,928.99,283.39C930.95,285.28,931.93,287.77,931.93,290.85C931.93,294.35,930.91,297.12,928.89,299.14C926.87,301.16,924.51,302.18,921.85,302.18C920.59,302.18,918.7,301.86,916.18,301.23C913.66,300.6,911.21,300.29,908.83,300.29C905.33,300.29,902.63,301.06,900.75,302.6C898.86,304.14,897.56,305.93,896.87,307.96C896.17,309.99,895.82,311.78,895.82,313.31L895.82,420.62C895.82,424.26,894.63,427.31,892.25,429.75C889.87,432.2,886.86,433.42,883.22,433.42C879.58,433.42,876.57,432.2,874.19,429.75C871.81,427.3,870.62,424.26,870.62,420.62L870.62,313.52C870.62,303.58,874.12,295.18,881.12,288.32C888.12,281.46,898.62,278.03,912.62,278.03Z" fill="#5d4777" transform="translate(889.72,355.725) translate(-889.72,-355.725)"/>
            <path id="path9" class="cls-1" d="M948.51,323.19L998.28,323.19C1001.64,323.19,1004.44,324.31,1006.68,326.55C1008.92,328.79,1010.04,331.59,1010.04,334.95C1010.04,338.31,1008.92,340.87,1006.68,343.03C1004.44,345.2,1001.64,346.28,998.28,346.28L948.51,346.28C945.15,346.28,942.35,345.16,940.11,342.92C937.87,340.68,936.75,337.88,936.75,334.52C936.75,331.16,937.87,328.61,940.11,326.44C942.35,324.27,945.15,323.19,948.51,323.19ZM970.98,296.94C974.62,296.94,977.6,298.17,979.9,300.61C982.21,303.06,983.36,306.11,983.36,309.74L983.36,403.19C983.36,405.15,983.74,406.76,984.52,408.02C985.29,409.28,986.34,410.19,987.67,410.75C989,411.31,990.43,411.59,991.97,411.59C993.65,411.59,995.19,411.27,996.59,410.64C997.99,410.01,999.6,409.69,1001.42,409.69C1003.38,409.69,1005.16,410.6,1006.77,412.42C1008.38,414.24,1009.19,416.76,1009.19,419.98C1009.19,423.9,1007.05,427.12,1002.79,429.64C998.52,432.16,993.93,433.42,989.04,433.42C986.1,433.42,982.84,433.18,979.27,432.68C975.7,432.19,972.34,431,969.19,429.11C966.04,427.22,963.42,424.32,961.31,420.4C959.21,416.48,958.16,411.09,958.16,404.23L958.16,309.73C958.16,306.09,959.38,303.05,961.83,300.6C964.28,298.15,967.32,296.93,970.96,296.93Z" fill="#5d4777" transform="translate(973.395,365.175) translate(-973.395,-365.175)"/>
            <path id="path10" class="cls-4" d="M1092.15,318.99C1102.23,318.99,1109.9,321.16,1115.15,325.5C1120.4,329.84,1124,335.62,1125.96,342.83C1127.92,350.04,1128.9,358.06,1128.9,366.87L1128.9,420.63C1128.9,424.27,1127.71,427.32,1125.33,429.76C1122.95,432.21,1119.94,433.43,1116.3,433.43C1112.66,433.43,1109.65,432.21,1107.27,429.76C1104.89,427.31,1103.7,424.27,1103.7,420.63L1103.7,366.87C1103.7,362.25,1103.14,358.09,1102.02,354.37C1100.9,350.66,1098.87,347.69,1095.93,345.45C1092.99,343.21,1088.79,342.09,1083.33,342.09C1077.87,342.09,1073.46,343.21,1069.68,345.45C1065.9,347.69,1063.06,350.67,1061.17,354.37C1059.28,358.08,1058.34,362.25,1058.34,366.87L1058.34,420.63C1058.34,424.27,1057.15,427.32,1054.77,429.76C1052.39,432.21,1049.38,433.43,1045.74,433.43C1042.1,433.43,1039.09,432.21,1036.71,429.76C1034.33,427.31,1033.14,424.27,1033.14,420.63L1033.14,290.85C1033.14,287.21,1034.33,284.17,1036.71,281.72C1039.09,279.27,1042.1,278.04,1045.74,278.04C1049.38,278.04,1052.39,279.27,1054.77,281.72C1057.15,284.17,1058.34,287.22,1058.34,290.85L1058.34,342.93L1055.19,342.3C1056.45,339.92,1058.2,337.36,1060.44,334.63C1062.68,331.9,1065.41,329.35,1068.63,326.96C1071.85,324.58,1075.42,322.65,1079.34,321.18C1083.26,319.71,1087.53,318.97,1092.15,318.97Z" fill="#ffb343" transform="translate(1081.02,355.735) translate(-1081.02,-355.735)"/>
            <path id="path11" class="cls-4" d="M1179.93,420.63C1179.93,424.27,1178.74,427.32,1176.36,429.76C1173.98,432.21,1170.97,433.43,1167.33,433.43C1163.69,433.43,1160.68,432.21,1158.3,429.76C1155.92,427.31,1154.73,424.27,1154.73,420.63L1154.73,333.9C1154.73,330.26,1155.92,327.22,1158.3,324.77C1160.68,322.32,1163.69,321.1,1167.33,321.1C1170.97,321.1,1173.98,322.33,1176.36,324.77C1178.74,327.22,1179.93,330.27,1179.93,333.9ZM1180.56,299.94L1180.56,289.94C1180.56,289.05,1180.01,288.22,1179.12,287.78L1169.07,282.78C1168.18,282.33,1167.09,282.33,1166.2,282.78L1156.15,287.78C1155.26,288.23,1154.72,289.05,1154.71,289.94L1154.71,299.94C1154.71,300.83,1155.26,301.66,1156.15,302.1L1166.2,307.1C1167.09,307.55,1168.18,307.55,1169.07,307.1L1179.12,302.1C1180.01,301.65,1180.55,300.83,1180.56,299.94Z" fill="#ffb343" transform="translate(1167.64,357.936) translate(-1167.64,-357.936)"/>
            <path id="path12" class="cls-4" d="M1210.8,321.09C1213.46,321.09,1215.91,321.76,1218.15,323.08C1220.39,324.41,1222.07,326.41,1223.19,329.07L1254.06,399.63L1249.44,401.73L1280.94,329.28C1283.32,323.68,1287.03,321.02,1292.07,321.3C1295.57,321.3,1298.4,322.39,1300.57,324.55C1302.74,326.72,1303.82,329.42,1303.82,332.63C1303.82,333.61,1303.64,334.66,1303.3,335.78C1302.95,336.9,1302.56,337.95,1302.14,338.93L1262.87,425.45C1260.63,430.49,1257.06,433.15,1252.16,433.43C1249.5,433.85,1246.94,433.36,1244.49,431.96C1242.04,430.56,1240.19,428.39,1238.93,425.45L1199.87,338.93C1199.59,338.23,1199.27,337.32,1198.93,336.2C1198.58,335.08,1198.4,333.75,1198.4,332.21C1198.4,329.69,1199.52,327.21,1201.76,324.75C1204,322.3,1207.01,321.08,1210.79,321.08Z" fill="#ffb343" transform="translate(1251.11,377.328) translate(-1251.11,-377.328)"/>
            <path id="path13" class="cls-4" d="M1375.65,435.54C1363.75,435.54,1353.42,433.06,1344.67,428.08C1335.92,423.11,1329.2,416.36,1324.51,407.82C1319.82,399.28,1317.48,389.62,1317.48,378.84C1317.48,366.24,1320.03,355.5,1325.15,346.6C1330.26,337.71,1336.94,330.89,1345.2,326.13C1353.46,321.37,1362.21,318.99,1371.45,318.99C1378.59,318.99,1385.34,320.46,1391.71,323.4C1398.08,326.34,1403.71,330.37,1408.62,335.48C1413.52,340.59,1417.4,346.5,1420.28,353.23C1423.15,359.95,1424.58,367.09,1424.58,374.65C1424.44,378.01,1423.11,380.74,1420.59,382.84C1418.07,384.94,1415.13,385.99,1411.77,385.99L1331.55,385.99L1325.25,364.99L1402.32,364.99L1397.7,369.19L1397.7,363.52C1397.42,359.46,1395.98,355.82,1393.4,352.6C1390.81,349.38,1387.59,346.82,1383.74,344.93C1379.89,343.04,1375.79,342.1,1371.45,342.1C1367.11,342.1,1363.33,342.66,1359.69,343.78C1356.05,344.9,1352.9,346.79,1350.24,349.45C1347.58,352.11,1345.48,355.68,1343.94,360.16C1342.4,364.64,1341.63,370.31,1341.63,377.17C1341.63,384.73,1343.21,391.13,1346.36,396.38C1349.51,401.63,1353.57,405.62,1358.54,408.35C1363.51,411.08,1368.79,412.44,1374.39,412.44C1379.57,412.44,1383.7,412.02,1386.78,411.18C1389.86,410.34,1392.34,409.33,1394.24,408.14C1396.13,406.95,1397.84,405.93,1399.38,405.1C1401.9,403.84,1404.28,403.21,1406.52,403.21C1409.6,403.21,1412.15,404.26,1414.19,406.36C1416.22,408.46,1417.23,410.91,1417.23,413.71C1417.23,417.49,1415.27,420.92,1411.35,424C1407.71,427.08,1402.6,429.78,1396.02,432.08C1389.44,434.39,1382.65,435.54,1375.65,435.54Z" fill="#ffb343" transform="translate(1371.03,377.265) translate(-1371.03,-377.265)"/>
        </g>
    </g>
    <g mask="url(#Mask-3)" transform="translate(204.844,17.373) translate(-27.4155,-11.2345)">
        <path id="path14" d="M232.26,24.4917C232.26,24.4917,230.858,29.1015,224.44,28.5639C211.901,27.5139,207.694,7.99484,195.553,6.29041C182.36,4.43809,177.429,20.1312,177.429,20.1312" fill="none" fill-opacity="1" stroke="#5d4777" stroke-dasharray="3.87191, 5.80785" stroke-dashoffset="0" stroke-linecap="round" stroke-linejoin="round" stroke-opacity="1" stroke-width="1.93596" transform="translate(27.4155,11.2345) translate(-204.844,-17.373)" style="paint-order: normal;"/>
    </g>
    <g id="_a2" opacity="0" transform="translate(175.944,53.8799) translate(-29.2725,-7.14233)">
        <rect id="rect17" width="58.5449" height="14.2847" ry="3.87509" fill="#ffb343" fill-opacity="1" stroke="none" stroke-dasharray="3.7514, 5.62706" stroke-dashoffset="0" stroke-linecap="round" stroke-linejoin="round" stroke-opacity="1" stroke-width="1.87569" transform="translate(29.2725,7.14233) translate(-29.2725,-7.14233)" style="paint-order: normal;"/>
        <path id="text16-2" display="inline" fill="#5d4777" fill-opacity="1" stroke="none" stroke-dasharray="16.2001, 24.3" stroke-dashoffset="0" stroke-linecap="round" stroke-linejoin="round" stroke-opacity="1" stroke-width="8.1" d="M-65.8745,-3.52156C-65.3527,-3.52156,-64.9163,-3.35602,-64.5652,-3.02493C-64.214,-2.69384,-64.0384,-2.26744,-64.0384,-1.74573C-64.0384,-1.24408,-64.214,-0.827717,-64.5652,-0.49663C-64.9163,-0.165543,-65.3527,0,-65.8745,0L-75.6566,0C-76.1783,0,-76.6147,-0.175576,-76.9659,-0.526729C-77.317,-0.877882,-77.4926,-1.31431,-77.4926,-1.83603L-77.4926,-19.2331C-77.4926,-19.7548,-77.312,-20.1913,-76.9508,-20.5424C-76.5896,-20.8936,-76.1281,-21.0692,-75.5663,-21.0692C-75.0847,-21.0692,-74.6583,-20.8936,-74.2871,-20.5424C-73.9158,-20.1913,-73.7302,-19.7548,-73.7302,-19.2331L-73.7302,-3.00988L-74.3924,-3.52156ZM-54.5056,0.300988C-56.2112,0.300988,-57.691,-0.0551811,-58.9451,-0.767519C-60.1992,-1.47986,-61.1624,-2.44804,-61.8346,-3.67205C-62.5068,-4.89607,-62.8429,-6.28062,-62.8429,-7.82569C-62.8429,-9.63162,-62.4767,-11.1717,-61.7443,-12.4459C-61.0119,-13.72,-60.0538,-14.6982,-58.8699,-15.3805C-57.686,-16.0627,-56.4319,-16.4038,-55.1075,-16.4038C-54.0842,-16.4038,-53.116,-16.1932,-52.203,-15.7718C-51.29,-15.3504,-50.4823,-14.7735,-49.78,-14.0411C-49.0777,-13.3087,-48.5209,-12.4609,-48.1096,-11.4977C-47.6982,-10.5346,-47.4925,-9.51122,-47.4925,-8.42766C-47.5126,-7.94608,-47.7032,-7.5548,-48.0644,-7.25381C-48.4256,-6.95282,-48.847,-6.80233,-49.3286,-6.80233L-60.8263,-6.80233L-61.7293,-9.81221L-50.683,-9.81221L-51.3452,-9.21023L-51.3452,-10.0229C-51.3853,-10.6048,-51.591,-11.1265,-51.9622,-11.588C-52.3334,-12.0496,-52.7949,-12.4158,-53.3468,-12.6866C-53.8986,-12.9575,-54.4855,-13.093,-55.1075,-13.093C-55.7095,-13.093,-56.2714,-13.0127,-56.7931,-12.8522C-57.3148,-12.6917,-57.7663,-12.4208,-58.1475,-12.0395C-58.5288,-11.6583,-58.8298,-11.1466,-59.0505,-10.5045C-59.2712,-9.86237,-59.3816,-9.04971,-59.3816,-8.06648C-59.3816,-6.98292,-59.1558,-6.06491,-58.7043,-5.31244C-58.2529,-4.55997,-57.6709,-3.98809,-56.9586,-3.59681C-56.2463,-3.20552,-55.4888,-3.00988,-54.6861,-3.00988C-53.9437,-3.00988,-53.3518,-3.07008,-52.9103,-3.19047C-52.4689,-3.31087,-52.1127,-3.45635,-51.8418,-3.62691C-51.5709,-3.79747,-51.3251,-3.94294,-51.1044,-4.06334C-50.7432,-4.24393,-50.4021,-4.33423,-50.081,-4.33423C-49.6396,-4.33423,-49.2734,-4.18373,-48.9824,-3.88275C-48.6915,-3.58176,-48.546,-3.2306,-48.546,-2.82929C-48.546,-2.28751,-48.8269,-1.7959,-49.3888,-1.35445C-49.9105,-0.912997,-50.6429,-0.526729,-51.586,-0.195642C-52.5291,0.135445,-53.5023,0.300988,-54.5056,0.300988ZM-32.0478,-16.4038C-31.5261,-16.4038,-31.0947,-16.2333,-30.7536,-15.8922C-30.4124,-15.551,-30.2419,-15.1096,-30.2419,-14.5678L-30.2419,-1.83603C-30.2419,-1.31431,-30.4124,-0.877882,-30.7536,-0.526729C-31.0947,-0.175576,-31.5261,0,-32.0478,0C-32.5695,0,-33.0009,-0.175576,-33.3421,-0.526729C-33.6832,-0.877882,-33.8537,-1.31431,-33.8537,-1.83603L-33.8537,-3.31087L-33.1916,-3.03998C-33.1916,-2.77912,-33.332,-2.46309,-33.6129,-2.09187C-33.8939,-1.72065,-34.2751,-1.35445,-34.7567,-0.99326C-35.2383,-0.632075,-35.8051,-0.32607,-36.4573,-0.075247C-37.1094,0.175576,-37.8167,0.300988,-38.5792,0.300988C-39.9638,0.300988,-41.2179,-0.0551811,-42.3416,-0.767519C-43.4653,-1.47986,-44.3532,-2.46309,-45.0053,-3.7172C-45.6575,-4.97132,-45.9835,-6.41104,-45.9835,-8.03638C-45.9835,-9.68178,-45.6575,-11.1315,-45.0053,-12.3857C-44.3532,-13.6398,-43.4753,-14.623,-42.3717,-15.3353C-41.2681,-16.0477,-40.0441,-16.4038,-38.6996,-16.4038C-37.8368,-16.4038,-37.0442,-16.2734,-36.3218,-16.0126C-35.5995,-15.7517,-34.9724,-15.4206,-34.4407,-15.0193C-33.9089,-14.618,-33.4976,-14.2117,-33.2066,-13.8003C-32.9157,-13.3889,-32.7702,-13.0428,-32.7702,-12.7619L-33.8537,-12.3706L-33.8537,-14.5678C-33.8537,-15.0895,-33.6832,-15.526,-33.3421,-15.8771C-33.0009,-16.2283,-32.5695,-16.4038,-32.0478,-16.4038ZM-38.1278,-3.00988C-37.2449,-3.00988,-36.4723,-3.2306,-35.8102,-3.67205C-35.148,-4.1135,-34.6313,-4.71548,-34.2601,-5.47798C-33.8888,-6.24048,-33.7032,-7.09328,-33.7032,-8.03638C-33.7032,-8.99954,-33.8888,-9.86237,-34.2601,-10.6249C-34.6313,-11.3874,-35.148,-11.9894,-35.8102,-12.4308C-36.4723,-12.8723,-37.2449,-13.093,-38.1278,-13.093C-38.9906,-13.093,-39.7531,-12.8723,-40.4153,-12.4308C-41.0774,-11.9894,-41.5941,-11.3874,-41.9654,-10.6249C-42.3366,-9.86237,-42.5222,-8.99954,-42.5222,-8.03638C-42.5222,-7.09328,-42.3366,-6.24048,-41.9654,-5.47798C-41.5941,-4.71548,-41.0774,-4.1135,-40.4153,-3.67205C-39.7531,-3.2306,-38.9906,-3.00988,-38.1278,-3.00988ZM-25.3939,0C-25.9156,0,-26.347,-0.175576,-26.6881,-0.526729C-27.0293,-0.877882,-27.1998,-1.31431,-27.1998,-1.83603L-27.1998,-14.2668C-27.1998,-14.7885,-27.0293,-15.225,-26.6881,-15.5761C-26.347,-15.9273,-25.9156,-16.1029,-25.3939,-16.1029C-24.8722,-16.1029,-24.4408,-15.9273,-24.0997,-15.5761C-23.7585,-15.225,-23.588,-14.7885,-23.588,-14.2668L-23.588,-11.4375L-23.7987,-13.4542C-23.5779,-13.9357,-23.292,-14.3621,-22.9408,-14.7334C-22.5897,-15.1046,-22.1934,-15.4156,-21.7519,-15.6664C-21.3105,-15.9172,-20.8389,-16.1029,-20.3373,-16.2233C-19.8357,-16.3436,-19.334,-16.4038,-18.8324,-16.4038C-18.2304,-16.4038,-17.7237,-16.2333,-17.3124,-15.8922C-16.901,-15.551,-16.6953,-15.1497,-16.6953,-14.6882C-16.6953,-14.026,-16.8659,-13.5495,-17.207,-13.2585C-17.5481,-12.9676,-17.9194,-12.8221,-18.3207,-12.8221C-18.7019,-12.8221,-19.0481,-12.8923,-19.3591,-13.0328C-19.6701,-13.1732,-20.0263,-13.2435,-20.4276,-13.2435C-20.7888,-13.2435,-21.155,-13.1582,-21.5262,-12.9876C-21.8974,-12.8171,-22.2385,-12.5512,-22.5496,-12.19C-22.8606,-11.8288,-23.1114,-11.3824,-23.302,-10.8506C-23.4927,-10.3189,-23.588,-9.69181,-23.588,-8.96944L-23.588,-1.83603C-23.588,-1.31431,-23.7585,-0.877882,-24.0997,-0.526729C-24.4408,-0.175576,-24.8722,0,-25.3939,0ZM-7.51345,-16.4038C-6.02857,-16.4038,-4.89987,-16.0928,-4.12733,-15.4708C-3.3548,-14.8487,-2.82305,-14.021,-2.53209,-12.9876C-2.24114,-11.9542,-2.09566,-10.8055,-2.09566,-9.54132L-2.09566,-1.83603C-2.09566,-1.31431,-2.26622,-0.877882,-2.60734,-0.526729C-2.94846,-0.175576,-3.37988,0,-3.90159,0C-4.4233,0,-4.85472,-0.175576,-5.19584,-0.526729C-5.53696,-0.877882,-5.70752,-1.31431,-5.70752,-1.83603L-5.70752,-9.54132C-5.70752,-10.2035,-5.7928,-10.8005,-5.96336,-11.3322C-6.13392,-11.8639,-6.43992,-12.2903,-6.88137,-12.6114C-7.32282,-12.9325,-7.9549,-13.093,-8.7776,-13.093C-9.58023,-13.093,-10.2575,-12.9325,-10.8093,-12.6114C-11.3611,-12.2903,-11.7825,-11.8639,-12.0734,-11.3322C-12.3644,-10.8005,-12.5098,-10.2035,-12.5098,-9.54132L-12.5098,-1.83603C-12.5098,-1.31431,-12.6804,-0.877882,-13.0215,-0.526729C-13.3626,-0.175576,-13.7941,0,-14.3158,0C-14.8375,0,-15.2689,-0.175576,-15.61,-0.526729C-15.9511,-0.877882,-16.1217,-1.31431,-16.1217,-1.83603L-16.1217,-14.2668C-16.1217,-14.7885,-15.9511,-15.225,-15.61,-15.5761C-15.2689,-15.9273,-14.8375,-16.1029,-14.3158,-16.1029C-13.7941,-16.1029,-13.3626,-15.9273,-13.0215,-15.5761C-12.6804,-15.225,-12.5098,-14.7885,-12.5098,-14.2668L-12.5098,-12.9726L-12.9613,-13.0629C-12.7807,-13.404,-12.5199,-13.7702,-12.1788,-14.1615C-11.8376,-14.5528,-11.4363,-14.919,-10.9748,-15.2601C-10.5133,-15.6012,-9.99158,-15.8771,-9.40967,-16.0878C-8.82776,-16.2985,-8.19569,-16.4038,-7.51345,-16.4038ZM17.6798,-16.4038C19.2851,-16.4038,20.469,-16.0176,21.2315,-15.245C21.994,-14.4725,22.4956,-13.4742,22.7364,-12.2502L22.2247,-12.5211L22.4655,-13.0027C22.7063,-13.4642,23.0775,-13.9608,23.5792,-14.4926C24.0808,-15.0243,24.6878,-15.4758,25.4002,-15.847C26.1125,-16.2182,26.9101,-16.4038,27.793,-16.4038C29.2377,-16.4038,30.3364,-16.0928,31.0888,-15.4708C31.8413,-14.8487,32.358,-14.021,32.6389,-12.9876C32.9198,-11.9542,33.0603,-10.8055,33.0603,-9.54132L33.0603,-1.83603C33.0603,-1.31431,32.8897,-0.877882,32.5486,-0.526729C32.2075,-0.175576,31.7761,0,31.2544,0C30.7327,0,30.3012,-0.175576,29.9601,-0.526729C29.619,-0.877882,29.4484,-1.31431,29.4484,-1.83603L29.4484,-9.54132C29.4484,-10.2035,29.3682,-10.8005,29.2076,-11.3322C29.0471,-11.8639,28.7562,-12.2903,28.3348,-12.6114C27.9134,-12.9325,27.3114,-13.093,26.5289,-13.093C25.7664,-13.093,25.1142,-12.9325,24.5724,-12.6114C24.0307,-12.2903,23.6243,-11.8639,23.3534,-11.3322C23.0825,-10.8005,22.9471,-10.2035,22.9471,-9.54132L22.9471,-1.83603C22.9471,-1.31431,22.7765,-0.877882,22.4354,-0.526729C22.0943,-0.175576,21.6629,0,21.1412,0C20.6195,0,20.188,-0.175576,19.8469,-0.526729C19.5058,-0.877882,19.3352,-1.31431,19.3352,-1.83603L19.3352,-9.54132C19.3352,-10.2035,19.255,-10.8005,19.0945,-11.3322C18.9339,-11.8639,18.643,-12.2903,18.2216,-12.6114C17.8002,-12.9325,17.1982,-13.093,16.4157,-13.093C15.6532,-13.093,15.001,-12.9325,14.4592,-12.6114C13.9175,-12.2903,13.5111,-11.8639,13.2402,-11.3322C12.9693,-10.8005,12.8339,-10.2035,12.8339,-9.54132L12.8339,-1.83603C12.8339,-1.31431,12.6633,-0.877882,12.3222,-0.526729C11.9811,-0.175576,11.5497,0,11.028,0C10.5063,0,10.0748,-0.175576,9.73373,-0.526729C9.39261,-0.877882,9.22205,-1.31431,9.22205,-1.83603L9.22205,-14.2668C9.22205,-14.7885,9.39261,-15.225,9.73373,-15.5761C10.0748,-15.9273,10.5063,-16.1029,11.028,-16.1029C11.5497,-16.1029,11.9811,-15.9273,12.3222,-15.5761C12.6633,-15.225,12.8339,-14.7885,12.8339,-14.2668L12.8339,-12.9726L12.3824,-13.0629C12.563,-13.404,12.8138,-13.7702,13.1349,-14.1615C13.4559,-14.5528,13.8472,-14.919,14.3087,-15.2601C14.7703,-15.6012,15.2819,-15.8771,15.8438,-16.0878C16.4056,-16.2985,17.0176,-16.4038,17.6798,-16.4038ZM52.2027,-8.03638C52.2027,-6.39098,51.8365,-4.94122,51.1041,-3.6871C50.3717,-2.43299,49.3885,-1.45478,48.1544,-0.75247C46.9204,-0.0501647,45.5408,0.300988,44.0158,0.300988C42.4908,0.300988,41.1113,-0.0501647,39.8772,-0.75247C38.6432,-1.45478,37.66,-2.43299,36.9276,-3.6871C36.1952,-4.94122,35.829,-6.39098,35.829,-8.03638C35.829,-9.68178,36.1952,-11.1315,36.9276,-12.3857C37.66,-13.6398,38.6432,-14.623,39.8772,-15.3353C41.1113,-16.0477,42.4908,-16.4038,44.0158,-16.4038C45.5408,-16.4038,46.9204,-16.0477,48.1544,-15.3353C49.3885,-14.623,50.3717,-13.6398,51.1041,-12.3857C51.8365,-11.1315,52.2027,-9.68178,52.2027,-8.03638ZM48.5908,-8.03638C48.5908,-9.05974,48.3852,-9.94765,47.9738,-10.7001C47.5625,-11.4526,47.0107,-12.0395,46.3184,-12.4609C45.6261,-12.8823,44.8586,-13.093,44.0158,-13.093C43.1731,-13.093,42.4055,-12.8823,41.7133,-12.4609C41.021,-12.0395,40.4692,-11.4526,40.0578,-10.7001C39.6465,-9.94765,39.4408,-9.05974,39.4408,-8.03638C39.4408,-7.03309,39.6465,-6.1552,40.0578,-5.40273C40.4692,-4.65026,41.021,-4.06334,41.7133,-3.64195C42.4055,-3.22057,43.1731,-3.00988,44.0158,-3.00988C44.8586,-3.00988,45.6261,-3.22057,46.3184,-3.64195C47.0107,-4.06334,47.5625,-4.65026,47.9738,-5.40273C48.3852,-6.1552,48.5908,-7.03309,48.5908,-8.03638ZM56.3561,0C55.8344,0,55.403,-0.175576,55.0619,-0.526729C54.7207,-0.877882,54.5502,-1.31431,54.5502,-1.83603L54.5502,-14.2668C54.5502,-14.7885,54.7207,-15.225,55.0619,-15.5761C55.403,-15.9273,55.8344,-16.1029,56.3561,-16.1029C56.8778,-16.1029,57.3092,-15.9273,57.6503,-15.5761C57.9915,-15.225,58.162,-14.7885,58.162,-14.2668L58.162,-11.4375L57.9513,-13.4542C58.1721,-13.9357,58.458,-14.3621,58.8092,-14.7334C59.1603,-15.1046,59.5566,-15.4156,59.9981,-15.6664C60.4395,-15.9172,60.9111,-16.1029,61.4127,-16.2233C61.9143,-16.3436,62.416,-16.4038,62.9176,-16.4038C63.5196,-16.4038,64.0263,-16.2333,64.4376,-15.8922C64.849,-15.551,65.0547,-15.1497,65.0547,-14.6882C65.0547,-14.026,64.8841,-13.5495,64.543,-13.2585C64.2019,-12.9676,63.8306,-12.8221,63.4293,-12.8221C63.0481,-12.8221,62.7019,-12.8923,62.3909,-13.0328C62.0799,-13.1732,61.7237,-13.2435,61.3224,-13.2435C60.9612,-13.2435,60.595,-13.1582,60.2238,-12.9876C59.8526,-12.8171,59.5115,-12.5512,59.2004,-12.19C58.8894,-11.8288,58.6386,-11.3824,58.448,-10.8506C58.2573,-10.3189,58.162,-9.69181,58.162,-8.96944L58.162,-1.83603C58.162,-1.31431,57.9915,-0.877882,57.6503,-0.526729C57.3092,-0.175576,56.8778,0,56.3561,0ZM72.5569,0.300988C70.8513,0.300988,69.3715,-0.0551811,68.1174,-0.767519C66.8633,-1.47986,65.9001,-2.44804,65.2279,-3.67205C64.5557,-4.89607,64.2196,-6.28062,64.2196,-7.82569C64.2196,-9.63162,64.5858,-11.1717,65.3182,-12.4459C66.0506,-13.72,67.0087,-14.6982,68.1926,-15.3805C69.3765,-16.0627,70.6306,-16.4038,71.955,-16.4038C72.9783,-16.4038,73.9465,-16.1932,74.8595,-15.7718C75.7725,-15.3504,76.5801,-14.7735,77.2825,-14.0411C77.9848,-13.3087,78.5416,-12.4609,78.9529,-11.4977C79.3643,-10.5346,79.57,-9.51122,79.57,-8.42766C79.5499,-7.94608,79.3593,-7.5548,78.9981,-7.25381C78.6369,-6.95282,78.2155,-6.80233,77.7339,-6.80233L66.2362,-6.80233L65.3332,-9.81221L76.3795,-9.81221L75.7173,-9.21023L75.7173,-10.0229C75.6772,-10.6048,75.4715,-11.1265,75.1003,-11.588C74.7291,-12.0496,74.2676,-12.4158,73.7158,-12.6866C73.1639,-12.9575,72.577,-13.093,71.955,-13.093C71.353,-13.093,70.7911,-13.0127,70.2694,-12.8522C69.7477,-12.6917,69.2962,-12.4208,68.915,-12.0395C68.5337,-11.6583,68.2327,-11.1466,68.012,-10.5045C67.7913,-9.86237,67.6809,-9.04971,67.6809,-8.06648C67.6809,-6.98292,67.9067,-6.06491,68.3582,-5.31244C68.8096,-4.55997,69.3916,-3.98809,70.1039,-3.59681C70.8162,-3.20552,71.5737,-3.00988,72.3764,-3.00988C73.1188,-3.00988,73.7107,-3.07008,74.1522,-3.19047C74.5936,-3.31087,74.9498,-3.45635,75.2207,-3.62691C75.4916,-3.79747,75.7374,-3.94294,75.9581,-4.06334C76.3193,-4.24393,76.6604,-4.33423,76.9815,-4.33423C77.4229,-4.33423,77.7891,-4.18373,78.0801,-3.88275C78.371,-3.58176,78.5165,-3.2306,78.5165,-2.82929C78.5165,-2.28751,78.2356,-1.7959,77.6737,-1.35445C77.152,-0.912997,76.4196,-0.526729,75.4765,-0.195642C74.5334,0.135445,73.5602,0.300988,72.5569,0.300988Z" fill-rule="nonzero" transform="translate(14.3012,9.52358) scale(0.210972,0.210972) translate(72.8525,0)"/>
    </g>
    <g id="g22" display="inline" opacity="0.35" transform="translate(18.3713,32.7219) scale(1.25486,1.25486) translate(-33.2585,-95.7787)">
        <path id="path18" d="M40.1677,45.3683C46.2265,44.547,64.3635,44.5131,70.8285,45.3683C75.5673,45.9951,80.7267,50.2659,83.481,53.5805C84.7432,55.0993,85.6409,58.5924,84.1756,59.7376C83.3534,60.38,82.2604,60.7806,81.2161,60.7806L31.0331,60.7806C29.9871,60.7806,28.8803,60.3748,28.05,59.728C26.5904,58.591,27.4944,55.1048,28.6868,53.531C31.1942,50.2212,35.7538,45.9666,40.1677,45.3683Z" fill="#ffb343" stroke-dasharray="3.89666, 5.84494" stroke-linecap="round" stroke-linejoin="round" stroke-width="1.94832" transform="translate(33.2585,110.98) scale(1,1.09789) translate(-56.1142,-52.76)"/>
        <path id="path20" d="M40.1677,45.3683C46.2265,44.547,64.3635,44.5131,70.8285,45.3683C75.5673,45.9951,80.7267,50.2659,83.481,53.5805C84.7432,55.0993,85.6409,58.5924,84.1756,59.7376C83.3534,60.38,82.2604,60.7806,81.2161,60.7806L31.0331,60.7806C29.9871,60.7806,28.8803,60.3748,28.05,59.728C26.5904,58.591,27.4944,55.1048,28.6868,53.531C31.1942,50.2212,35.7538,45.9666,40.1677,45.3683Z" fill="#ffb343" stroke-dasharray="3.89666, 5.84494" stroke-linecap="round" stroke-linejoin="round" stroke-width="1.94832" transform="translate(33.2585,93.9942) scale(0.689539,0.757036) translate(-56.1142,-52.76)"/>
        <path id="path18-9" d="M40.1677,45.3683C46.2265,44.547,64.3635,44.5131,70.8285,45.3683C75.5673,45.9951,80.7267,50.2659,83.481,53.5805C84.7432,55.0993,85.6409,58.5924,84.1756,59.7376C83.3534,60.38,82.2604,60.7806,81.2161,60.7806L31.0331,60.7806C29.9871,60.7806,28.8803,60.3748,28.05,59.728C26.5904,58.591,27.4944,55.1048,28.6868,53.531C31.1942,50.2212,35.7538,45.9666,40.1677,45.3683Z" fill="#ffb343" stroke-dasharray="3.89666, 5.84494" stroke-linecap="round" stroke-linejoin="round" stroke-width="1.94832" transform="translate(33.2585,82.062) scale(0.426149,0.467864) translate(-56.1142,-52.76)"/>
        <path id="path18-9-6" d="M40.1677,45.3683C46.2265,44.547,64.3635,44.5131,70.8285,45.3683C75.5673,45.9951,80.7267,50.2659,83.481,53.5805C84.7432,55.0993,85.6409,58.5924,84.1756,59.7376C83.3534,60.38,82.2604,60.7806,81.2161,60.7806L31.0331,60.7806C29.9871,60.7806,28.8803,60.3748,28.05,59.728C26.5904,58.591,27.4944,55.1048,28.6868,53.531C31.1942,50.2212,35.7538,45.9666,40.1677,45.3683Z" fill="#ffb343" stroke-dasharray="3.89666, 5.84494" stroke-linecap="round" stroke-linejoin="round" stroke-width="1.94832" transform="translate(33.2585,73.9868) scale(0.251515,0.276135) translate(-56.1142,-52.76)"/>
    </g>
    <g id="layer3" visibility="visible" mask="url(#Mask-1)" transform="translate(56.1016,28.8837) translate(-56.1016,-28.8837)">
        <path id="text16" display="inline" fill="#5d4777" fill-opacity="1" stroke="none" stroke-dasharray="16.2001, 24.3" stroke-dashoffset="0" stroke-linecap="round" stroke-linejoin="round" stroke-opacity="1" stroke-width="8.1" d="M4.6,9.7C4.91111,9.7,5.23888,9.78333,5.58333,9.95C5.92777,10.1167,6.18888,10.3333,6.36666,10.6L14.4667,23.0667L12.8,23L21.1,10.6C21.5222,10,22.0666,9.7,22.7333,9.7C23.2666,9.7,23.7444,9.88889,24.1666,10.2667C24.5889,10.6444,24.8,11.1333,24.8,11.7333L24.8,31.0333C24.8,31.6111,24.6111,32.0944,24.2333,32.4833C23.8555,32.8722,23.3555,33.0666,22.7333,33.0666C22.1111,33.0666,21.6055,32.8722,21.2166,32.4833C20.8278,32.0944,20.6333,31.6111,20.6333,31.0333L20.6333,15.3333L21.9333,15.6333L15.1333,26C14.9333,26.2444,14.6833,26.4555,14.3833,26.6333C14.0833,26.8111,13.7778,26.8889,13.4667,26.8666C13.1778,26.8889,12.8833,26.8111,12.5833,26.6333C12.2833,26.4555,12.0333,26.2444,11.8333,26L5.46666,15.9333L6.33333,14.1667L6.33333,31.0333C6.33333,31.6111,6.15555,32.0944,5.79999,32.4833C5.44444,32.8722,4.97777,33.0666,4.4,33.0666C3.84444,33.0666,3.38889,32.8722,3.03333,32.4833C2.67778,32.0944,2.5,31.6111,2.5,31.0333L2.5,11.7333C2.5,11.1778,2.70555,10.7,3.11666,10.3C3.52777,9.9,4.02222,9.7,4.6,9.7ZM44.3917,14.9C44.9694,14.9,45.4472,15.0889,45.825,15.4667C46.2028,15.8444,46.3916,16.3333,46.3916,16.9333L46.3916,31.0333C46.3916,31.6111,46.2028,32.0944,45.825,32.4833C45.4472,32.8722,44.9694,33.0666,44.3917,33.0666C43.8139,33.0666,43.3361,32.8722,42.9583,32.4833C42.5805,32.0944,42.3917,31.6111,42.3917,31.0333L42.3917,29.4L43.125,29.7C43.125,29.9889,42.9694,30.3389,42.6583,30.75C42.3472,31.1611,41.925,31.5666,41.3917,31.9666C40.8583,32.3666,40.2305,32.7055,39.5083,32.9833C38.7861,33.2611,38.0028,33.4,37.1583,33.4C35.625,33.4,34.2361,33.0055,32.9917,32.2166C31.7472,31.4278,30.7639,30.3389,30.0417,28.95C29.3194,27.5611,28.9583,25.9667,28.9583,24.1667C28.9583,22.3444,29.3194,20.7389,30.0417,19.35C30.7639,17.9611,31.7361,16.8722,32.9583,16.0833C34.1805,15.2944,35.5361,14.9,37.025,14.9C37.9805,14.9,38.8583,15.0444,39.6583,15.3333C40.4583,15.6222,41.1528,15.9889,41.7417,16.4333C42.3305,16.8778,42.7861,17.3278,43.1083,17.7833C43.4305,18.2389,43.5917,18.6222,43.5917,18.9333L42.3917,19.3667L42.3917,16.9333C42.3917,16.3555,42.5805,15.8722,42.9583,15.4833C43.3361,15.0944,43.8139,14.9,44.3917,14.9ZM37.6583,29.7333C38.6361,29.7333,39.4917,29.4889,40.225,29C40.9583,28.5111,41.5305,27.8444,41.9417,27C42.3528,26.1555,42.5583,25.2111,42.5583,24.1667C42.5583,23.1,42.3528,22.1444,41.9417,21.3C41.5305,20.4555,40.9583,19.7889,40.225,19.3C39.4917,18.8111,38.6361,18.5667,37.6583,18.5667C36.7028,18.5667,35.8583,18.8111,35.125,19.3C34.3917,19.7889,33.8194,20.4555,33.4083,21.3C32.9972,22.1444,32.7917,23.1,32.7917,24.1667C32.7917,25.2111,32.9972,26.1555,33.4083,27C33.8194,27.8444,34.3917,28.5111,35.125,29C35.8583,29.4889,36.7028,29.7333,37.6583,29.7333ZM52.0937,33.0666C51.516,33.0666,51.0382,32.8722,50.6604,32.4833C50.2826,32.0944,50.0937,31.6111,50.0937,31.0333L50.0937,10.4333C50.0937,9.85555,50.2826,9.37222,50.6604,8.98333C51.0382,8.59444,51.516,8.4,52.0937,8.4C52.6715,8.4,53.1493,8.59444,53.5271,8.98333C53.9049,9.37222,54.0937,9.85555,54.0937,10.4333L54.0937,31.0333C54.0937,31.6111,53.9049,32.0944,53.5271,32.4833C53.1493,32.8722,52.6715,33.0666,52.0937,33.0666ZM62.6937,15.2333C63.2048,15.2333,63.6493,15.4444,64.0271,15.8667C64.4048,16.2889,64.5937,16.7,64.5937,17.1C64.5937,17.6333,64.3271,18.1333,63.7937,18.6L53.7604,27.8333L53.5937,23.2333L61.2271,15.8667C61.6493,15.4444,62.1382,15.2333,62.6937,15.2333ZM63.1937,33.0333C62.616,33.0333,62.1271,32.8111,61.7271,32.3666L55.5604,25.8333L58.5937,23.0333L64.5937,29.5666C65.016,30.0111,65.2271,30.5111,65.2271,31.0666C65.2271,31.6444,64.9993,32.1166,64.5437,32.4833C64.0882,32.85,63.6382,33.0333,63.1937,33.0333ZM74.8948,33.4C73.0059,33.4,71.367,33.0055,69.9781,32.2166C68.5892,31.4278,67.5226,30.3555,66.7781,29C66.0337,27.6444,65.6615,26.1111,65.6615,24.4C65.6615,22.4,66.067,20.6944,66.8781,19.2833C67.6892,17.8722,68.7503,16.7889,70.0615,16.0333C71.3726,15.2778,72.7614,14.9,74.2281,14.9C75.3615,14.9,76.4337,15.1333,77.4448,15.6C78.4559,16.0667,79.3503,16.7055,80.1281,17.5167C80.9059,18.3278,81.5226,19.2667,81.9781,20.3333C82.4337,21.4,82.6614,22.5333,82.6614,23.7333C82.6392,24.2667,82.4281,24.7,82.0281,25.0333C81.6281,25.3667,81.1614,25.5333,80.6281,25.5333L67.8948,25.5333L66.8948,22.2L79.1281,22.2L78.3948,22.8667L78.3948,21.9667C78.3503,21.3222,78.1226,20.7444,77.7114,20.2333C77.3003,19.7222,76.7892,19.3167,76.1781,19.0167C75.567,18.7167,74.917,18.5667,74.2281,18.5667C73.5615,18.5667,72.9392,18.6555,72.3615,18.8333C71.7837,19.0111,71.2837,19.3111,70.8615,19.7333C70.4392,20.1555,70.1059,20.7222,69.8615,21.4333C69.617,22.1444,69.4948,23.0444,69.4948,24.1333C69.4948,25.3333,69.7448,26.35,70.2448,27.1833C70.7448,28.0166,71.3892,28.65,72.1781,29.0833C72.967,29.5166,73.8059,29.7333,74.6948,29.7333C75.517,29.7333,76.1726,29.6666,76.6614,29.5333C77.1503,29.4,77.5448,29.2389,77.8448,29.05C78.1448,28.8611,78.417,28.7,78.6614,28.5666C79.0614,28.3666,79.4392,28.2666,79.7948,28.2666C80.2837,28.2666,80.6892,28.4333,81.0114,28.7666C81.3337,29.1,81.4948,29.4889,81.4948,29.9333C81.4948,30.5333,81.1837,31.0778,80.5614,31.5666C79.9837,32.0555,79.1726,32.4833,78.1281,32.85C77.0837,33.2166,76.0059,33.4,74.8948,33.4ZM107.259,15.2333C107.837,15.2333,108.315,15.4278,108.693,15.8167C109.07,16.2055,109.259,16.6889,109.259,17.2667L109.259,31.4333C109.259,33.4778,108.876,35.1055,108.109,36.3166C107.343,37.5277,106.315,38.4,105.026,38.9333C103.737,39.4666,102.293,39.7333,100.693,39.7333C99.9816,39.7333,99.226,39.6777,98.426,39.5666C97.626,39.4555,96.9705,39.2889,96.4594,39.0666C95.7927,38.7777,95.3316,38.4166,95.076,37.9833C94.8205,37.55,94.7705,37.0889,94.926,36.6C95.126,35.9555,95.4483,35.5166,95.8927,35.2833C96.3372,35.05,96.8038,35.0222,97.2927,35.2C97.6483,35.3111,98.1149,35.4833,98.6927,35.7166C99.2705,35.95,99.9371,36.0666,100.693,36.0666C101.715,36.0666,102.565,35.9278,103.243,35.65C103.92,35.3722,104.432,34.9055,104.776,34.25C105.12,33.5944,105.293,32.7,105.293,31.5666L105.293,29.3333L105.993,30.1333C105.615,30.8666,105.143,31.4722,104.576,31.95C104.009,32.4278,103.337,32.7889,102.559,33.0333C101.782,33.2778,100.893,33.4,99.8927,33.4C98.7149,33.4,97.6871,33.1278,96.8094,32.5833C95.9316,32.0389,95.2483,31.2833,94.7594,30.3166C94.2705,29.35,94.026,28.2444,94.026,27L94.026,17.2667C94.026,16.6889,94.2149,16.2055,94.5927,15.8167C94.9705,15.4278,95.4483,15.2333,96.026,15.2333C96.6038,15.2333,97.0816,15.4278,97.4594,15.8167C97.8371,16.2055,98.026,16.6889,98.026,17.2667L98.026,25.8C98.026,27.2444,98.3427,28.2611,98.976,28.85C99.6094,29.4389,100.493,29.7333,101.626,29.7333C102.404,29.7333,103.059,29.5833,103.593,29.2833C104.126,28.9833,104.537,28.5389,104.826,27.95C105.115,27.3611,105.259,26.6444,105.259,25.8L105.259,17.2667C105.259,16.6889,105.448,16.2055,105.826,15.8167C106.204,15.4278,106.682,15.2333,107.259,15.2333ZM129.889,24.1667C129.889,25.9889,129.483,27.5944,128.672,28.9833C127.861,30.3722,126.772,31.4555,125.405,32.2333C124.039,33.0111,122.511,33.4,120.822,33.4C119.133,33.4,117.605,33.0111,116.239,32.2333C114.872,31.4555,113.783,30.3722,112.972,28.9833C112.161,27.5944,111.755,25.9889,111.755,24.1667C111.755,22.3444,112.161,20.7389,112.972,19.35C113.783,17.9611,114.872,16.8722,116.239,16.0833C117.605,15.2944,119.133,14.9,120.822,14.9C122.511,14.9,124.039,15.2944,125.405,16.0833C126.772,16.8722,127.861,17.9611,128.672,19.35C129.483,20.7389,129.889,22.3444,129.889,24.1667ZM125.889,24.1667C125.889,23.0333,125.661,22.05,125.205,21.2167C124.75,20.3833,124.139,19.7333,123.372,19.2667C122.605,18.8,121.755,18.5667,120.822,18.5667C119.889,18.5667,119.039,18.8,118.272,19.2667C117.505,19.7333,116.894,20.3833,116.439,21.2167C115.983,22.05,115.755,23.0333,115.755,24.1667C115.755,25.2778,115.983,26.25,116.439,27.0833C116.894,27.9166,117.505,28.5666,118.272,29.0333C119.039,29.5,119.889,29.7333,120.822,29.7333C121.755,29.7333,122.605,29.5,123.372,29.0333C124.139,28.5666,124.75,27.9166,125.205,27.0833C125.661,26.25,125.889,25.2778,125.889,24.1667ZM145.712,15.2333C146.29,15.2333,146.768,15.4278,147.146,15.8167C147.524,16.2055,147.712,16.6889,147.712,17.2667L147.712,25.7333C147.712,28.0889,147.057,29.9555,145.746,31.3333C144.435,32.7111,142.546,33.4,140.079,33.4C137.612,33.4,135.729,32.7111,134.429,31.3333C133.129,29.9555,132.479,28.0889,132.479,25.7333L132.479,17.2667C132.479,16.6889,132.668,16.2055,133.046,15.8167C133.424,15.4278,133.901,15.2333,134.479,15.2333C135.057,15.2333,135.535,15.4278,135.912,15.8167C136.29,16.2055,136.479,16.6889,136.479,17.2667L136.479,25.7333C136.479,27.0889,136.779,28.0944,137.379,28.75C137.979,29.4055,138.879,29.7333,140.079,29.7333C141.301,29.7333,142.212,29.4055,142.812,28.75C143.412,28.0944,143.712,27.0889,143.712,25.7333L143.712,17.2667C143.712,16.6889,143.901,16.2055,144.279,15.8167C144.657,15.4278,145.135,15.2333,145.712,15.2333ZM153.245,33.0666C152.667,33.0666,152.189,32.8722,151.811,32.4833C151.434,32.0944,151.245,31.6111,151.245,31.0333L151.245,17.2667C151.245,16.6889,151.434,16.2055,151.811,15.8167C152.189,15.4278,152.667,15.2333,153.245,15.2333C153.823,15.2333,154.3,15.4278,154.678,15.8167C155.056,16.2055,155.245,16.6889,155.245,17.2667L155.245,20.4L155.011,18.1667C155.256,17.6333,155.573,17.1611,155.961,16.75C156.35,16.3389,156.789,15.9944,157.278,15.7167C157.767,15.4389,158.289,15.2333,158.845,15.1C159.4,14.9667,159.956,14.9,160.511,14.9C161.178,14.9,161.739,15.0889,162.195,15.4667C162.65,15.8444,162.878,16.2889,162.878,16.8C162.878,17.5333,162.689,18.0611,162.311,18.3833C161.934,18.7055,161.523,18.8667,161.078,18.8667C160.656,18.8667,160.273,18.7889,159.928,18.6333C159.584,18.4778,159.189,18.4,158.745,18.4C158.345,18.4,157.939,18.4944,157.528,18.6833C157.117,18.8722,156.739,19.1667,156.395,19.5667C156.05,19.9667,155.773,20.4611,155.561,21.05C155.35,21.6389,155.245,22.3333,155.245,23.1333L155.245,31.0333C155.245,31.6111,155.056,32.0944,154.678,32.4833C154.3,32.8722,153.823,33.0666,153.245,33.0666ZM181.744,14.9C183.299,14.9,184.694,15.2944,185.927,16.0833C187.16,16.8722,188.138,17.9555,188.86,19.3333C189.583,20.7111,189.944,22.3111,189.944,24.1333C189.944,25.9555,189.583,27.5611,188.86,28.95C188.138,30.3389,187.172,31.4278,185.96,32.2166C184.749,33.0055,183.388,33.4,181.877,33.4C180.988,33.4,180.155,33.2555,179.377,32.9666C178.599,32.6778,177.916,32.3111,177.327,31.8666C176.738,31.4222,176.283,30.9722,175.96,30.5166C175.638,30.0611,175.477,29.6778,175.477,29.3666L176.51,28.9333L176.51,31.3666C176.51,31.9444,176.322,32.4278,175.944,32.8166C175.566,33.2055,175.088,33.4,174.51,33.4C173.933,33.4,173.455,33.2111,173.077,32.8333C172.699,32.4555,172.51,31.9666,172.51,31.3666L172.51,10.4333C172.51,9.85555,172.699,9.37222,173.077,8.98333C173.455,8.59444,173.933,8.4,174.51,8.4C175.088,8.4,175.566,8.59444,175.944,8.98333C176.322,9.37222,176.51,9.85555,176.51,10.4333L176.51,18.9L175.944,18.6C175.944,18.3111,176.099,17.9611,176.41,17.55C176.722,17.1389,177.144,16.7278,177.677,16.3167C178.21,15.9055,178.827,15.5667,179.527,15.3C180.227,15.0333,180.966,14.9,181.744,14.9ZM181.244,18.5667C180.266,18.5667,179.41,18.8111,178.677,19.3C177.944,19.7889,177.372,20.45,176.96,21.2833C176.549,22.1167,176.344,23.0667,176.344,24.1333C176.344,25.1778,176.549,26.1278,176.96,26.9833C177.372,27.8389,177.944,28.5111,178.677,29C179.41,29.4889,180.266,29.7333,181.244,29.7333C182.222,29.7333,183.072,29.4889,183.794,29C184.516,28.5111,185.083,27.8389,185.494,26.9833C185.905,26.1278,186.11,25.1778,186.11,24.1333C186.11,23.0667,185.905,22.1167,185.494,21.2833C185.083,20.45,184.516,19.7889,183.794,19.3C183.072,18.8111,182.222,18.5667,181.244,18.5667ZM205.712,15.2333C206.29,15.2333,206.768,15.4278,207.146,15.8167C207.524,16.2055,207.712,16.6889,207.712,17.2667L207.712,25.7333C207.712,28.0889,207.057,29.9555,205.746,31.3333C204.435,32.7111,202.546,33.4,200.079,33.4C197.612,33.4,195.729,32.7111,194.429,31.3333C193.129,29.9555,192.479,28.0889,192.479,25.7333L192.479,17.2667C192.479,16.6889,192.668,16.2055,193.046,15.8167C193.424,15.4278,193.901,15.2333,194.479,15.2333C195.057,15.2333,195.535,15.4278,195.912,15.8167C196.29,16.2055,196.479,16.6889,196.479,17.2667L196.479,25.7333C196.479,27.0889,196.779,28.0944,197.379,28.75C197.979,29.4055,198.879,29.7333,200.079,29.7333C201.301,29.7333,202.212,29.4055,202.812,28.75C203.412,28.0944,203.712,27.0889,203.712,25.7333L203.712,17.2667C203.712,16.6889,203.901,16.2055,204.279,15.8167C204.657,15.4278,205.135,15.2333,205.712,15.2333ZM210.211,30.3C209.989,29.9889,209.889,29.5889,209.911,29.1C209.934,28.6111,210.223,28.1889,210.778,27.8333C211.134,27.6111,211.511,27.5166,211.911,27.55C212.311,27.5833,212.7,27.7889,213.078,28.1666C213.723,28.8111,214.4,29.3111,215.111,29.6666C215.823,30.0222,216.711,30.2,217.778,30.2C218.111,30.1778,218.478,30.1278,218.878,30.05C219.278,29.9722,219.628,29.7944,219.928,29.5166C220.228,29.2389,220.378,28.8111,220.378,28.2333C220.378,27.7444,220.211,27.3555,219.878,27.0666C219.545,26.7778,219.106,26.5333,218.561,26.3333C218.017,26.1333,217.411,25.9444,216.745,25.7666C216.056,25.5666,215.35,25.3444,214.628,25.1C213.906,24.8555,213.245,24.5389,212.645,24.15C212.045,23.7611,211.556,23.2444,211.178,22.6C210.8,21.9555,210.611,21.1444,210.611,20.1667C210.611,19.0555,210.923,18.1111,211.545,17.3333C212.167,16.5555,212.973,15.9555,213.961,15.5333C214.95,15.1111,215.989,14.9,217.078,14.9C217.767,14.9,218.489,14.9833,219.245,15.15C220,15.3167,220.723,15.5833,221.411,15.95C222.1,16.3167,222.678,16.8,223.145,17.4C223.389,17.7333,223.534,18.1333,223.578,18.6C223.623,19.0667,223.411,19.4889,222.945,19.8667C222.611,20.1333,222.223,20.25,221.778,20.2167C221.334,20.1833,220.967,20.0333,220.678,19.7667C220.3,19.2778,219.795,18.8889,219.161,18.6C218.528,18.3111,217.8,18.1667,216.978,18.1667C216.645,18.1667,216.284,18.2055,215.895,18.2833C215.506,18.3611,215.167,18.5278,214.878,18.7833C214.589,19.0389,214.445,19.4444,214.445,20C214.445,20.5111,214.611,20.9167,214.945,21.2167C215.278,21.5167,215.728,21.7611,216.295,21.95C216.861,22.1389,217.467,22.3222,218.111,22.5C218.778,22.6778,219.456,22.8889,220.145,23.1333C220.834,23.3778,221.467,23.7,222.045,24.1C222.623,24.5,223.089,25.0167,223.445,25.65C223.8,26.2833,223.978,27.0889,223.978,28.0666C223.978,29.2,223.645,30.1666,222.978,30.9666C222.311,31.7666,221.478,32.3722,220.478,32.7833C219.478,33.1944,218.456,33.4,217.411,33.4C216.1,33.4,214.789,33.1722,213.478,32.7166C212.167,32.2611,211.078,31.4555,210.211,30.3ZM230.511,31.0333C230.511,31.6111,230.323,32.0944,229.945,32.4833C229.567,32.8722,229.089,33.0666,228.511,33.0666C227.934,33.0666,227.456,32.8722,227.078,32.4833C226.7,32.0944,226.511,31.6111,226.511,31.0333L226.511,17.2667C226.511,16.6889,226.7,16.2055,227.078,15.8167C227.456,15.4278,227.934,15.2333,228.511,15.2333C229.089,15.2333,229.567,15.4278,229.945,15.8167C230.323,16.2055,230.511,16.6889,230.511,17.2667ZM228.478,13.0667C227.723,13.0667,227.189,12.9444,226.878,12.7C226.567,12.4556,226.411,12.0222,226.411,11.4L226.411,10.7667C226.411,10.1222,226.584,9.68333,226.928,9.45C227.273,9.21667,227.8,9.1,228.511,9.1C229.289,9.1,229.834,9.22222,230.145,9.46667C230.456,9.71111,230.611,10.1444,230.611,10.7667L230.611,11.4C230.611,12.0444,230.445,12.4833,230.111,12.7167C229.778,12.95,229.234,13.0667,228.478,13.0667ZM243.137,14.9C244.782,14.9,246.032,15.2444,246.887,15.9333C247.743,16.6222,248.332,17.5389,248.654,18.6833C248.976,19.8278,249.137,21.1,249.137,22.5L249.137,31.0333C249.137,31.6111,248.949,32.0944,248.571,32.4833C248.193,32.8722,247.715,33.0666,247.137,33.0666C246.56,33.0666,246.082,32.8722,245.704,32.4833C245.326,32.0944,245.137,31.6111,245.137,31.0333L245.137,22.5C245.137,21.7667,245.043,21.1055,244.854,20.5167C244.665,19.9278,244.326,19.4555,243.837,19.1C243.349,18.7444,242.649,18.5667,241.737,18.5667C240.849,18.5667,240.099,18.7444,239.487,19.1C238.876,19.4555,238.41,19.9278,238.087,20.5167C237.765,21.1055,237.604,21.7667,237.604,22.5L237.604,31.0333C237.604,31.6111,237.415,32.0944,237.037,32.4833C236.66,32.8722,236.182,33.0666,235.604,33.0666C235.026,33.0666,234.549,32.8722,234.171,32.4833C233.793,32.0944,233.604,31.6111,233.604,31.0333L233.604,17.2667C233.604,16.6889,233.793,16.2055,234.171,15.8167C234.549,15.4278,235.026,15.2333,235.604,15.2333C236.182,15.2333,236.66,15.4278,237.037,15.8167C237.415,16.2055,237.604,16.6889,237.604,17.2667L237.604,18.7L237.104,18.6C237.304,18.2222,237.593,17.8167,237.971,17.3833C238.349,16.95,238.793,16.5444,239.304,16.1667C239.815,15.7889,240.393,15.4833,241.037,15.25C241.682,15.0167,242.382,14.9,243.137,14.9ZM261.067,33.4C259.178,33.4,257.539,33.0055,256.15,32.2166C254.761,31.4278,253.694,30.3555,252.95,29C252.206,27.6444,251.833,26.1111,251.833,24.4C251.833,22.4,252.239,20.6944,253.05,19.2833C253.861,17.8722,254.922,16.7889,256.233,16.0333C257.544,15.2778,258.933,14.9,260.4,14.9C261.533,14.9,262.606,15.1333,263.617,15.6C264.628,16.0667,265.522,16.7055,266.3,17.5167C267.078,18.3278,267.694,19.2667,268.15,20.3333C268.606,21.4,268.833,22.5333,268.833,23.7333C268.811,24.2667,268.6,24.7,268.2,25.0333C267.8,25.3667,267.333,25.5333,266.8,25.5333L254.067,25.5333L253.067,22.2L265.3,22.2L264.567,22.8667L264.567,21.9667C264.522,21.3222,264.294,20.7444,263.883,20.2333C263.472,19.7222,262.961,19.3167,262.35,19.0167C261.739,18.7167,261.089,18.5667,260.4,18.5667C259.733,18.5667,259.111,18.6555,258.533,18.8333C257.956,19.0111,257.456,19.3111,257.033,19.7333C256.611,20.1555,256.278,20.7222,256.033,21.4333C255.789,22.1444,255.667,23.0444,255.667,24.1333C255.667,25.3333,255.917,26.35,256.417,27.1833C256.917,28.0166,257.561,28.65,258.35,29.0833C259.139,29.5166,259.978,29.7333,260.867,29.7333C261.689,29.7333,262.344,29.6666,262.833,29.5333C263.322,29.4,263.717,29.2389,264.017,29.05C264.317,28.8611,264.589,28.7,264.833,28.5666C265.233,28.3666,265.611,28.2666,265.967,28.2666C266.456,28.2666,266.861,28.4333,267.183,28.7666C267.506,29.1,267.667,29.4889,267.667,29.9333C267.667,30.5333,267.356,31.0778,266.733,31.5666C266.156,32.0555,265.344,32.4833,264.3,32.85C263.256,33.2166,262.178,33.4,261.067,33.4ZM270.165,30.3C269.942,29.9889,269.842,29.5889,269.865,29.1C269.887,28.6111,270.176,28.1889,270.731,27.8333C271.087,27.6111,271.465,27.5166,271.865,27.55C272.265,27.5833,272.653,27.7889,273.031,28.1666C273.676,28.8111,274.353,29.3111,275.065,29.6666C275.776,30.0222,276.665,30.2,277.731,30.2C278.065,30.1778,278.431,30.1278,278.831,30.05C279.231,29.9722,279.581,29.7944,279.881,29.5166C280.181,29.2389,280.331,28.8111,280.331,28.2333C280.331,27.7444,280.165,27.3555,279.831,27.0666C279.498,26.7778,279.059,26.5333,278.515,26.3333C277.97,26.1333,277.365,25.9444,276.698,25.7666C276.009,25.5666,275.303,25.3444,274.581,25.1C273.859,24.8555,273.198,24.5389,272.598,24.15C271.998,23.7611,271.509,23.2444,271.131,22.6C270.753,21.9555,270.565,21.1444,270.565,20.1667C270.565,19.0555,270.876,18.1111,271.498,17.3333C272.12,16.5555,272.926,15.9555,273.915,15.5333C274.903,15.1111,275.942,14.9,277.031,14.9C277.72,14.9,278.442,14.9833,279.198,15.15C279.953,15.3167,280.676,15.5833,281.365,15.95C282.053,16.3167,282.631,16.8,283.098,17.4C283.342,17.7333,283.487,18.1333,283.531,18.6C283.576,19.0667,283.365,19.4889,282.898,19.8667C282.565,20.1333,282.176,20.25,281.731,20.2167C281.287,20.1833,280.92,20.0333,280.631,19.7667C280.253,19.2778,279.748,18.8889,279.115,18.6C278.481,18.3111,277.753,18.1667,276.931,18.1667C276.598,18.1667,276.237,18.2055,275.848,18.2833C275.459,18.3611,275.12,18.5278,274.831,18.7833C274.542,19.0389,274.398,19.4444,274.398,20C274.398,20.5111,274.565,20.9167,274.898,21.2167C275.231,21.5167,275.681,21.7611,276.248,21.95C276.815,22.1389,277.42,22.3222,278.065,22.5C278.731,22.6778,279.409,22.8889,280.098,23.1333C280.787,23.3778,281.42,23.7,281.998,24.1C282.576,24.5,283.042,25.0167,283.398,25.65C283.753,26.2833,283.931,27.0889,283.931,28.0666C283.931,29.2,283.598,30.1666,282.931,30.9666C282.265,31.7666,281.431,32.3722,280.431,32.7833C279.431,33.1944,278.409,33.4,277.365,33.4C276.053,33.4,274.742,33.1722,273.431,32.7166C272.12,32.2611,271.031,31.4555,270.165,30.3ZM285.665,30.3C285.442,29.9889,285.342,29.5889,285.365,29.1C285.387,28.6111,285.676,28.1889,286.231,27.8333C286.587,27.6111,286.965,27.5166,287.365,27.55C287.765,27.5833,288.153,27.7889,288.531,28.1666C289.176,28.8111,289.853,29.3111,290.565,29.6666C291.276,30.0222,292.165,30.2,293.231,30.2C293.565,30.1778,293.931,30.1278,294.331,30.05C294.731,29.9722,295.081,29.7944,295.381,29.5166C295.681,29.2389,295.831,28.8111,295.831,28.2333C295.831,27.7444,295.665,27.3555,295.331,27.0666C294.998,26.7778,294.559,26.5333,294.015,26.3333C293.47,26.1333,292.865,25.9444,292.198,25.7666C291.509,25.5666,290.803,25.3444,290.081,25.1C289.359,24.8555,288.698,24.5389,288.098,24.15C287.498,23.7611,287.009,23.2444,286.631,22.6C286.253,21.9555,286.065,21.1444,286.065,20.1667C286.065,19.0555,286.376,18.1111,286.998,17.3333C287.62,16.5555,288.426,15.9555,289.415,15.5333C290.403,15.1111,291.442,14.9,292.531,14.9C293.22,14.9,293.942,14.9833,294.698,15.15C295.453,15.3167,296.176,15.5833,296.865,15.95C297.553,16.3167,298.131,16.8,298.598,17.4C298.842,17.7333,298.987,18.1333,299.031,18.6C299.076,19.0667,298.865,19.4889,298.398,19.8667C298.065,20.1333,297.676,20.25,297.231,20.2167C296.787,20.1833,296.42,20.0333,296.131,19.7667C295.753,19.2778,295.248,18.8889,294.615,18.6C293.981,18.3111,293.253,18.1667,292.431,18.1667C292.098,18.1667,291.737,18.2055,291.348,18.2833C290.959,18.3611,290.62,18.5278,290.331,18.7833C290.042,19.0389,289.898,19.4444,289.898,20C289.898,20.5111,290.065,20.9167,290.398,21.2167C290.731,21.5167,291.181,21.7611,291.748,21.95C292.315,22.1389,292.92,22.3222,293.565,22.5C294.231,22.6778,294.909,22.8889,295.598,23.1333C296.287,23.3778,296.92,23.7,297.498,24.1C298.076,24.5,298.542,25.0167,298.898,25.65C299.253,26.2833,299.431,27.0889,299.431,28.0666C299.431,29.2,299.098,30.1666,298.431,30.9666C297.765,31.7666,296.931,32.3722,295.931,32.7833C294.931,33.1944,293.909,33.4,292.865,33.4C291.553,33.4,290.242,33.1722,288.931,32.7166C287.62,32.2611,286.531,31.4555,285.665,30.3ZM320.431,14.9C321.987,14.9,323.381,15.2944,324.615,16.0833C325.848,16.8722,326.826,17.9555,327.548,19.3333C328.27,20.7111,328.631,22.3111,328.631,24.1333C328.631,25.9555,328.27,27.5611,327.548,28.95C326.826,30.3389,325.859,31.4278,324.648,32.2166C323.437,33.0055,322.076,33.4,320.565,33.4C319.676,33.4,318.842,33.2555,318.065,32.9666C317.287,32.6778,316.603,32.3111,316.015,31.8666C315.426,31.4222,314.97,30.9722,314.648,30.5166C314.326,30.0611,314.165,29.6778,314.165,29.3666L315.198,28.9333L315.198,31.3666C315.198,31.9444,315.009,32.4278,314.631,32.8166C314.253,33.2055,313.776,33.4,313.198,33.4C312.62,33.4,312.142,33.2111,311.765,32.8333C311.387,32.4555,311.198,31.9666,311.198,31.3666L311.198,10.4333C311.198,9.85555,311.387,9.37222,311.765,8.98333C312.142,8.59444,312.62,8.4,313.198,8.4C313.776,8.4,314.253,8.59444,314.631,8.98333C315.009,9.37222,315.198,9.85555,315.198,10.4333L315.198,18.9L314.631,18.6C314.631,18.3111,314.787,17.9611,315.098,17.55C315.409,17.1389,315.831,16.7278,316.365,16.3167C316.898,15.9055,317.515,15.5667,318.215,15.3C318.915,15.0333,319.653,14.9,320.431,14.9ZM319.931,18.5667C318.953,18.5667,318.098,18.8111,317.365,19.3C316.631,19.7889,316.059,20.45,315.648,21.2833C315.237,22.1167,315.031,23.0667,315.031,24.1333C315.031,25.1778,315.237,26.1278,315.648,26.9833C316.059,27.8389,316.631,28.5111,317.365,29C318.098,29.4889,318.953,29.7333,319.931,29.7333C320.909,29.7333,321.759,29.4889,322.481,29C323.203,28.5111,323.77,27.8389,324.181,26.9833C324.592,26.1278,324.798,25.1778,324.798,24.1333C324.798,23.0667,324.592,22.1167,324.181,21.2833C323.77,20.45,323.203,19.7889,322.481,19.3C321.759,18.8111,320.909,18.5667,319.931,18.5667ZM344.4,15.2333C344.978,15.2333,345.456,15.4278,345.833,15.8167C346.211,16.2055,346.4,16.6889,346.4,17.2667L346.4,25.7333C346.4,28.0889,345.744,29.9555,344.433,31.3333C343.122,32.7111,341.233,33.4,338.767,33.4C336.3,33.4,334.417,32.7111,333.117,31.3333C331.817,29.9555,331.167,28.0889,331.167,25.7333L331.167,17.2667C331.167,16.6889,331.356,16.2055,331.733,15.8167C332.111,15.4278,332.589,15.2333,333.167,15.2333C333.744,15.2333,334.222,15.4278,334.6,15.8167C334.978,16.2055,335.167,16.6889,335.167,17.2667L335.167,25.7333C335.167,27.0889,335.467,28.0944,336.067,28.75C336.667,29.4055,337.567,29.7333,338.767,29.7333C339.989,29.7333,340.9,29.4055,341.5,28.75C342.1,28.0944,342.4,27.0889,342.4,25.7333L342.4,17.2667C342.4,16.6889,342.589,16.2055,342.967,15.8167C343.344,15.4278,343.822,15.2333,344.4,15.2333ZM361.299,29.4C361.832,29.4,362.277,29.5722,362.632,29.9166C362.988,30.2611,363.166,30.7,363.166,31.2333C363.166,31.7444,362.988,32.1778,362.632,32.5333C362.277,32.8889,361.832,33.0666,361.299,33.0666L350.566,33.0666C350.01,33.0666,349.566,32.8666,349.232,32.4666C348.899,32.0666,348.743,31.6666,348.766,31.2666C348.788,30.9333,348.832,30.6389,348.899,30.3833C348.966,30.1278,349.132,29.8333,349.399,29.5L357.699,18.7667L357.632,19.2333L350.866,19.2333C350.332,19.2333,349.888,19.0555,349.532,18.7C349.177,18.3444,348.999,17.9,348.999,17.3667C348.999,16.8555,349.177,16.4278,349.532,16.0833C349.888,15.7389,350.332,15.5667,350.866,15.5667L361.132,15.5667C361.643,15.5667,362.077,15.7555,362.432,16.1333C362.788,16.5111,362.943,16.9889,362.899,17.5667C362.877,17.7889,362.838,18.0111,362.782,18.2333C362.727,18.4555,362.577,18.7222,362.332,19.0333L354.166,29.6L354.166,29.4ZM377.19,29.4C377.723,29.4,378.167,29.5722,378.523,29.9166C378.878,30.2611,379.056,30.7,379.056,31.2333C379.056,31.7444,378.878,32.1778,378.523,32.5333C378.167,32.8889,377.723,33.0666,377.19,33.0666L366.456,33.0666C365.901,33.0666,365.456,32.8666,365.123,32.4666C364.79,32.0666,364.634,31.6666,364.656,31.2666C364.678,30.9333,364.723,30.6389,364.79,30.3833C364.856,30.1278,365.023,29.8333,365.29,29.5L373.59,18.7667L373.523,19.2333L366.756,19.2333C366.223,19.2333,365.778,19.0555,365.423,18.7C365.067,18.3444,364.89,17.9,364.89,17.3667C364.89,16.8555,365.067,16.4278,365.423,16.0833C365.778,15.7389,366.223,15.5667,366.756,15.5667L377.023,15.5667C377.534,15.5667,377.967,15.7555,378.323,16.1333C378.678,16.5111,378.834,16.9889,378.79,17.5667C378.767,17.7889,378.728,18.0111,378.673,18.2333C378.617,18.4555,378.467,18.7222,378.223,19.0333L370.056,29.6L370.056,29.4Z" fill-rule="nonzero" transform="translate(56.1016,28.8837) scale(0.264583,0.264583) translate(-189.773,-4.69998)"/>
    </g>
    <g id="g2" fill="none" transform="translate(-11,40.7471) translate(0,0) rotate(66.0967) scale(1.03551,1.03551) translate(-19.6128,-13.9843)">
        <path id="path1-1" fill-rule="evenodd" clip-rule="evenodd" d="M24.0239,16.1535C23.8892,17.3748,23.2599,18.4471,22.3408,19.1658C22.0825,19.7841,21.6209,20.2962,21.0394,20.6186C20.8747,21.2578,20.2944,22.6853,19.6038,22.6853C18.9132,22.6853,18.333,21.2578,18.1683,20.6186C17.5869,20.2963,17.1253,19.7842,16.867,19.166C15.9509,18.4499,15.3227,17.3825,15.185,16.1664C14.3764,16.7799,13.2233,16.7767,12.4129,16.0968C11.4721,15.3074,11.3494,13.9048,12.1388,12.9641L15.1727,9.34833C15.3666,7.07119,17.2764,5.28343,19.6038,5.28343C21.9228,5.28343,23.8274,7.05853,24.0327,9.32414L27.0869,12.9641C27.8763,13.9048,27.7535,15.3074,26.8128,16.0968C25.9968,16.7815,24.8333,16.7799,24.0239,16.1535ZM22.3,14.1779L22.31,12.6955L16.9356,12.7154L16.9257,14.1779ZM24.051,13.9585L24.8157,14.8698C25.0788,15.1834,25.5464,15.2243,25.8599,14.9612C26.1735,14.698,26.2144,14.2305,25.9513,13.9169L24.051,11.6522ZM22.5686,11.2131L22.5686,9.73067C22.5686,8.09324,21.2412,6.76585,19.6038,6.76585C17.9663,6.76585,16.6389,8.09324,16.6389,9.73067L16.6389,11.2131ZM14.41,14.8698L15.1565,13.9801L15.1565,11.6739L13.2744,13.9169C13.0112,14.2305,13.0522,14.698,13.3657,14.9612C13.6793,15.2243,14.1468,15.1834,14.41,14.8698ZM19.6038,18.6252C17.9663,18.6252,16.6389,17.2977,16.6389,15.6603L22.5686,15.6603C22.5686,17.2977,21.2412,18.6252,19.6038,18.6252Z" fill="#5d4777" fill-opacity="1" stroke-width="0.741206" transform="translate(19.6128,13.9843) translate(-19.6128,-13.9843)"/>
    </g>
    <script>/*
 KeyshapeJS v1.3.0 (c) 2018-2023 Pixofield Ltd | pixofield.com/keyshapejs/mit-license */
window.KeyshapeJS=function(){function r(a){return&quot;undefined&quot;!==typeof a}function u(a,b){return a&amp;&amp;0===a.indexOf(b)}function X(a){var b={},c;for(c in a)b[c]=a[c];return b}function F(a){if(!isFinite(a))throw Error(&quot;Non-finite value&quot;);}function Y(a){if(14&gt;=a)return 16;var b=Z[a];b||(b=r(ka[a])?0|(a.toLowerCase().indexOf(&quot;color&quot;)===a.length-5?48:0):1);return b}function N(a){return 0&lt;=a?Math.pow(a,1/3):-Math.pow(-a,1/3)}function la(a,b,c,d){if(0===a)return 0===b?b=-d/c:(a=Math.sqrt(c*c-4*b*d),d=(-c+a)/
(2*b),0&lt;=d&amp;&amp;1&gt;=d?b=d:(d=(-c-a)/(2*b),b=0&lt;=d&amp;&amp;1&gt;=d?d:0)),b;var e=c/a-b*b/(a*a)/3;c=b*b*b/(a*a*a)/13.5-b*c/(a*a)/3+d/a;var f=c*c/4+e*e*e/27;b=-b/(3*a);if(0&gt;=f){if(0===e&amp;&amp;0===c)return-N(d/a);a=Math.sqrt(c*c/4-f);d=Math.acos(-c/2/a);c=Math.cos(d/3);d=Math.sqrt(3)*Math.sin(d/3);a=N(a);e=2*a*c+b;if(0&lt;=e&amp;&amp;1&gt;=e)return e;e=-a*(c+d)+b;if(0&lt;=e&amp;&amp;1&gt;=e)return e;e=a*(d-c)+b;if(0&lt;=e&amp;&amp;1&gt;=e)return e}else{a=N(-c/2+Math.sqrt(f));c=N(-c/2-Math.sqrt(f));d=a+c+b;if(0&lt;=d&amp;&amp;1&gt;=d)return d;d=-(a+c)/2+b;if(0&lt;=d&amp;&amp;1&gt;=d)return d}return 0}
function ma(a,b){if(48===a&amp;&amp;&quot;number&quot;===typeof b)return&quot;rgba(&quot;+(b&gt;&gt;&gt;24)+&quot;,&quot;+(b&gt;&gt;&gt;16&amp;255)+&quot;,&quot;+(b&gt;&gt;&gt;8&amp;255)+&quot;,&quot;+(b&amp;255)/255+&quot;)&quot;;if(64===a)return b=b.map(function(f){return f+&quot;px&quot;}),b.join(&quot;,&quot;);if(96===a){for(var c=&quot;&quot;,d=b.length,e=0;e&lt;d;e+=2)c+=b[e],c+=b[e+1].join(&quot;,&quot;);return c}if(80===a){if(0===b[0])return&quot;none&quot;;c=&quot;&quot;;d=b.length;for(e=0;e&lt;d;)c+=aa[b[e]],1===b[e]?c+=&quot;(&quot;+b[e+1]+&quot;) &quot;:5===b[e]?(c+=&quot;(&quot;+b[e+1]+&quot;px &quot;+b[e+2]+&quot;px &quot;+b[e+3]+&quot;px rgba(&quot;+(b[e+4]&gt;&gt;&gt;24)+&quot;,&quot;+(b[e+4]&gt;&gt;16&amp;255)+&quot;,&quot;+(b[e+4]&gt;&gt;8&amp;255)+&quot;,&quot;+(b[e+
4]&amp;255)/255+&quot;)) &quot;,e+=3):c=2===b[e]?c+(&quot;(&quot;+b[e+1]+&quot;px) &quot;):7===b[e]?c+(&quot;(&quot;+b[e+1]+&quot;deg) &quot;):c+(&quot;(&quot;+(0&gt;b[e+1]?0:b[e+1])+&quot;) &quot;),e+=2;return c}return 32===a?b+&quot;px&quot;:b}function B(a){return 0&gt;=a?0:255&lt;=a?255:a}function na(a,b,c,d){if(16===a||32===a)return(c-b)*d+b;if(0===a)return.5&gt;d?b:c;if(112===a)return 0&gt;=d?b:1&lt;=d?c:&quot;visible&quot;;if(48===a){if(&quot;number&quot;===typeof b&amp;&amp;&quot;number&quot;===typeof c){a=1-d;var e=a*(b&gt;&gt;&gt;16&amp;255)+d*(c&gt;&gt;&gt;16&amp;255),f=a*(b&gt;&gt;&gt;8&amp;255)+d*(c&gt;&gt;&gt;8&amp;255),m=a*(b&amp;255)+d*(c&amp;255);return B(a*(b&gt;&gt;&gt;24)+d*(c&gt;&gt;&gt;24))&lt;&lt;
24|B(e)&lt;&lt;16|B(f)&lt;&lt;8|B(m)}return.5&gt;d?b:c}if(64===a){0===b.length&amp;&amp;(b=[0]);0===c.length&amp;&amp;(c=[0]);a=b.length;b.length!==c.length&amp;&amp;(a=b.length*c.length);e=[];for(f=0;f&lt;a;++f)m=b[f%b.length],m=(c[f%c.length]-m)*d+m,0&gt;m&amp;&amp;(m=0),e.push(m);return e}if(96===a){if(b.length!==c.length)return.5&gt;d?b:c;a=b.length;e=[];for(f=0;f&lt;a;f+=2){if(b[f]!==c[f])return.5&gt;d?b:c;e[f]=b[f];e[f+1]=[];for(m=0;m&lt;b[f+1].length;++m)e[f+1].push((c[f+1][m]-b[f+1][m])*d+b[f+1][m])}return e}if(80===a){a=b.length;if(a!==c.length)return.5&gt;
d?b:c;e=[];for(f=0;f&lt;a;){if(b[f]!==c[f]||1===b[f])return.5&gt;d?b:c;e[f]=b[f];e[f+1]=(c[f+1]-b[f+1])*d+b[f+1];if(5===b[f]){e[f+2]=(c[f+2]-b[f+2])*d+b[f+2];e[f+3]=(c[f+3]-b[f+3])*d+b[f+3];m=1-d;var k=b[f+4],h=c[f+4],g=m*(k&gt;&gt;&gt;24)+d*(h&gt;&gt;&gt;24),n=m*(k&gt;&gt;8&amp;255)+d*(h&gt;&gt;8&amp;255),p=m*(k&amp;255)+d*(h&amp;255);e[f+4]=(B(m*(k&gt;&gt;16&amp;255)+d*(h&gt;&gt;16&amp;255))&lt;&lt;16|B(n)&lt;&lt;8|B(p))+16777216*(B(g)|0);f+=3}f+=2}return e}return 0}function ba(a,b){a:{var c=a+b[2];for(var d=b[4].length,e=0;e&lt;d;++e)if(c&lt;b[4][e]){c=e;break a}c=d-1}d=b[2];e=b[4][c-
1]-d;d=(a-e)/(b[4][c]-d-e);if(b[6]&amp;&amp;b[6].length&gt;c-1)if(e=b[6][c-1],1===e[0])if(0&gt;=d)d=0;else if(1&lt;=d)d=1;else{var f=e[1],m=e[3];d=la(3*f-3*m+1,-6*f+3*m,3*f,-d);d=3*d*(1-d)*(1-d)*e[2]+3*d*d*(1-d)*e[4]+d*d*d}else 2===e[0]?(e=e[1],d=Math.ceil(d*e)/e):3===e[0]&amp;&amp;(e=e[1],d=Math.floor(d*e)/e);return na(b[1]&amp;240,b[5][c-1],b[5][c],d)}function O(){C||(z=(new Date).getTime()+ca)}function U(a){if(a||!J){for(var b=!1,c=0;c&lt;D.length;++c)D[c].O(a)&amp;&amp;(b=!0);if(a)for(;0&lt;K.length;)if(a=K.shift(),c=a[0],1===a[1])c.onfinish&amp;&amp;
(c.onfinish(),b=!0),c.N();else if(2===a[1]&amp;&amp;c.onloop)c.onloop();return b}}function da(){O();U(!0)&amp;&amp;!C?(J=!0,P(da)):J=!1}function Q(){J||(J=!0,P(da))}function ea(a,b){var c=[];a.split(b).forEach(function(d){c.push(parseFloat(d))});return c}function G(a){-1===a.indexOf(&quot;,&quot;)&amp;&amp;(a=a.replace(&quot; &quot;,&quot;,&quot;));return ea(a,&quot;,&quot;)}function fa(a){a._ks||(a._ks={});if(!a._ks.transform){for(var b=a._ks.transform=[],c=0;14&gt;=c;++c)b[c]=0;b[10]=1;b[11]=1;if(a=a.getAttribute(&quot;transform&quot;)){a=a.trim().split(&quot;) &quot;);for(c=a.length-
2;0&lt;=c;--c)if(u(a[c],&quot;translate(&quot;)){for(var d=0;d&lt;c;d++)a.shift();break}c=a.shift();u(c,&quot;translate(&quot;)&amp;&amp;(c=G(c.substring(10)),b[1]=c[0],b[2]=r(c[1])?c[1]:0,c=a.shift());u(c,&quot;rotate(&quot;)&amp;&amp;(c=G(c.substring(7)),b[6]=c[0],c=a.shift());u(c,&quot;skewX(&quot;)&amp;&amp;(c=G(c.substring(6)),b[7]=c[0],c=a.shift());u(c,&quot;skewY(&quot;)&amp;&amp;(c=G(c.substring(6)),b[8]=c[0],c=a.shift());u(c,&quot;scale(&quot;)&amp;&amp;(c=G(c.substring(6)),b[10]=c[0],b[11]=r(c[1])?c[1]:c[0],c=a.shift());u(c,&quot;translate(&quot;)&amp;&amp;(c=G(c.substring(10)),b[13]=c[0],b[14]=r(c[1])?c[1]:
0)}}}function ha(a){this.m=a;this.I=[];this.G=[];this.D=0;this.B=this.g=this.i=null;this.o=this.j=this.l=0;this.h=1;this.s=this.K=this.A=!1}function H(a,b,c){b=a[b];void 0===b&amp;&amp;(b=a[c]);return b}function oa(a){return Array.isArray(a)?a:u(a,&quot;cubic-bezier(&quot;)?(a=a.substring(13,a.length-1).split(&quot;,&quot;),[1,parseFloat(a[0]),parseFloat(a[1]),parseFloat(a[2]),parseFloat(a[3])]):u(a,&quot;steps(&quot;)?(a=a.substring(6,a.length-1).split(&quot;,&quot;),[a[1]&amp;&amp;&quot;start&quot;===a[1].trim()?2:3,parseFloat(a[0])]):[0]}function pa(a){a=a.trim();
return u(a,&quot;#&quot;)?(parseInt(a.substring(1),16)&lt;&lt;8)+255:u(a,&quot;rgba(&quot;)?(a=a.substring(5,a.length-1),a=a.split(&quot;,&quot;),(parseInt(a[0],10)&lt;&lt;24)+(parseInt(a[1],10)&lt;&lt;16)+(parseInt(a[2],10)&lt;&lt;8)+255*parseFloat(a[3])&lt;&lt;0):a}function ia(a){!1===a.s&amp;&amp;(D.push(a),a.s=!0,!1!==a.m.autoplay&amp;&amp;a.play());return this}function V(a){if(!0===a.s){a._cancel();var b=D.indexOf(a);-1&lt;b&amp;&amp;D.splice(b,1);b=K.indexOf(a);-1&lt;b&amp;&amp;K.splice(b,1);a.s=!1}return this}var W=Error(&quot;Not in timeline list&quot;),ja=&quot;mpath posX posY    rotate skewX skewY  scaleX scaleY  anchorX anchorY&quot;.split(&quot; &quot;),
qa=&quot; translate translate    rotate skewX skewY  scale scale  translate translate&quot;.split(&quot; &quot;),aa=&quot;none url blur brightness contrast drop-shadow grayscale hue-rotate invert opacity saturate sepia&quot;.split(&quot; &quot;),P=window.requestAnimationFrame||window.webkitRequestAnimationFrame||window.mozRequestAnimationFrame||window.oRequestAnimationFrame||window.msRequestAnimationFrame||null;P||(P=function(a){window.setTimeout(a,16)});var ra=/apple/i.test(navigator.vendor),Z={d:97,fill:48,fillOpacity:16,filter:80,height:33,
opacity:16,offsetDistance:33,rx:33,ry:33,stroke:48,strokeDasharray:64,strokeDashoffset:32,strokeOpacity:16,strokeWidth:32,transform:1,visibility:113,width:33},ka=window.getComputedStyle(document.documentElement),J=!1,z=(new Date).getTime(),C,ca=0,D=[],K=[];ha.prototype={J:function(a){var b=0;if(null!==this.i){var c=this.u();0&lt;this.h&amp;&amp;null!==c&amp;&amp;c&gt;=this.j?this.o?(this.i=z-this.l/this.h,this.o--,b=2):(b=1,a?this.g=c:this.g=this.B?Math.max(this.B,this.j):this.j):0&gt;this.h&amp;&amp;null!==c&amp;&amp;c&lt;=this.l?this.o&amp;&amp;
Infinity!==this.j?(this.i=z-this.j/this.h,this.o--,b=2):(this.o=0,b=1,a?this.g=c:this.g=this.B?Math.min(this.B,this.l):this.l):null!==c&amp;&amp;0!==this.h&amp;&amp;(a&amp;&amp;null!==this.g&amp;&amp;(this.i=z-this.g/this.h),this.g=null)}this.B=this.u();return b},O:function(a){a&amp;&amp;(this.A&amp;&amp;(this.A=!1,null===this.i&amp;&amp;(0!==this.h&amp;&amp;null!==this.g?(this.i=z-this.g/this.h,this.g=null):this.i=z)),null===this.g&amp;&amp;null!==this.i&amp;&amp;(a=this.J(!1),0!==a&amp;&amp;K.push([this,a])));a=this.u();if(null===a)return!1;for(var b=this.I,c=this.G,d=0;d&lt;b.length;++d){for(var e=
b[d],f=!1,m=0;m&lt;c[d].length;++m){var k=c[d][m],h=k[0];if(null!==h){var g=k[2];var n=k[4].length,p=k[4][n-1]-g;g=0===p?k[5][n-1]:a&lt;g?!k[9]||k[9][0]&amp;1?k[5][0]:k[9][1]:a&gt;=g+k[3]?!k[9]||k[9][0]&amp;2?0===k[3]%p?k[5][n-1]:ba(k[3]%p,k):k[9][1]:ba((a-g)%p,k);0===h?(e._ks.mpath=k[8],e._ks.transform[h]=g,f=!0):14&gt;=h?(e._ks.transform[h]=g,f=!0):(g=ma(k[1]&amp;240,g),k[1]&amp;1?e.setAttribute(h,g):e.style[h]=g)}}if(f){f=e;fa(f);m=f._ks.transform;k=&quot;&quot;;if(h=f._ks.mpath)n=m[0],0&gt;n&amp;&amp;(n=0),100&lt;n&amp;&amp;(n=100),n=n*h[2]/100,g=h[1].getPointAtLength(n),
k=&quot;translate(&quot;+g.x+&quot;,&quot;+g.y+&quot;) &quot;,h[0]&amp;&amp;(.5&gt;n?(n=g,g=h[1].getPointAtLength(.5)):n=h[1].getPointAtLength(n-.5),k+=&quot;rotate(&quot;+180*Math.atan2(g.y-n.y,g.x-n.x)/Math.PI+&quot;) &quot;);for(h=1;h&lt;m.length;++h)g=m[h],g!==(10===h||11===h?1:0)&amp;&amp;(k+=&quot; &quot;+qa[h]+&quot;(&quot;,k=2&gt;=h?k+(1===h?g+&quot;,0&quot;:&quot;0,&quot;+g):13&lt;=h?k+(13===h?g+&quot;,0&quot;:&quot;0,&quot;+g):10&lt;=h?k+(10===h?g+&quot;,1&quot;:&quot;1,&quot;+g):k+g,k+=&quot;)&quot;);f.setAttribute(&quot;transform&quot;,k)}ra&amp;&amp;e.setAttribute(&quot;opacity&quot;,e.getAttribute(&quot;opacity&quot;))}return&quot;running&quot;===this.v()},N:function(){!1!==this.m.autoremove&amp;&amp;&quot;finished&quot;===
this.v()&amp;&amp;V(this)},H:function(){if(!this.K){this.K=!0;for(var a=this.I,b=this.G,c=0;c&lt;a.length;++c)for(var d=a[c],e=0;e&lt;b[c].length;++e)14&gt;=b[c][e][0]&amp;&amp;fa(d)}},C:function(a){if(&quot;number&quot;===typeof a)return[a,0];if(!r(this.m.markers)||!r(this.m.markers[a]))throw Error(&quot;Invalid marker: &quot;+a);a=this.m.markers[a];return r(a.time)?[+a.time,+(a.dur||0)]:[+a,0]},play:function(a){r(a)&amp;&amp;null!==a&amp;&amp;(a=this.C(a)[0],F(a),0&gt;this.h&amp;&amp;a&lt;this.l&amp;&amp;(a=this.l),0&lt;this.h&amp;&amp;a&gt;this.j&amp;&amp;(a=this.j),this.F(a,!0));if(!this.s)throw W;
a=this.u();if(0&lt;this.h&amp;&amp;(null===a||a&gt;=this.j||a&lt;this.l))this.g=this.l;else if(0&gt;this.h&amp;&amp;(null===a||a&lt;=this.l||a&gt;this.j)){if(Infinity===this.j)throw Error(&quot;Cannot seek to Infinity&quot;);this.g=this.j}else 0===this.h&amp;&amp;null===a&amp;&amp;(this.g=this.l);if(null===this.g)return this;this.i=null;this.A=!0;this.H();Q();return this},pause:function(a){if(!this.s)throw W;r(a)&amp;&amp;(a=this.C(a)[0],F(a));if(&quot;paused&quot;!==this.v()){O();var b=this.u();if(null===b)if(0&lt;=this.h)this.g=this.l;else{if(Infinity===this.j)throw Error(&quot;Cannot seek to Infinity&quot;);
this.g=this.j}null!==this.i&amp;&amp;null===this.g&amp;&amp;(this.g=b);this.i=null;this.A=!1;this.J(!1);this.H();Q()}r(a)&amp;&amp;this.F(a,!0);return this},range:function(a,b){if(0===arguments.length)return{&quot;in&quot;:this.l,out:this.j};var c=this.C(a)[0],d=this.D;r(b)&amp;&amp;(d=this.C(b)[0]);F(c);if(0&gt;c||0&gt;d||c&gt;=d||isNaN(d))throw Error(&quot;Invalid range&quot;);var e=this.v();this.l=c;this.j=d;&quot;finished&quot;===e&amp;&amp;&quot;running&quot;===this.v()&amp;&amp;this.play();return this},loop:function(a){if(!r(a))return{count:this.o};this.o=!0===a?Infinity:Math.floor(a);
if(0&gt;this.o||isNaN(this.o))this.o=0;return this},u:function(){return null!==this.g?this.g:null===this.i?null:(z-this.i)*this.h},F:function(a,b){b&amp;&amp;O();null!==a&amp;&amp;(this.H(),null!==this.g||null===this.i||0===this.h?(this.g=a,U(!1)):this.i=z-a/this.h,this.s||(this.i=null),this.B=null,this.J(!0),Q())},L:function(){return this.u()},time:function(a){if(r(a)){if(!this.s)throw W;a=this.C(a)[0];F(a);this.F(a,!0);return this}return this.L()},v:function(){var a=this.u();return this.A?&quot;running&quot;:null===a?&quot;idle&quot;:
null===this.i?&quot;paused&quot;:0&lt;this.h&amp;&amp;a&gt;=this.j||0&gt;this.h&amp;&amp;a&lt;=this.l?&quot;finished&quot;:&quot;running&quot;},state:function(){return this.v()},duration:function(){return this.D},M:function(a){F(a);O();var b=this.u();this.h=a;null!==b&amp;&amp;this.F(b,!1)},rate:function(a){return r(a)?(this.M(a),this):this.h},markers:function(a){return r(a)?(this.m.markers=X(a),this):r(this.m.markers)?this.m.markers:{}},marker:function(a){return r(this.m.markers)?this.m.markers[a]:void 0},_cancel:function(){if(!this.s||&quot;idle&quot;===this.v())return this;
this.i=this.g=null;this.A=!1;return this}};return{version:&quot;1.3.0&quot;,animate:function(){var a={};1===arguments.length%2&amp;&amp;(a=X(arguments[arguments.length-1]));a=new ha(a);for(var b=arguments,c=0,d=0;d&lt;b.length-1;d+=2){var e=b[d];var f=e instanceof Element?e:document.getElementById(e.substring(1));if(!f)throw Error(&quot;Invalid target: &quot;+e);e=f;f=b[d+1];e._ks||(e._ks={});for(var m=[],k=0;k&lt;f.length;++k){var h=f[k],g=H(h,&quot;p&quot;,&quot;property&quot;);if(&quot;string&quot;!==typeof g||-1!==g.indexOf(&quot;-&quot;)||&quot;&quot;===g||!(0&lt;Z[g]||0&lt;=ja.indexOf(g)))throw Error(&quot;Invalid property: &quot;+
g);var n=ja.indexOf(g);&quot;&quot;!==g&amp;&amp;0&lt;=n&amp;&amp;(g=n);n=Y(g);var p=H(h,&quot;t&quot;,&quot;times&quot;);if(!p||2&gt;p.length)throw Error(&quot;Not enough times&quot;);p=p.slice();if(!isFinite(p[0])||0&gt;p[0])throw Error(&quot;Invalid time: &quot;+p[0]);for(var w=1;w&lt;p.length;++w)if(!isFinite(p[w])||0&gt;p[w]||p[w]&lt;p[w-1])throw Error(&quot;Invalid time: &quot;+p[w]);w=p[0];var R=p[p.length-1]-w,S=h.iterations||0;1&gt;S&amp;&amp;(S=1);R*=S;c&lt;R+w&amp;&amp;(c=R+w);var I=H(h,&quot;v&quot;,&quot;values&quot;);if(!I||I.length!==p.length)throw Error(&quot;Values do not match times&quot;);I=I.slice();for(var x=g,l=I,L=Y(x)&amp;
240,q=0;q&lt;l.length;++q)if(96===L){for(var E=l[q].substring(6,l[q].length-2).match(/[A-DF-Za-df-z][-+0-9eE., ]*/ig),M=[],t=0;t&lt;E.length;++t){M.push(E[t][0]);for(var v=1&lt;E[t].trim().length?E[t].substring(1).split(&quot;,&quot;):[],A=0;A&lt;v.length;++A)v[A]=parseFloat(v[A]);M.push(v)}l[q]=M}else if(48===L)u(l[q],&quot;#&quot;)?(E=9===l[q].length,l[q]=parseInt(l[q].substring(1),16),E||(l[q]=256*l[q]|255)):u(l[q],&quot;url(&quot;)||&quot;none&quot;===l[q]||(console.warn(&quot;unsupported color: &quot;+l[q]),l[q]=0);else if(80===L){E=l;M=q;t=l[q];if(&quot;none&quot;===
t)t=[0];else{v=[];for(var y=t.indexOf(&quot;(&quot;);0&lt;y;)if(A=aa.indexOf(t.substring(0,y)),0&lt;=A){v.push(A);var T=t.indexOf(&quot;) &quot;);0&gt;T&amp;&amp;(T=t.length-1);y=t.substring(y+1,T).split(&quot; &quot;);5===A?(v.push(parseFloat(y[0])),v.push(parseFloat(y[1])),v.push(parseFloat(y[2])),v.push(pa(y[3]))):1===A?v.push(y[0]):v.push(parseFloat(y[0]));t=t.substring(T+1).trim();y=t.indexOf(&quot;(&quot;)}else break;t=v}E[M]=t}else 64===L?&quot;none&quot;!==l[q]?/^[0-9 .]*$/.test(l[q])?l[q]=ea(l[q],&quot; &quot;):(console.warn(&quot;unsupported value: &quot;+l[q]),l[q]=[0]):
l[q]=[0]:32===L?(F(l[q]),l[q]=parseFloat(l[q])):0===x&amp;&amp;(l[q]=parseFloat(l[q]));x=H(h,&quot;e&quot;,&quot;easing&quot;);l=p.length;for(x||(x=[]);x.length&lt;l;)x.push([1,0,0,.58,1]);for(l=0;l&lt;x.length;++l)x[l]=oa(x[l]);n=[g,n,w,R,p,I,x,S];p=H(h,&quot;mp&quot;,&quot;motionPath&quot;);r(p)&amp;&amp;0===g&amp;&amp;(n[8]=[],n[8][0]=h.motionRotate,g=document.createElementNS(&quot;http://www.w3.org/2000/svg&quot;,&quot;path&quot;),p||(p=&quot;M0,0&quot;),g.setAttribute(&quot;d&quot;,p),n[8][1]=g,n[8][2]=g.getTotalLength());h=H(h,&quot;f&quot;,&quot;fill&quot;);r(h)&amp;&amp;(n[9]=h.slice());m.push(n)}0&lt;m.length&amp;&amp;(a.I.push(e),a.G.push(m))}a.D=
c;a.l=0;a.j=a.D;ia(a);return a},add:ia,remove:V,removeAll:function(){for(var a=D.length-1;0&lt;=a;--a)V(D[a]);return this},timelines:function(){return D.slice()},globalPlay:function(){C&amp;&amp;(ca=C-(new Date).getTime(),C=void 0,Q());return this},globalPause:function(){C||(C=z,U(!1));return this},globalState:function(){return C?&quot;paused&quot;:&quot;running&quot;}}}();
</script>
    <script>if(KeyshapeJS.version.indexOf('1.')!=0)throw Error('Expected KeyshapeJS v1.*.*');window.ks=document.ks=KeyshapeJS;(function(ks){
var tl=ks.animate('#_a0',[{p:'d',t:[0,2100,2200,2300,2400,2500,2600,2700,2800,2900,3000,3100,3200,3300,3400,3500,3600,3700,3800,3900,4000],v:[&quot;path('M-52.1016,715.972C-52.1016,715.972,33.6525,717.847,33.6525,717.847C33.6525,717.847,33.6525,0,33.6525,0C33.6525,0,-52.1016,-1.88368,-52.1016,-1.88368C-52.1016,-1.88368,-52.1016,715.972,-52.1016,715.972Z')&quot;,&quot;path('M-52.1016,715.972C-52.1016,715.972,18.9114,715.972,18.9114,715.972C18.9114,715.972,18.9114,-1.87469,18.9114,-1.87469C18.9114,-1.87469,-52.1016,-1.88368,-52.1016,-1.88368C-52.1016,-1.88368,-52.1016,715.972,-52.1016,715.972Z')&quot;,&quot;path('M-52.1016,715.972C-52.1016,715.972,48.3936,715.963,48.3936,715.963C48.3936,715.963,48.3936,-1.88368,48.3936,-1.88368C48.3936,-1.88368,-52.1016,-1.88368,-52.1016,-1.88368C-52.1016,-1.88368,-52.1016,715.972,-52.1016,715.972Z')&quot;,&quot;path('M-52.1016,715.972C-52.1016,715.972,136.84,717.847,136.84,717.847C136.84,717.847,136.84,0,136.84,0C136.84,0,-52.1016,-1.88368,-52.1016,-1.88368C-52.1016,-1.88368,-52.1016,715.972,-52.1016,715.972Z')&quot;,&quot;path('M-52.1016,715.972C-52.1016,715.972,215.306,715.972,215.306,715.972C215.306,715.972,215.306,-1.875,215.306,-1.875C215.306,-1.875,-52.1016,-1.88368,-52.1016,-1.88368C-52.1016,-1.88368,-52.1016,715.972,-52.1016,715.972Z')&quot;,&quot;path('M-52.1016,715.972C-52.1016,715.972,313.733,715.972,313.733,715.972C313.733,715.972,313.733,-1.875,313.733,-1.875C313.733,-1.875,-52.1016,-1.88368,-52.1016,-1.88368C-52.1016,-1.88368,-52.1016,715.972,-52.1016,715.972Z')&quot;,&quot;path('M-52.1016,715.972C-52.1016,715.972,416.921,717.847,416.921,717.847C416.921,717.847,416.921,0,416.921,0C416.921,0,-52.1016,-1.88368,-52.1016,-1.88368C-52.1016,-1.88368,-52.1016,715.972,-52.1016,715.972Z')&quot;,&quot;path('M-52.1016,715.972C-52.1016,715.972,505.368,715.972,505.368,715.972C505.368,715.972,505.368,-1.875,505.368,-1.875C505.368,-1.875,-52.1016,-1.88368,-52.1016,-1.88368C-52.1016,-1.88368,-52.1016,715.972,-52.1016,715.972Z')&quot;,&quot;path('M-52.1016,715.972C-52.1016,715.972,608.555,717.847,608.555,717.847C608.555,717.847,608.555,0,608.555,0C608.555,0,-52.1016,-1.88368,-52.1016,-1.88368C-52.1016,-1.88368,-52.1016,715.972,-52.1016,715.972Z')&quot;,&quot;path('M-52.1016,715.972C-52.1016,715.972,711.743,717.847,711.743,717.847C711.743,717.847,711.743,0,711.743,0C711.743,0,-52.1016,-1.88368,-52.1016,-1.88368C-52.1016,-1.88368,-52.1016,715.972,-52.1016,715.972Z')&quot;,&quot;path('M-52.1016,715.972C-52.1016,715.972,844.413,715.972,844.413,715.972C844.413,715.972,844.413,-1.875,844.413,-1.875C844.413,-1.875,-52.1016,-1.88368,-52.1016,-1.88368C-52.1016,-1.88368,-52.1016,715.972,-52.1016,715.972Z')&quot;,&quot;path('M-52.1016,715.972C-52.1016,715.972,888.636,715.972,888.636,715.972C888.636,715.972,888.636,-1.875,888.636,-1.875C888.636,-1.875,-52.1016,-1.88368,-52.1016,-1.88368C-52.1016,-1.88368,-52.1016,715.972,-52.1016,715.972Z')&quot;,&quot;path('M-52.1016,715.972C-52.1016,715.972,873.895,715.972,873.895,715.972C873.895,715.972,873.895,-1.875,873.895,-1.875C873.895,-1.875,-52.1016,-1.88368,-52.1016,-1.88368C-52.1016,-1.88368,-52.1016,715.972,-52.1016,715.972Z')&quot;,&quot;path('M-52.1016,715.972C-52.1016,715.972,932.859,715.972,932.859,715.972C932.859,715.972,932.859,-1.875,932.859,-1.875C932.859,-1.875,-52.1016,-1.88368,-52.1016,-1.88368C-52.1016,-1.88368,-52.1016,715.972,-52.1016,715.972Z')&quot;,&quot;path('M-52.1016,715.972C-52.1016,715.972,977.083,715.972,977.083,715.972C977.083,715.972,977.083,-1.875,977.083,-1.875C977.083,-1.875,-52.1016,-1.88368,-52.1016,-1.88368C-52.1016,-1.88368,-52.1016,715.972,-52.1016,715.972Z')&quot;,&quot;path('M-52.1016,715.972C-52.1016,715.972,1036.05,715.963,1036.05,715.963C1036.05,715.963,1036.05,-1.88368,1036.05,-1.88368C1036.05,-1.88368,-52.1016,-1.88368,-52.1016,-1.88368C-52.1016,-1.88368,-52.1016,715.972,-52.1016,715.972Z')&quot;,&quot;path('M-52.1016,715.972C-52.1016,715.972,1124.49,715.963,1124.49,715.963C1124.49,715.963,1124.49,-1.88368,1124.49,-1.88368C1124.49,-1.88368,-52.1016,-1.88368,-52.1016,-1.88368C-52.1016,-1.88368,-52.1016,715.972,-52.1016,715.972Z')&quot;,&quot;path('M-52.1016,715.972C-52.1016,715.972,1198.2,715.972,1198.2,715.972C1198.2,715.972,1198.2,-1.875,1198.2,-1.875C1198.2,-1.875,-52.1016,-1.88368,-52.1016,-1.88368C-52.1016,-1.88368,-52.1016,715.972,-52.1016,715.972Z')&quot;,&quot;path('M-52.1016,715.972C-52.1016,715.972,1286.65,715.972,1286.65,715.972C1286.65,715.972,1286.65,-1.875,1286.65,-1.875C1286.65,-1.875,-52.1016,-1.88368,-52.1016,-1.88368C-52.1016,-1.88368,-52.1016,715.972,-52.1016,715.972Z')&quot;,&quot;path('M-52.1016,715.972C-52.1016,715.972,1345.61,715.972,1345.61,715.972C1345.61,715.972,1345.61,-1.875,1345.61,-1.875C1345.61,-1.875,-52.1016,-1.88368,-52.1016,-1.88368C-52.1016,-1.88368,-52.1016,715.972,-52.1016,715.972Z')&quot;,&quot;path('M-52.1016,715.972C-52.1016,715.972,1389.83,715.972,1389.83,715.972C1389.83,715.972,1389.83,-1.875,1389.83,-1.875C1389.83,-1.875,-52.1016,-1.88368,-52.1016,-1.88368C-52.1016,-1.88368,-52.1016,715.972,-52.1016,715.972Z')&quot;],e:[[0],[0],[0],[0],[0],[0],[0],[0],[0],[0],[0],[0],[0],[0],[0],[0],[0],[0],[0],[0],[0]]}],
'#_a1',[{p:'d',t:[0,3200,3300,3400,3500,3600,3700,3800,3900,4000,4100,4200,4300,4400,4500],v:[&quot;path('M-52.1016,9.7102C-52.1016,9.7102,-43,9.7102,-43,9.7102C-43,9.7102,-43,-1.88368,-43,-1.88368C-43,-1.88368,-52.1016,-1.88368,-52.1016,-1.88368C-52.1016,-1.88368,-52.1016,9.7102,-52.1016,9.7102Z')&quot;,&quot;path('M-52.1016,9.7102C-52.1016,9.7102,-43,9.7102,-43,9.7102C-43,9.7102,-43,-1.88368,-43,-1.88368C-43,-1.88368,-52.1016,-1.88368,-52.1016,-1.88368C-52.1016,-1.88368,-52.1016,9.7102,-52.1016,9.7102Z')&quot;,&quot;path('M-52.1016,9.7102C-52.1016,9.7102,-42,9.7102,-42,9.7102C-42,9.7102,-42,-1.88368,-42,-1.88368C-42,-1.88368,-52.1016,-1.88368,-52.1016,-1.88368C-52.1016,-1.88368,-52.1016,9.7102,-52.1016,9.7102Z')&quot;,&quot;path('M-52.1016,9.7102C-52.1016,9.7102,-39,9.7102,-39,9.7102C-39,9.7102,-39,-1.88368,-39,-1.88368C-39,-1.88368,-52.1016,-1.88368,-52.1016,-1.88368C-52.1016,-1.88368,-52.1016,9.7102,-52.1016,9.7102Z')&quot;,&quot;path('M-52.1016,9.7102C-52.1016,9.7102,-35,9.7102,-35,9.7102C-35,9.7102,-35,-1.88368,-35,-1.88368C-35,-1.88368,-52.1016,-1.88368,-52.1016,-1.88368C-52.1016,-1.88368,-52.1016,9.7102,-52.1016,9.7102Z')&quot;,&quot;path('M-52.1016,9.7102C-52.1016,9.7102,-29,9.7102,-29,9.7102C-29,9.7102,-29,-1.88368,-29,-1.88368C-29,-1.88368,-52.1016,-1.88368,-52.1016,-1.88368C-52.1016,-1.88368,-52.1016,9.7102,-52.1016,9.7102Z')&quot;,&quot;path('M-52.1016,9.7102C-52.1016,9.7102,-22,9.7102,-22,9.7102C-22,9.7102,-22,-1.88368,-22,-1.88368C-22,-1.88368,-52.1016,-1.88368,-52.1016,-1.88368C-52.1016,-1.88368,-52.1016,9.7102,-52.1016,9.7102Z')&quot;,&quot;path('M-52.1016,9.7102C-52.1016,9.7102,-18,9.7102,-18,9.7102C-18,9.7102,-18,-1.88368,-18,-1.88368C-18,-1.88368,-52.1016,-1.88368,-52.1016,-1.88368C-52.1016,-1.88368,-52.1016,9.7102,-52.1016,9.7102Z')&quot;,&quot;path('M-52.1016,9.7102C-52.1016,9.7102,-13,9.7102,-13,9.7102C-13,9.7102,-13,-1.88368,-13,-1.88368C-13,-1.88368,-52.1016,-1.88368,-52.1016,-1.88368C-52.1016,-1.88368,-52.1016,9.7102,-52.1016,9.7102Z')&quot;,&quot;path('M-52.1016,9.7102C-52.1016,9.7102,-11,9.7102,-11,9.7102C-11,9.7102,-11,-1.88368,-11,-1.88368C-11,-1.88368,-52.1016,-1.88368,-52.1016,-1.88368C-52.1016,-1.88368,-52.1016,9.7102,-52.1016,9.7102Z')&quot;,&quot;path('M-52.1016,9.7102C-52.1016,9.7102,-6,9.7102,-6,9.7102C-6,9.7102,-6,-1.88368,-6,-1.88368C-6,-1.88368,-52.1016,-1.88368,-52.1016,-1.88368C-52.1016,-1.88368,-52.1016,9.7102,-52.1016,9.7102Z')&quot;,&quot;path('M-52.1016,9.7102C-52.1016,9.7102,0,9.7102,0,9.7102C0,9.7102,0,-1.88368,0,-1.88368C0,-1.88368,-52.1016,-1.88368,-52.1016,-1.88368C-52.1016,-1.88368,-52.1016,9.7102,-52.1016,9.7102Z')&quot;,&quot;path('M-52.1016,9.7102C-52.1016,9.7102,6,9.7102,6,9.7102C6,9.7102,6,-1.88368,6,-1.88368C6,-1.88368,-52.1016,-1.88368,-52.1016,-1.88368C-52.1016,-1.88368,-52.1016,9.7102,-52.1016,9.7102Z')&quot;,&quot;path('M-52.1016,9.7102C-52.1016,9.7102,11,9.7102,11,9.7102C11,9.7102,11,-1.88368,11,-1.88368C11,-1.88368,-52.1016,-1.88368,-52.1016,-1.88368C-52.1016,-1.88368,-52.1016,9.7102,-52.1016,9.7102Z')&quot;,&quot;path('M-52.1016,9.7102C-52.1016,9.7102,15,9.7102,15,9.7102C15,9.7102,15,-1.88368,15,-1.88368C15,-1.88368,-52.1016,-1.88368,-52.1016,-1.88368C-52.1016,-1.88368,-52.1016,9.7102,-52.1016,9.7102Z')&quot;],e:[[0],[0],[0],[0],[0],[0],[0],[0],[0],[0],[0],[0],[0],[0],[0]]}],
'#_a2',[{p:'opacity',t:[0,5300,5800],v:[0,0,1],e:[[0],[0],[0]]}],
'#layer3',[{p:'visibility',t:[0,2100],v:['visible','visible'],e:[[3,1],[3,1]],fill:[2,'hidden']}],
'#_a3',[{p:'d',t:[0,400,500,600,700,800,900,1000,1100,1200,1300,1400,1500,1600,1700,1800,1900,2000,2100],v:[&quot;path('M-52.1016,9.7102C-52.1016,9.7102,-50.1016,9.7102,-50.1016,9.7102C-50.1016,9.7102,-50.1016,-1.88368,-50.1016,-1.88368C-50.1016,-1.88368,-52.1016,-1.88368,-52.1016,-1.88368C-52.1016,-1.88368,-52.1016,9.7102,-52.1016,9.7102Z')&quot;,&quot;path('M-52.1016,9.7102C-52.1016,9.7102,-50.1016,9.7102,-50.1016,9.7102C-50.1016,9.7102,-50.1016,-1.88368,-50.1016,-1.88368C-50.1016,-1.88368,-52.1016,-1.88368,-52.1016,-1.88368C-52.1016,-1.88368,-52.1016,9.7102,-52.1016,9.7102Z')&quot;,&quot;path('M-52.1016,9.7102C-52.1016,9.7102,-46.1016,9.7102,-46.1016,9.7102C-46.1016,9.7102,-46.1016,-1.88368,-46.1016,-1.88368C-46.1016,-1.88368,-52.1016,-1.88368,-52.1016,-1.88368C-52.1016,-1.88368,-52.1016,9.7102,-52.1016,9.7102Z')&quot;,&quot;path('M-52.1016,9.7102C-52.1016,9.7102,-40.1016,9.7102,-40.1016,9.7102C-40.1016,9.7102,-40.1016,-1.88368,-40.1016,-1.88368C-40.1016,-1.88368,-52.1016,-1.88368,-52.1016,-1.88368C-52.1016,-1.88368,-52.1016,9.7102,-52.1016,9.7102Z')&quot;,&quot;path('M-52.1016,9.7102C-52.1016,9.7102,-33.1016,9.7102,-33.1016,9.7102C-33.1016,9.7102,-33.1016,-1.88368,-33.1016,-1.88368C-33.1016,-1.88368,-52.1016,-1.88368,-52.1016,-1.88368C-52.1016,-1.88368,-52.1016,9.7102,-52.1016,9.7102Z')&quot;,&quot;path('M-52.1016,9.7102C-52.1016,9.7102,-27.1016,9.7102,-27.1016,9.7102C-27.1016,9.7102,-27.1016,-1.88368,-27.1016,-1.88368C-27.1016,-1.88368,-52.1016,-1.88368,-52.1016,-1.88368C-52.1016,-1.88368,-52.1016,9.7102,-52.1016,9.7102Z')&quot;,&quot;path('M-52.1016,9.7102C-52.1016,9.7102,-21.1016,9.7102,-21.1016,9.7102C-21.1016,9.7102,-21.1016,-1.88368,-21.1016,-1.88368C-21.1016,-1.88368,-52.1016,-1.88368,-52.1016,-1.88368C-52.1016,-1.88368,-52.1016,9.7102,-52.1016,9.7102Z')&quot;,&quot;path('M-52.1016,9.7102C-52.1016,9.7102,-15.1016,9.7102,-15.1016,9.7102C-15.1016,9.7102,-15.1016,-1.88368,-15.1016,-1.88368C-15.1016,-1.88368,-52.1016,-1.88368,-52.1016,-1.88368C-52.1016,-1.88368,-52.1016,9.7102,-52.1016,9.7102Z')&quot;,&quot;path('M-52.1016,9.7102C-52.1016,9.7102,-9.10159,9.7102,-9.10159,9.7102C-9.10159,9.7102,-9.10159,-1.88368,-9.10159,-1.88368C-9.10159,-1.88368,-52.1016,-1.88368,-52.1016,-1.88368C-52.1016,-1.88368,-52.1016,9.7102,-52.1016,9.7102Z')&quot;,&quot;path('M-52.1016,9.7102C-52.1016,9.7102,-2.10159,9.7102,-2.10159,9.7102C-2.10159,9.7102,-2.10159,-1.88368,-2.10159,-1.88368C-2.10159,-1.88368,-52.1016,-1.88368,-52.1016,-1.88368C-52.1016,-1.88368,-52.1016,9.7102,-52.1016,9.7102Z')&quot;,&quot;path('M-52.1016,9.7102C-52.1016,9.7102,3.89841,9.7102,3.89841,9.7102C3.89841,9.7102,3.89841,-1.88368,3.89841,-1.88368C3.89841,-1.88368,-52.1016,-1.88368,-52.1016,-1.88368C-52.1016,-1.88368,-52.1016,9.7102,-52.1016,9.7102Z')&quot;,&quot;path('M-52.1016,9.7102C-52.1016,9.7102,9.89841,9.7102,9.89841,9.7102C9.89841,9.7102,9.89841,-1.88368,9.89841,-1.88368C9.89841,-1.88368,-52.1016,-1.88368,-52.1016,-1.88368C-52.1016,-1.88368,-52.1016,9.7102,-52.1016,9.7102Z')&quot;,&quot;path('M-52.1016,9.7102C-52.1016,9.7102,16.8984,10.1163,16.8984,10.1163C16.8984,10.1163,16.8984,-1.47756,16.8984,-1.47756C16.8984,-1.47756,-52.1016,-1.88368,-52.1016,-1.88368C-52.1016,-1.88368,-52.1016,9.7102,-52.1016,9.7102Z')&quot;,&quot;path('M-52.1016,9.7102C-52.1016,9.7102,22.8984,10.1163,22.8984,10.1163C22.8984,10.1163,22.8984,-1.47754,22.8984,-1.47754C22.8984,-1.47754,-52.1016,-1.88368,-52.1016,-1.88368C-52.1016,-1.88368,-52.1016,9.7102,-52.1016,9.7102Z')&quot;,&quot;path('M-52.1016,9.7102C-52.1016,9.7102,28.8984,10.1163,28.8984,10.1163C28.8984,10.1163,28.8984,-1.47752,28.8984,-1.47752C28.8984,-1.47752,-52.1016,-1.88368,-52.1016,-1.88368C-52.1016,-1.88368,-52.1016,9.7102,-52.1016,9.7102Z')&quot;,&quot;path('M-52.1016,9.7102C-52.1016,9.7102,34.8984,10.1163,34.8984,10.1163C34.8984,10.1163,34.8984,-1.4775,34.8984,-1.4775C34.8984,-1.4775,-52.1016,-1.88368,-52.1016,-1.88368C-52.1016,-1.88368,-52.1016,9.7102,-52.1016,9.7102Z')&quot;,&quot;path('M-52.1016,9.7102C-52.1016,9.7102,41.8984,10.1163,41.8984,10.1163C41.8984,10.1163,41.8984,-1.47748,41.8984,-1.47748C41.8984,-1.47748,-52.1016,-1.88368,-52.1016,-1.88368C-52.1016,-1.88368,-52.1016,9.7102,-52.1016,9.7102Z')&quot;,&quot;path('M-52.1016,9.7102C-52.1016,9.7102,47.8984,10.1163,47.8984,10.1163C47.8984,10.1163,47.8984,-1.47746,47.8984,-1.47746C47.8984,-1.47746,-52.1016,-1.88368,-52.1016,-1.88368C-52.1016,-1.88368,-52.1016,9.7102,-52.1016,9.7102Z')&quot;,&quot;path('M-52.1016,9.7102C-52.1016,9.7102,53.8984,10.1163,53.8984,10.1163C53.8984,10.1163,53.8984,-1.47744,53.8984,-1.47744C53.8984,-1.47744,-52.1016,-1.88368,-52.1016,-1.88368C-52.1016,-1.88368,-52.1016,9.7102,-52.1016,9.7102Z')&quot;],e:[[0],[0],[0],[0],[0],[0],[0],[0],[0],[0],[0],[0],[0],[0],[0],[0],[0],[0],[0]]}],
'#g2',[{p:'mpath',t:[0,3000,4500],v:['0%','67.825715%','100%'],e:[[0],[0],[0]],mp:'M-11,40.7471C50,11,68,56.5,175.659,28.0746C198.377,-34.5018,219.141,63.7829,238,11.4632'},{p:'rotate',t:[0,200,400,500,600,700,800,1000,1100,1200,1500,1600,1700,1800,1900,2000,2100,2200,2300,2400,2500,2600,2700,2800,2900,3000,3100,3200,3300,3400,3500,3600,3700,3800,3900,4000,4100,4200,4300,4400,4500],v:[66.0967,68.3361,75.473,79.8601,88.9284,97.1685,96.478,101.072,100.071,101.273,99.5069,96.9998,91.619,88.9954,90.6064,86.4691,85.7422,84.978,82.7058,79.8091,76.4075,74.9196,73.9537,59.5414,49.0942,20.6522,23.1299,31.6528,42.8761,61.5439,84.4519,108.41,126.52,133.702,130.972,115.595,94.2645,62.1991,43.2912,29.6645,23.9381],e:[[0],[0],[0],[0],[0],[0],[0],[0],[0],[0],[0],[0],[0],[0],[0],[0],[0],[0],[0],[0],[0],[0],[0],[0],[0],[0],[0],[0],[0],[0],[0],[0],[0],[0],[0],[0],[0],[0],[0],[0],[0]]}],
{autoremove:false}).range(0,15000).loop(true);
if(document.location.search.substr(1).split('&amp;').indexOf('global=paused')&gt;=0)ks.globalPause();})(KeyshapeJS);
</script>
</svg>
